{"glyphs":{"0":{"ha":722,"x_min":56,"x_max":667,"o":"m 535 486 q 518 726 535 632 q 476 875 501 821 q 421 951 451 929 q 361 972 390 972 q 301 951 332 972 q 246 875 271 929 q 204 726 221 821 q 188 486 188 632 q 204 246 188 340 q 246 97 221 151 q 301 22 271 43 q 361 0 332 0 q 421 22 390 0 q 476 97 451 43 q 518 246 501 151 q 535 486 535 340 m 667 486 q 640 257 667 353 q 571 99 614 161 q 473 8 528 38 q 361 -21 418 -21 q 249 8 304 -21 q 151 99 194 38 q 82 257 108 161 q 56 486 56 353 q 82 715 56 619 q 151 873 108 811 q 249 964 194 935 q 361 993 304 993 q 473 964 418 993 q 571 873 528 935 q 640 715 614 811 q 667 486 667 619 z "},"1":{"ha":403,"x_min":14,"x_max":354,"o":"m 271 35 l 354 14 l 354 0 l 69 0 l 69 14 l 153 35 l 153 917 l 14 917 l 14 938 l 271 993 l 271 35 z "},"2":{"ha":660,"x_min":-7,"x_max":604,"o":"m 278 972 q 203 956 239 972 q 138 910 167 939 q 93 846 110 882 q 76 771 76 810 q 105 711 76 735 q 201 688 133 688 l 229 576 q 217 572 224 574 q 202 570 210 571 q 188 569 194 569 q 89 616 129 569 q 49 757 49 663 q 68 851 49 807 q 121 928 88 894 q 198 981 154 961 q 292 1000 242 1000 q 412 978 357 1000 q 506 917 467 956 q 568 827 546 879 q 590 715 590 775 q 567 598 590 658 q 503 478 543 538 q 414 361 464 418 q 311 254 364 304 q 208 162 258 204 q 118 90 158 119 l 556 90 l 583 222 l 604 222 l 604 0 l -7 0 q 174 194 89 104 q 322 370 258 285 q 422 540 385 456 q 458 715 458 624 q 444 832 458 783 q 407 912 431 881 q 350 958 383 943 q 278 972 317 972 z "},"3":{"ha":667,"x_min":28,"x_max":618,"o":"m 306 972 q 208 936 243 972 q 174 826 174 900 q 181 785 174 806 q 188 764 183 774 l 69 736 q 63 751 65 742 q 56 799 56 768 q 72 873 56 838 q 121 935 89 908 q 199 977 153 961 q 306 993 246 993 q 417 976 368 993 q 500 928 467 958 q 551 856 533 897 q 569 764 569 814 q 537 644 569 688 q 465 578 504 601 q 361 542 419 551 q 489 499 433 532 q 536 464 513 485 q 578 415 560 443 q 607 349 596 386 q 618 264 618 311 q 595 152 618 204 q 531 62 572 100 q 430 1 489 24 q 299 -21 371 -21 q 189 -1 239 -21 q 103 51 139 18 q 48 128 68 85 q 28 222 28 172 q 69 381 28 332 q 167 431 110 431 q 181 429 174 431 q 196 426 189 428 q 208 424 203 425 l 181 313 q 56 194 56 313 q 73 127 56 161 q 121 67 90 93 q 193 24 151 40 q 285 7 235 7 q 433 67 379 7 q 486 264 486 128 q 433 466 486 404 q 292 528 381 528 l 236 528 l 236 556 l 292 556 q 408 605 365 556 q 451 764 451 654 q 440 855 451 815 q 408 920 428 894 q 361 959 388 946 q 306 972 335 972 z "},"4":{"ha":729,"x_min":-14,"x_max":729,"o":"m 542 313 q 612 317 578 313 q 672 329 646 322 q 729 347 703 336 l 729 333 q 682 297 708 314 q 624 269 658 282 q 542 250 589 256 l 542 35 l 625 14 l 625 0 l 340 0 l 340 14 l 424 35 l 424 250 l -14 250 q 239 577 133 397 q 424 972 344 757 l 542 972 l 542 313 m 424 882 q 356 729 394 808 q 272 574 317 650 q 178 430 226 497 q 83 313 131 363 l 424 313 l 424 882 z "},"5":{"ha":653,"x_min":28,"x_max":611,"o":"m 264 7 q 344 26 306 7 q 413 85 383 46 q 461 183 443 124 q 479 319 479 242 q 459 445 479 390 q 403 539 439 500 q 318 598 368 578 q 208 618 268 618 q 164 614 185 618 q 126 604 143 610 q 90 590 107 599 l 167 974 q 181 971 167 974 q 217 965 194 968 q 269 960 240 963 q 326 958 297 958 q 412 963 371 958 q 485 972 453 967 q 556 986 522 978 l 554 972 q 408 884 501 914 q 174 854 315 854 l 132 646 q 163 653 146 649 q 199 658 178 656 q 250 660 221 660 q 400 635 333 660 q 514 565 467 610 q 586 458 561 521 q 611 319 611 394 q 586 181 611 244 q 517 74 561 118 q 412 4 474 29 q 278 -21 350 -21 q 178 -3 224 -21 q 99 47 132 15 q 47 122 65 79 q 28 215 28 165 q 69 362 28 314 q 167 410 110 410 q 181 408 174 410 q 196 406 189 407 q 208 403 203 404 l 181 292 q 87 263 118 292 q 56 188 56 235 q 72 122 56 154 q 115 63 88 89 q 181 22 143 38 q 264 7 219 7 z "},"6":{"ha":688,"x_min":56,"x_max":646,"o":"m 514 306 q 499 431 514 378 q 462 517 485 483 q 408 567 439 551 q 347 583 378 583 q 290 567 318 583 q 238 519 261 551 q 201 438 215 488 q 188 321 188 388 q 202 171 188 232 q 240 72 217 110 q 296 17 264 33 q 361 0 328 0 q 415 17 388 0 q 464 69 442 33 q 500 164 486 106 q 514 306 514 222 m 56 486 q 82 715 56 619 q 152 873 108 811 q 252 964 196 935 q 368 993 308 993 q 470 977 425 993 q 547 935 515 961 q 594 873 578 908 q 611 799 611 838 q 609 771 611 783 q 604 751 607 758 q 597 736 600 742 l 479 764 l 486 785 q 491 805 489 794 q 493 826 493 815 q 460 936 493 900 q 368 972 426 972 q 303 951 336 972 q 243 879 271 929 q 198 747 215 829 q 181 542 181 664 l 181 472 q 190 494 181 472 q 221 542 199 515 q 277 590 243 568 q 361 611 311 611 q 473 589 421 611 q 563 526 525 567 q 624 430 601 486 q 646 306 646 374 q 624 170 646 231 q 563 67 601 110 q 473 2 525 25 q 361 -21 421 -21 q 237 4 293 -21 q 140 86 181 29 q 78 234 100 143 q 56 458 56 325 l 56 486 z "},"7":{"ha":615,"x_min":28,"x_max":588,"o":"m 588 901 q 484 747 529 829 q 408 560 439 665 q 363 319 378 456 q 347 0 347 182 l 208 0 q 239 301 208 167 q 316 541 269 435 q 419 728 363 647 q 528 868 475 808 l 76 868 l 49 750 l 28 750 l 28 972 l 588 972 l 588 901 z "},"8":{"ha":708,"x_min":42,"x_max":660,"o":"m 257 521 q 174 583 210 547 q 116 662 142 615 q 90 771 90 708 q 108 858 90 818 q 158 928 125 899 q 240 976 192 958 q 347 993 288 993 q 459 976 410 993 q 542 931 508 960 q 593 864 575 901 q 611 785 611 826 q 583 685 611 726 q 521 617 554 644 q 431 563 481 585 q 544 485 494 531 q 586 440 565 465 q 624 386 607 415 q 650 323 640 357 q 660 250 660 289 q 638 147 660 196 q 574 60 615 97 q 476 1 533 22 q 347 -21 418 -21 q 217 -1 274 -21 q 122 53 161 18 q 62 135 82 88 q 42 236 42 182 q 75 363 42 310 q 149 451 108 415 q 257 521 196 493 m 556 222 q 544 278 556 251 q 515 329 533 304 q 474 376 497 354 q 426 415 450 397 q 299 493 371 458 q 208 438 247 474 q 146 358 174 407 q 118 236 118 310 q 135 140 118 183 q 183 66 153 97 q 256 17 214 35 q 347 0 297 0 q 499 59 442 0 q 556 222 556 118 m 347 972 q 288 960 315 972 q 239 924 260 947 q 206 870 218 901 q 194 800 194 839 q 225 713 194 751 q 292 647 256 675 q 389 590 335 615 q 461 635 429 607 q 512 695 489 658 q 535 785 535 732 q 520 858 535 824 q 480 917 506 892 q 420 958 454 943 q 347 972 386 972 z "},"9":{"ha":688,"x_min":42,"x_max":632,"o":"m 174 667 q 188 541 174 593 q 226 455 203 489 q 278 405 249 421 q 340 389 308 389 q 398 405 369 389 q 449 453 426 421 q 486 535 472 485 q 500 651 500 585 q 485 801 500 740 q 447 901 471 863 q 392 956 424 939 q 326 972 360 972 q 273 956 300 972 q 224 903 246 939 q 188 808 201 867 q 174 667 174 750 m 632 486 q 606 257 632 353 q 535 99 579 161 q 435 8 492 38 q 319 -21 379 -21 q 217 -5 263 -21 q 141 38 172 11 q 93 99 110 64 q 76 174 76 135 q 83 221 76 203 q 90 236 86 229 l 208 208 q 201 188 204 199 q 194 146 194 167 q 228 36 194 72 q 319 0 261 0 q 383 22 350 0 q 444 93 417 43 q 490 226 472 143 q 507 431 507 308 l 507 500 q 498 478 507 500 q 467 431 489 457 q 410 383 444 404 q 326 361 376 361 q 215 383 267 361 q 124 446 163 406 q 64 542 86 486 q 42 667 42 599 q 64 802 42 742 q 124 905 86 863 q 215 970 163 947 q 326 993 267 993 q 451 968 394 993 q 547 886 507 943 q 610 738 588 829 q 632 514 632 647 l 632 486 z "},"В":{"ha":701,"x_min":63,"x_max":667,"o":"m 63 0 l 63 14 l 146 35 l 146 938 l 63 958 l 63 972 l 313 972 q 426 958 378 972 q 506 917 474 943 q 553 858 538 892 q 569 785 569 824 q 560 731 569 754 q 537 690 551 707 q 503 659 522 672 q 465 638 485 646 q 361 611 419 617 q 514 568 447 603 q 570 531 543 553 q 619 478 597 510 q 653 406 640 447 q 667 313 667 365 q 642 190 667 247 q 570 91 617 133 q 458 24 524 49 q 313 0 393 0 l 63 0 m 264 597 l 264 28 l 313 28 q 400 46 360 28 q 470 100 440 64 q 517 189 500 136 q 535 313 535 242 q 517 436 535 383 q 470 525 500 489 q 400 579 440 561 q 313 597 360 597 l 264 597 m 264 625 l 313 625 q 413 666 375 626 q 451 785 451 706 q 413 904 451 864 q 313 944 375 944 l 264 944 l 264 625 z "},"Г":{"ha":632,"x_min":63,"x_max":597,"o":"m 264 35 l 347 14 l 347 0 l 63 0 l 63 14 l 146 35 l 146 938 l 63 958 l 63 972 l 597 972 q 593 943 594 960 q 591 908 592 928 q 590 861 590 888 q 591 823 590 842 q 593 788 592 804 q 597 750 594 768 l 583 750 q 524 836 547 786 q 500 944 500 886 l 264 944 l 264 35 z "},"Д":{"ha":757,"x_min":0,"x_max":715,"o":"m 111 0 q 86 -124 111 -68 q 14 -215 61 -179 l 0 -215 q 3 -174 1 -196 q 6 -133 4 -156 q 7 -90 7 -111 q 6 -46 7 -67 q 3 -8 4 -25 q 0 28 1 11 l 97 28 q 156 146 131 69 q 197 320 178 211 q 215 597 215 429 l 215 931 l 125 958 l 125 972 l 688 972 l 688 958 l 604 938 l 604 28 l 715 28 q 711 -8 713 11 q 709 -46 710 -25 q 708 -90 708 -67 q 709 -133 708 -111 q 711 -174 710 -156 q 715 -215 713 -196 l 701 -215 q 629 -124 654 -179 q 604 0 604 -68 l 111 0 m 243 597 q 226 320 243 429 q 188 146 208 211 q 132 28 163 69 l 486 28 l 486 944 l 243 944 l 243 597 z "},"Е":{"ha":701,"x_min":63,"x_max":639,"o":"m 542 28 q 565 136 542 86 q 625 222 589 186 l 639 222 q 635 185 636 204 q 633 149 633 168 q 632 111 632 129 q 633 65 632 85 q 635 29 633 44 q 639 0 636 13 l 63 0 l 63 14 l 146 35 l 146 938 l 63 958 l 63 972 l 625 972 q 621 943 622 960 q 619 908 619 928 q 618 861 618 888 q 619 823 618 842 q 621 788 619 804 q 625 750 622 768 l 611 750 q 551 836 575 786 q 528 944 528 886 l 264 944 l 264 528 l 396 528 l 458 653 l 472 653 l 472 375 l 458 375 l 396 500 l 264 500 l 264 28 l 542 28 z "},"Ё":{"ha":701,"x_min":63,"x_max":639,"o":"m 542 28 q 565 136 542 86 q 625 222 589 186 l 639 222 q 635 185 636 204 q 633 149 633 168 q 632 111 632 129 q 633 65 632 85 q 635 29 633 44 q 639 0 636 13 l 63 0 l 63 14 l 146 35 l 146 938 l 63 958 l 63 972 l 625 972 q 621 943 622 960 q 619 908 619 928 q 618 861 618 888 q 619 823 618 842 q 621 788 619 804 q 625 750 622 768 l 611 750 q 551 836 575 786 q 528 944 528 886 l 264 944 l 264 528 l 396 528 l 458 653 l 472 653 l 472 375 l 458 375 l 396 500 l 264 500 l 264 28 l 542 28 m 326 1125 q 305 1077 326 1099 q 257 1056 283 1056 q 209 1077 231 1056 q 188 1125 188 1099 q 209 1173 188 1151 q 257 1194 231 1194 q 305 1173 283 1194 q 326 1125 326 1151 m 556 1125 q 534 1077 556 1099 q 486 1056 513 1056 q 438 1077 460 1056 q 417 1125 417 1099 q 438 1173 417 1151 q 486 1194 460 1194 q 534 1173 513 1194 q 556 1125 556 1151 z "},"Ж":{"ha":1076,"x_min":-28,"x_max":1104,"o":"m 396 14 l 479 35 l 479 347 l 413 492 l 182 35 l 265 14 l 265 0 l -28 0 l -28 14 l 56 35 l 353 624 l 278 785 q 222 856 257 829 q 125 882 188 882 q 106 881 114 882 q 90 878 97 879 q 76 875 83 876 l 97 979 q 110 982 104 981 q 121 985 115 983 q 132 986 126 986 q 172 977 153 986 q 212 945 192 968 q 255 883 232 922 q 306 785 278 844 l 479 410 l 479 938 l 396 958 l 396 972 l 681 972 l 681 958 l 597 938 l 597 410 l 771 785 q 822 883 799 844 q 865 945 844 922 q 904 977 885 968 q 944 986 924 986 q 956 985 950 986 q 967 982 961 983 q 979 979 972 981 l 1000 875 q 986 878 993 876 q 971 881 979 879 q 951 882 963 882 q 854 856 889 882 q 799 785 819 829 l 724 624 l 1021 35 l 1104 14 l 1104 0 l 811 0 l 811 14 l 894 35 l 664 492 l 597 347 l 597 35 l 681 14 l 681 0 l 396 0 l 396 14 z "},"З":{"ha":646,"x_min":28,"x_max":604,"o":"m 319 993 q 415 976 371 993 q 490 928 458 958 q 538 858 521 899 q 556 771 556 818 q 547 706 556 735 q 523 656 538 678 q 490 619 508 635 q 451 593 471 603 q 347 563 406 568 q 475 522 419 556 q 522 488 499 508 q 564 437 546 467 q 593 367 582 407 q 604 278 604 328 q 581 161 604 215 q 515 66 557 107 q 417 2 474 25 q 292 -21 360 -21 q 186 -1 235 -21 q 102 51 138 18 q 47 126 67 83 q 28 215 28 168 q 69 374 28 325 q 167 424 110 424 q 181 422 174 424 q 196 419 189 421 q 208 417 203 418 l 181 306 q 56 188 56 306 q 73 124 56 156 q 120 66 90 92 q 190 24 150 40 q 278 7 231 7 q 417 72 361 7 q 472 278 472 138 q 417 483 472 418 q 278 549 361 549 l 236 549 l 236 576 l 278 576 q 392 626 346 576 q 438 771 438 676 q 426 854 438 818 q 395 915 414 890 q 353 953 376 940 q 306 965 329 965 q 190 905 243 965 q 104 729 136 844 l 83 729 q 86 772 85 750 q 89 815 88 792 q 90 861 90 838 q 89 903 90 882 q 86 944 88 925 q 83 986 85 965 l 104 986 q 144 962 125 981 q 174 922 163 943 q 213 957 190 942 q 258 982 232 971 q 319 993 285 993 z "},"И":{"ha":813,"x_min":63,"x_max":750,"o":"m 264 181 l 264 35 l 347 14 l 347 0 l 63 0 l 63 14 l 146 35 l 146 938 l 63 958 l 63 972 l 347 972 l 347 958 l 264 938 l 264 236 l 549 806 l 549 938 l 465 958 l 465 972 l 750 972 l 750 958 l 667 938 l 667 35 l 750 14 l 750 0 l 465 0 l 465 14 l 549 35 l 549 750 l 264 181 z "},"Й":{"ha":813,"x_min":63,"x_max":750,"o":"m 264 181 l 264 35 l 347 14 l 347 0 l 63 0 l 63 14 l 146 35 l 146 938 l 63 958 l 63 972 l 347 972 l 347 958 l 264 938 l 264 236 l 549 806 l 549 938 l 465 958 l 465 972 l 750 972 l 750 958 l 667 938 l 667 35 l 750 14 l 750 0 l 465 0 l 465 14 l 549 35 l 549 750 l 264 181 m 410 1083 q 454 1103 436 1083 q 472 1160 472 1124 q 471 1180 472 1171 q 468 1197 469 1189 q 465 1215 467 1206 l 563 1215 q 565 1203 564 1210 q 568 1188 567 1196 q 569 1174 569 1181 q 531 1094 569 1126 q 410 1063 493 1063 q 288 1094 326 1063 q 250 1174 250 1126 q 251 1188 250 1181 q 253 1203 251 1196 q 257 1215 254 1210 l 354 1215 q 350 1197 351 1206 q 348 1180 349 1189 q 347 1160 347 1171 q 365 1103 347 1124 q 410 1083 383 1083 z "},"К":{"ha":750,"x_min":63,"x_max":778,"o":"m 264 350 l 264 35 l 347 14 l 347 0 l 63 0 l 63 14 l 146 35 l 146 938 l 63 958 l 63 972 l 347 972 l 347 958 l 264 938 l 264 410 l 438 785 q 488 883 465 844 q 531 945 511 922 q 571 977 551 968 q 611 986 590 986 q 622 985 617 986 q 633 982 628 983 q 646 979 639 981 l 667 875 q 653 878 660 876 q 638 881 646 879 q 618 882 629 882 q 520 854 556 882 q 465 785 485 826 l 396 632 l 694 35 l 778 14 l 778 0 l 485 0 l 485 14 l 568 35 l 335 501 l 264 350 z "},"Л":{"ha":743,"x_min":-14,"x_max":681,"o":"m 222 597 q 216 363 222 463 q 198 194 210 264 q 169 81 186 125 q 133 13 153 38 q 92 -19 114 -11 q 49 -28 71 -28 q 33 -27 40 -28 q 19 -25 26 -26 q 7 -21 13 -24 l -14 83 q -1 79 -8 81 q 13 77 6 78 q 28 76 19 76 q 94 94 64 76 q 147 167 125 113 q 182 325 169 222 q 194 597 194 428 l 194 931 l 104 958 l 104 972 l 681 972 l 681 958 l 597 938 l 597 35 l 681 14 l 681 0 l 396 0 l 396 14 l 479 35 l 479 944 l 222 944 l 222 597 z "},"М":{"ha":1090,"x_min":56,"x_max":1028,"o":"m 833 972 l 1028 972 l 1028 958 l 944 938 l 944 35 l 1028 14 l 1028 0 l 743 0 l 743 14 l 826 35 l 826 854 l 528 -21 l 507 -21 l 174 854 l 174 49 l 264 14 l 264 0 l 56 0 l 56 14 l 146 49 l 146 931 l 56 958 l 56 972 l 257 972 l 561 174 l 833 972 z "},"Н":{"ha":813,"x_min":63,"x_max":750,"o":"m 264 500 l 264 35 l 347 14 l 347 0 l 63 0 l 63 14 l 146 35 l 146 938 l 63 958 l 63 972 l 347 972 l 347 958 l 264 938 l 264 528 l 549 528 l 549 938 l 465 958 l 465 972 l 750 972 l 750 958 l 667 938 l 667 35 l 750 14 l 750 0 l 465 0 l 465 14 l 549 35 l 549 500 l 264 500 z "},"О":{"ha":764,"x_min":56,"x_max":708,"o":"m 708 486 q 680 263 708 358 q 605 105 651 168 q 500 10 558 42 q 382 -21 442 -21 q 264 10 322 -21 q 159 105 206 42 q 84 263 113 168 q 56 486 56 358 q 84 709 56 614 q 159 867 113 804 q 264 962 206 931 q 382 993 322 993 q 500 962 442 993 q 605 867 558 931 q 680 709 651 804 q 708 486 708 614 m 576 486 q 559 723 576 629 q 513 872 542 817 q 450 950 485 928 q 382 972 415 972 q 314 950 349 972 q 251 872 279 928 q 205 723 222 817 q 188 486 188 629 q 205 249 188 343 q 251 100 222 156 q 314 22 279 44 q 382 0 349 0 q 450 22 415 0 q 513 100 485 44 q 559 249 542 156 q 576 486 576 343 z "},"П":{"ha":813,"x_min":63,"x_max":750,"o":"m 347 14 l 347 0 l 63 0 l 63 14 l 146 35 l 146 938 l 63 958 l 63 972 l 750 972 l 750 958 l 667 938 l 667 35 l 750 14 l 750 0 l 465 0 l 465 14 l 549 35 l 549 944 l 264 944 l 264 35 l 347 14 z "},"Р":{"ha":701,"x_min":63,"x_max":674,"o":"m 264 347 l 264 35 l 347 14 l 347 0 l 63 0 l 63 14 l 146 35 l 146 938 l 63 958 l 63 972 l 313 972 q 466 949 399 972 q 579 883 533 925 q 649 785 625 842 q 674 660 674 728 q 649 535 674 592 q 579 436 625 478 q 466 371 533 394 q 313 347 399 347 l 264 347 m 264 375 l 313 375 q 482 442 422 375 q 542 660 542 508 q 482 878 542 811 q 313 944 422 944 l 264 944 l 264 375 z "},"С":{"ha":681,"x_min":56,"x_max":653,"o":"m 396 965 q 319 943 357 965 q 253 866 282 921 q 206 719 224 811 q 188 486 188 626 q 206 253 188 346 q 254 106 224 161 q 325 29 285 51 q 410 7 365 7 q 483 26 446 7 q 552 81 521 46 q 605 163 583 115 q 632 264 626 210 l 653 264 q 625 149 647 201 q 569 59 603 97 q 490 0 535 21 q 396 -21 446 -21 q 269 10 331 -21 q 160 105 208 42 q 84 263 113 168 q 56 486 56 358 q 84 709 56 614 q 159 867 113 804 q 264 962 206 931 q 382 993 322 993 q 442 982 415 993 q 489 957 469 971 q 528 922 511 942 q 558 962 539 943 q 597 986 576 981 l 618 986 q 614 944 615 965 q 612 903 613 925 q 611 861 611 882 q 612 815 611 838 q 614 772 613 792 q 618 729 615 750 l 597 729 q 512 905 565 844 q 396 965 458 965 z "},"Т":{"ha":688,"x_min":42,"x_max":646,"o":"m 403 35 l 486 14 l 486 0 l 201 0 l 201 14 l 285 35 l 285 944 l 139 944 q 115 836 139 886 q 56 750 92 786 l 42 750 q 44 788 43 768 q 47 823 46 804 q 49 861 49 842 q 47 908 49 888 q 44 943 46 928 q 42 972 43 960 l 646 972 q 642 943 643 960 q 640 908 640 928 q 639 861 639 888 q 640 823 639 842 q 642 788 640 804 q 646 750 643 768 l 632 750 q 572 836 596 786 q 549 944 549 886 l 403 944 l 403 35 z "},"У":{"ha":681,"x_min":-14,"x_max":708,"o":"m 415 350 l 590 924 l 500 958 l 500 972 l 708 972 l 708 958 l 618 924 l 386 167 q 346 62 367 104 q 301 -7 325 19 q 249 -44 278 -33 q 188 -56 221 -56 q 172 -55 179 -56 q 158 -53 165 -54 q 146 -49 151 -51 l 125 49 q 138 44 131 46 q 151 42 144 43 q 167 42 158 42 q 297 75 256 42 q 358 167 339 108 l 69 938 l -14 958 l -14 972 l 278 972 l 278 958 l 194 938 l 415 350 z "},"Ф":{"ha":993,"x_min":35,"x_max":958,"o":"m 556 21 l 639 0 l 639 -14 l 354 -14 l 354 0 l 438 21 l 438 97 q 275 135 349 103 q 148 220 201 167 q 65 345 94 274 q 35 500 35 417 q 65 655 35 583 q 148 780 94 726 q 275 865 201 833 q 438 903 349 897 l 438 951 l 354 972 l 354 986 l 639 986 l 639 972 l 556 951 l 556 903 q 718 865 644 897 q 845 780 792 833 q 928 655 899 726 q 958 500 958 583 q 928 345 958 417 q 845 220 899 274 q 718 135 792 167 q 556 97 644 103 l 556 21 m 826 500 q 806 662 826 593 q 751 776 786 731 q 665 847 715 822 q 556 876 615 871 l 556 125 q 665 154 615 131 q 751 224 715 178 q 806 338 786 269 q 826 500 826 406 m 167 500 q 187 338 167 406 q 242 224 207 269 q 328 154 278 178 q 438 125 378 131 l 438 876 q 328 847 378 871 q 242 776 278 822 q 187 662 207 731 q 167 500 167 593 z "},"Х":{"ha":694,"x_min":-7,"x_max":708,"o":"m 300 453 l 76 938 l -7 958 l -7 972 l 292 972 l 292 958 l 208 938 l 368 590 l 535 924 l 444 958 l 444 972 l 653 972 l 653 958 l 563 924 l 382 561 l 625 35 l 708 14 l 708 0 l 410 0 l 410 14 l 493 35 l 313 425 l 125 49 l 215 14 l 215 0 l 7 0 l 7 14 l 97 49 l 300 453 z "},"Ц":{"ha":813,"x_min":63,"x_max":799,"o":"m 63 0 l 63 14 l 146 35 l 146 938 l 63 958 l 63 972 l 347 972 l 347 958 l 264 938 l 264 28 l 549 28 l 549 938 l 465 958 l 465 972 l 750 972 l 750 958 l 667 938 l 667 28 l 799 28 q 794 -8 796 11 q 792 -46 793 -25 q 792 -90 792 -67 q 792 -133 792 -111 q 794 -174 793 -156 q 799 -215 796 -196 l 785 -215 q 713 -124 738 -179 q 688 0 688 -68 l 63 0 z "},"Ч":{"ha":771,"x_min":21,"x_max":708,"o":"m 507 451 q 461 426 486 438 q 410 410 439 417 q 347 403 381 403 q 165 460 226 403 q 104 618 104 518 l 104 938 l 21 958 l 21 972 l 306 972 l 306 958 l 222 938 l 222 618 q 260 474 222 518 q 361 431 299 431 q 416 438 389 431 q 463 454 443 444 q 507 479 486 465 l 507 938 l 424 958 l 424 972 l 708 972 l 708 958 l 625 938 l 625 35 l 708 14 l 708 0 l 424 0 l 424 14 l 507 35 l 507 451 z "},"Ш":{"ha":1132,"x_min":63,"x_max":1069,"o":"m 625 938 l 625 28 l 868 28 l 868 938 l 785 958 l 785 972 l 1069 972 l 1069 958 l 986 938 l 986 35 l 1069 14 l 1069 0 l 63 0 l 63 14 l 146 35 l 146 938 l 63 958 l 63 972 l 347 972 l 347 958 l 264 938 l 264 28 l 507 28 l 507 938 l 424 958 l 424 972 l 708 972 l 708 958 l 625 938 z "},"Щ":{"ha":1132,"x_min":63,"x_max":1118,"o":"m 63 0 l 63 14 l 146 35 l 146 938 l 63 958 l 63 972 l 347 972 l 347 958 l 264 938 l 264 28 l 507 28 l 507 938 l 424 958 l 424 972 l 708 972 l 708 958 l 625 938 l 625 28 l 868 28 l 868 938 l 785 958 l 785 972 l 1069 972 l 1069 958 l 986 938 l 986 28 l 1118 28 q 1114 -8 1115 11 q 1112 -46 1113 -25 q 1111 -90 1111 -67 q 1112 -133 1111 -111 q 1114 -174 1113 -156 q 1118 -215 1115 -196 l 1104 -215 q 1032 -124 1057 -179 q 1007 0 1007 -68 l 63 0 z "},"Ъ":{"ha":806,"x_min":14,"x_max":778,"o":"m 417 597 q 570 574 503 597 q 683 510 638 551 q 753 415 729 469 q 778 299 778 361 q 753 182 778 236 q 683 87 729 128 q 570 23 638 46 q 417 0 503 0 l 167 0 l 167 14 l 250 35 l 250 944 l 111 944 q 88 836 111 886 q 28 750 64 786 l 14 750 q 17 788 15 768 q 19 823 18 804 q 21 861 21 842 q 19 908 21 888 q 17 943 18 928 q 14 972 15 960 l 458 972 l 458 958 l 368 931 l 368 597 l 417 597 m 368 28 l 417 28 q 586 92 526 28 q 646 299 646 157 q 586 505 646 440 q 417 569 526 569 l 368 569 l 368 28 z "},"Ы":{"ha":1042,"x_min":63,"x_max":993,"o":"m 910 35 l 993 14 l 993 0 l 708 0 l 708 14 l 792 35 l 792 938 l 708 958 l 708 972 l 993 972 l 993 958 l 910 938 l 910 35 m 313 597 q 466 574 399 597 q 579 510 533 551 q 649 415 625 469 q 674 299 674 361 q 649 182 674 236 q 579 87 625 128 q 466 23 533 46 q 313 0 399 0 l 63 0 l 63 14 l 146 35 l 146 938 l 63 958 l 63 972 l 347 972 l 347 958 l 264 938 l 264 597 l 313 597 m 264 28 l 313 28 q 482 92 422 28 q 542 299 542 157 q 482 505 542 440 q 313 569 422 569 l 264 569 l 264 28 z "},"Я":{"ha":764,"x_min":14,"x_max":701,"o":"m 701 972 l 701 958 l 618 938 l 618 35 l 701 14 l 701 0 l 417 0 l 417 14 l 500 35 l 500 486 l 444 486 q 364 476 397 486 q 309 446 331 467 q 275 392 288 425 q 257 313 263 360 l 229 69 q 195 6 225 33 q 118 -21 165 -21 q 69 -11 89 -21 q 38 10 50 -1 q 14 42 22 24 l 28 56 q 40 38 33 44 q 54 26 47 31 q 69 21 61 21 q 92 32 82 21 q 104 69 101 43 l 132 313 q 176 414 139 376 q 257 471 214 451 q 368 500 307 493 q 232 533 292 507 q 183 561 207 544 q 140 602 158 578 q 109 658 121 626 q 97 729 97 689 q 118 823 97 779 q 182 900 139 867 q 290 953 225 933 q 444 972 356 972 l 701 972 m 229 729 q 285 569 229 625 q 444 514 340 514 l 500 514 l 500 944 l 444 944 q 285 889 340 944 q 229 729 229 833 z "},"Ь":{"ha":701,"x_min":63,"x_max":674,"o":"m 313 597 q 466 574 399 597 q 579 510 533 551 q 649 415 625 469 q 674 299 674 361 q 649 182 674 236 q 579 87 625 128 q 466 23 533 46 q 313 0 399 0 l 63 0 l 63 14 l 146 35 l 146 938 l 63 958 l 63 972 l 347 972 l 347 958 l 264 938 l 264 597 l 313 597 m 264 28 l 313 28 q 482 92 422 28 q 542 299 542 157 q 482 505 542 440 q 313 569 422 569 l 264 569 l 264 28 z "},"Э":{"ha":681,"x_min":28,"x_max":625,"o":"m 285 965 q 169 905 222 965 q 83 729 115 844 l 63 729 q 65 772 64 750 q 68 815 67 792 q 69 861 69 838 q 68 903 69 882 q 65 944 67 925 q 63 986 64 965 l 83 986 q 123 962 104 981 q 153 922 142 943 q 192 957 169 942 q 238 982 211 971 q 299 993 264 993 q 417 962 358 993 q 522 867 475 931 q 597 709 568 804 q 625 486 625 614 q 597 263 625 358 q 520 105 568 168 q 411 10 472 42 q 285 -21 350 -21 q 190 0 235 -21 q 112 59 146 21 q 56 149 78 97 q 28 264 33 201 l 49 264 q 75 165 54 211 q 126 83 96 118 q 194 28 157 49 q 271 7 232 7 q 356 29 315 7 q 426 106 396 51 q 475 253 457 161 q 493 486 493 346 l 340 486 l 278 361 l 264 361 l 264 639 l 278 639 l 340 514 l 493 514 q 472 734 490 647 q 426 872 454 821 q 360 944 397 924 q 285 965 324 965 z "},"Ю":{"ha":1104,"x_min":63,"x_max":1049,"o":"m 264 500 l 396 500 q 427 717 399 625 q 501 872 456 810 q 605 963 547 933 q 722 993 663 993 q 840 962 782 993 q 945 867 899 931 q 1020 709 992 804 q 1049 486 1049 614 q 1020 263 1049 358 q 945 105 992 168 q 840 10 899 42 q 722 -21 782 -21 q 604 10 663 -21 q 499 103 546 42 q 424 258 453 165 q 396 472 396 350 l 264 472 l 264 35 l 347 14 l 347 0 l 63 0 l 63 14 l 146 35 l 146 938 l 63 958 l 63 972 l 347 972 l 347 958 l 264 938 l 264 500 m 917 486 q 899 723 917 629 q 853 872 882 817 q 790 950 825 928 q 722 972 756 972 q 654 950 689 972 q 591 872 619 928 q 545 723 563 817 q 528 486 528 629 q 545 249 528 343 q 591 100 563 156 q 654 22 619 44 q 722 0 689 0 q 790 22 756 0 q 853 100 825 44 q 899 249 882 156 q 917 486 917 343 z "},"Ѣ":{"ha":792,"x_min":14,"x_max":764,"o":"m 403 569 q 556 547 489 569 q 669 485 624 524 q 740 394 715 446 q 764 285 764 342 q 740 176 764 228 q 669 85 715 124 q 556 23 624 46 q 403 0 489 0 l 153 0 l 153 14 l 236 35 l 236 819 l 111 819 q 88 711 111 761 q 28 625 64 661 l 14 625 q 17 663 15 643 q 19 698 18 679 q 21 736 21 717 q 19 783 21 763 q 17 818 18 803 q 14 847 15 835 l 236 847 l 236 951 l 153 972 l 153 986 l 438 986 l 438 972 l 354 951 l 354 847 l 590 847 q 586 818 588 835 q 584 783 585 803 q 583 736 583 763 q 584 698 583 717 q 586 663 585 679 q 590 625 588 643 l 576 625 q 517 711 540 661 q 493 819 493 761 l 354 819 l 354 569 l 403 569 m 354 28 l 403 28 q 572 91 513 28 q 632 285 632 154 q 572 478 632 415 q 403 542 513 542 l 354 542 l 354 28 z "},"Ѳ":{"ha":764,"x_min":56,"x_max":708,"o":"m 708 486 q 680 263 708 358 q 605 105 651 168 q 500 10 558 42 q 382 -21 442 -21 q 264 10 322 -21 q 159 105 206 42 q 84 263 113 168 q 56 486 56 358 q 84 709 56 614 q 159 867 113 804 q 264 962 206 931 q 382 993 322 993 q 500 962 442 993 q 605 867 558 931 q 680 709 651 804 q 708 486 708 614 m 382 972 q 314 950 349 972 q 251 874 279 928 q 205 728 222 819 q 188 500 188 638 l 576 500 q 559 728 576 638 q 513 874 542 819 q 450 950 485 928 q 382 972 415 972 m 382 0 q 450 22 415 0 q 513 99 485 44 q 559 244 542 153 q 576 472 576 335 l 188 472 q 205 244 188 335 q 251 99 222 153 q 314 22 279 44 q 382 0 349 0 z "},"а":{"ha":646,"x_min":56,"x_max":611,"o":"m 417 340 q 238 287 296 340 q 181 139 181 233 q 211 42 181 76 q 278 7 242 7 q 337 26 311 7 q 381 69 363 46 q 417 132 401 96 l 417 340 m 313 639 q 243 610 271 639 q 215 535 215 582 q 216 515 215 524 q 218 500 217 507 q 222 486 219 493 l 111 458 q 107 469 108 463 q 105 485 106 476 q 104 507 104 493 q 118 563 104 536 q 159 612 132 590 q 224 647 186 633 q 313 660 263 660 q 470 603 413 660 q 528 451 528 546 l 528 35 l 611 14 l 611 0 l 417 0 l 417 83 q 378 31 401 54 q 328 -5 358 11 q 257 -21 299 -21 q 106 26 157 -21 q 56 153 56 74 q 77 231 56 192 q 142 300 99 269 q 254 349 186 331 q 417 368 322 368 l 417 451 q 385 597 417 556 q 313 639 354 639 z "},"б":{"ha":639,"x_min":63,"x_max":590,"o":"m 326 618 q 426 595 378 618 q 510 531 474 572 q 569 430 547 489 q 590 299 590 371 q 569 166 590 225 q 510 65 547 107 q 426 1 474 24 q 326 -21 378 -21 q 226 2 274 -21 q 142 68 179 25 q 84 173 106 111 q 63 313 63 235 l 63 431 q 94 628 63 551 q 175 751 126 704 q 282 825 224 799 q 394 874 340 851 q 491 924 449 897 q 549 1000 533 951 l 569 1000 q 550 892 569 935 q 499 819 531 849 q 426 771 467 790 q 344 734 386 751 q 261 697 301 717 q 189 647 221 676 q 138 572 157 617 q 118 458 118 526 q 168 538 139 501 q 232 593 193 568 q 326 618 271 618 m 188 299 q 201 158 188 215 q 234 66 214 101 q 278 15 254 31 q 326 0 303 0 q 374 15 350 0 q 419 66 399 31 q 452 158 439 101 q 465 299 465 215 q 452 435 465 379 q 419 525 439 490 q 374 575 399 560 q 326 590 350 590 q 278 575 303 590 q 234 525 254 560 q 201 435 214 490 q 188 299 188 379 z "},"в":{"ha":625,"x_min":49,"x_max":583,"o":"m 49 14 l 132 35 l 132 604 l 49 625 l 49 639 l 292 639 q 399 627 354 639 q 472 595 443 615 q 515 549 501 575 q 528 493 528 522 q 499 423 528 449 q 433 383 469 397 q 340 361 392 368 q 461 335 407 356 q 506 313 483 326 q 545 282 528 300 q 573 240 563 264 q 583 188 583 217 q 566 117 583 151 q 513 57 549 83 q 422 15 478 31 q 292 0 367 0 l 49 0 l 49 14 m 243 611 l 243 375 l 292 375 q 417 493 417 375 q 292 611 417 611 l 243 611 m 243 28 l 292 28 q 415 71 371 28 q 458 188 458 114 q 415 304 458 261 q 292 347 371 347 l 243 347 l 243 28 z "},"г":{"ha":556,"x_min":49,"x_max":521,"o":"m 243 611 l 243 35 l 326 14 l 326 0 l 49 0 l 49 14 l 132 35 l 132 604 l 49 625 l 49 639 l 521 639 q 517 610 518 625 q 515 577 515 596 q 514 535 514 558 q 515 501 514 519 q 517 467 515 482 q 521 431 518 449 l 507 431 q 447 508 471 463 q 424 611 424 553 l 243 611 z "},"д":{"ha":674,"x_min":0,"x_max":632,"o":"m 89 28 q 144 124 119 68 q 183 244 165 172 q 201 417 201 317 l 201 597 l 111 625 l 111 639 l 611 639 l 611 625 l 528 604 l 528 28 l 632 28 q 628 -3 629 14 q 626 -40 626 -18 q 625 -90 625 -62 q 626 -131 625 -111 q 628 -167 626 -151 q 632 -201 629 -185 l 618 -201 q 555 -119 582 -169 q 528 0 528 -68 l 104 0 q 77 -119 104 -68 q 14 -201 50 -169 l 0 -201 q 3 -167 1 -185 q 6 -131 4 -151 q 7 -90 7 -111 q 6 -40 7 -62 q 3 -3 4 -18 q 0 28 1 14 l 89 28 m 417 28 l 417 611 l 229 611 l 229 417 q 213 244 229 317 q 176 124 196 172 q 124 28 153 68 l 417 28 z "},"е":{"ha":618,"x_min":63,"x_max":563,"o":"m 188 319 q 201 171 188 231 q 235 74 214 111 q 284 22 257 38 q 340 7 311 7 q 408 21 376 7 q 465 58 440 35 q 506 115 490 82 q 528 188 522 149 l 549 188 q 524 105 543 143 q 476 39 506 67 q 409 -5 447 11 q 326 -21 371 -21 q 226 2 274 -21 q 142 69 179 25 q 84 176 106 113 q 63 319 63 239 q 83 467 63 403 q 138 573 104 531 q 217 638 172 615 q 313 660 263 660 q 408 638 363 660 q 487 573 453 615 q 542 467 521 531 q 563 319 563 403 l 188 319 m 313 639 q 271 626 292 639 q 232 579 250 613 q 202 490 214 546 q 188 347 190 433 l 438 347 q 423 490 435 433 q 393 579 411 546 q 354 626 375 613 q 313 639 333 639 z "},"ё":{"ha":618,"x_min":63,"x_max":563,"o":"m 188 319 q 201 171 188 231 q 235 74 214 111 q 284 22 257 38 q 340 7 311 7 q 408 21 376 7 q 465 58 440 35 q 506 115 490 82 q 528 188 522 149 l 549 188 q 524 105 543 143 q 476 39 506 67 q 409 -5 447 11 q 326 -21 371 -21 q 226 2 274 -21 q 142 69 179 25 q 84 176 106 113 q 63 319 63 239 q 83 467 63 403 q 138 573 104 531 q 217 638 172 615 q 313 660 263 660 q 408 638 363 660 q 487 573 453 615 q 542 467 521 531 q 563 319 563 403 l 188 319 m 313 639 q 271 626 292 639 q 232 579 250 613 q 202 490 214 546 q 188 347 190 433 l 438 347 q 423 490 435 433 q 393 579 411 546 q 354 626 375 613 q 313 639 333 639 m 271 792 q 249 744 271 765 q 201 722 228 722 q 153 744 175 722 q 132 792 132 765 q 153 840 132 818 q 201 861 175 861 q 249 840 228 861 q 271 792 271 818 m 500 792 q 478 744 500 765 q 431 722 457 722 q 383 744 404 722 q 361 792 361 765 q 383 840 361 818 q 431 861 404 861 q 478 840 457 861 q 500 792 500 818 z "},"ж":{"ha":917,"x_min":-21,"x_max":938,"o":"m 319 639 l 597 639 l 597 625 l 514 604 l 514 250 l 639 472 q 693 565 671 529 q 733 619 715 600 q 765 646 750 639 q 799 653 781 653 q 810 651 804 653 q 821 649 815 650 q 833 646 826 647 l 854 549 q 838 551 846 550 q 822 554 831 553 q 806 556 813 556 q 719 535 747 556 q 667 472 690 514 l 628 403 l 854 35 l 938 14 l 938 0 l 658 0 l 658 14 l 735 35 l 571 301 l 514 201 l 514 35 l 590 14 l 590 0 l 326 0 l 326 14 l 403 35 l 403 201 l 346 301 l 182 35 l 258 14 l 258 0 l -21 0 l -21 14 l 63 35 l 289 403 l 250 472 q 198 535 226 514 q 111 556 169 556 q 94 554 103 556 q 79 551 86 553 q 63 549 71 550 l 83 646 q 96 649 90 647 q 107 651 101 650 q 118 653 113 653 q 151 646 136 653 q 184 619 167 639 q 224 565 201 600 q 278 472 246 529 l 403 250 l 403 604 l 319 625 l 319 639 z "},"з":{"ha":556,"x_min":35,"x_max":514,"o":"m 236 7 q 347 51 304 7 q 389 174 389 94 q 347 297 389 253 q 236 340 304 340 l 208 340 l 208 368 l 236 368 q 333 403 299 368 q 368 500 368 438 q 338 597 368 563 q 271 632 307 632 q 167 578 218 632 q 90 424 117 524 l 69 424 q 72 461 71 442 q 75 499 74 478 q 76 542 76 521 q 75 579 76 560 q 72 615 74 599 q 69 653 71 635 l 90 653 q 123 629 106 647 q 146 590 140 611 q 182 625 161 610 q 225 649 200 638 q 285 660 250 660 q 365 647 329 660 q 426 611 401 633 q 465 560 451 589 q 479 500 479 531 q 450 422 479 450 q 385 378 421 393 q 292 354 343 361 q 403 326 354 347 q 444 303 424 317 q 479 272 464 290 q 504 228 494 253 q 514 174 514 204 q 497 99 514 135 q 447 38 481 64 q 365 -5 414 11 q 250 -21 315 -21 q 160 -6 200 -21 q 93 32 121 8 q 50 88 65 56 q 35 153 35 119 q 66 256 35 221 q 139 292 97 292 q 157 290 150 292 q 169 288 164 289 q 181 285 175 286 l 153 194 q 84 176 106 194 q 63 125 63 157 q 75 86 63 107 q 110 48 88 65 q 165 19 133 31 q 236 7 197 7 z "},"и":{"ha":729,"x_min":49,"x_max":681,"o":"m 410 625 l 410 639 l 681 639 l 681 625 l 597 604 l 597 35 l 681 14 l 681 0 l 410 0 l 410 14 l 486 35 l 486 493 l 243 118 l 243 35 l 319 14 l 319 0 l 49 0 l 49 14 l 132 35 l 132 604 l 49 625 l 49 639 l 319 639 l 319 625 l 243 604 l 243 167 l 486 542 l 486 604 l 410 625 z "},"й":{"ha":729,"x_min":49,"x_max":681,"o":"m 368 743 q 413 763 394 743 q 431 819 431 783 q 429 839 431 831 q 426 854 428 847 q 424 868 425 861 l 514 868 q 517 858 515 864 q 519 847 518 854 q 521 833 521 840 q 484 754 521 786 q 368 722 447 722 q 252 754 289 722 q 215 833 215 786 q 218 858 215 847 q 222 868 219 864 l 313 868 q 308 854 310 861 q 306 839 307 847 q 306 819 306 831 q 324 763 306 783 q 368 743 342 743 m 410 625 l 410 639 l 681 639 l 681 625 l 597 604 l 597 35 l 681 14 l 681 0 l 410 0 l 410 14 l 486 35 l 486 493 l 243 118 l 243 35 l 319 14 l 319 0 l 49 0 l 49 14 l 132 35 l 132 604 l 49 625 l 49 639 l 319 639 l 319 625 l 243 604 l 243 167 l 486 542 l 486 604 l 410 625 z "},"к":{"ha":653,"x_min":49,"x_max":674,"o":"m 304 307 l 243 201 l 243 35 l 319 14 l 319 0 l 49 0 l 49 14 l 132 35 l 132 604 l 49 625 l 49 639 l 333 639 l 333 625 l 243 604 l 243 250 l 368 472 q 422 565 400 529 q 462 619 444 600 q 494 646 479 639 q 528 653 510 653 q 542 651 535 653 q 553 649 549 650 q 563 646 558 647 l 583 549 q 567 551 575 550 q 551 554 560 553 q 535 556 542 556 q 449 535 478 556 q 396 472 419 514 l 361 411 l 590 35 l 674 14 l 674 0 l 393 0 l 393 14 l 469 35 l 304 307 z "},"л":{"ha":639,"x_min":-14,"x_max":590,"o":"m 76 639 l 590 639 l 590 625 l 507 604 l 507 35 l 590 14 l 590 0 l 313 0 l 313 14 l 396 35 l 396 611 l 194 611 l 194 417 q 183 189 194 276 q 151 53 171 101 q 104 -11 131 6 q 49 -28 78 -28 q 33 -27 40 -28 q 19 -25 26 -26 q 7 -21 13 -24 l -14 76 q 0 72 -7 74 q 14 70 7 71 q 28 69 21 69 q 82 83 57 69 q 126 136 107 97 q 156 242 144 175 q 167 417 167 310 l 167 597 l 76 625 l 76 639 z "},"м":{"ha":889,"x_min":35,"x_max":840,"o":"m 35 639 l 229 639 l 458 135 l 653 639 l 840 639 l 840 625 l 757 604 l 757 35 l 840 14 l 840 0 l 569 0 l 569 14 l 646 35 l 646 542 l 429 -21 l 408 -21 l 153 542 l 153 49 l 243 14 l 243 0 l 35 0 l 35 14 l 125 49 l 125 597 l 35 625 l 35 639 z "},"н":{"ha":722,"x_min":49,"x_max":674,"o":"m 403 625 l 403 639 l 674 639 l 674 625 l 590 604 l 590 35 l 674 14 l 674 0 l 403 0 l 403 14 l 479 35 l 479 319 l 243 319 l 243 35 l 319 14 l 319 0 l 49 0 l 49 14 l 132 35 l 132 604 l 49 625 l 49 639 l 319 639 l 319 625 l 243 604 l 243 347 l 479 347 l 479 604 l 403 625 z "},"о":{"ha":653,"x_min":63,"x_max":590,"o":"m 326 639 q 278 623 303 639 q 234 570 254 607 q 201 472 214 533 q 188 319 188 411 q 201 167 188 228 q 234 69 214 106 q 278 16 254 32 q 326 0 303 0 q 374 16 350 0 q 419 69 399 32 q 452 167 439 106 q 465 319 465 228 q 452 472 465 411 q 419 570 439 533 q 374 623 399 607 q 326 639 350 639 m 326 660 q 426 637 378 660 q 510 570 474 614 q 569 463 547 526 q 590 319 590 400 q 569 176 590 239 q 510 69 547 113 q 426 2 474 25 q 326 -21 378 -21 q 226 2 274 -21 q 142 69 179 25 q 84 176 106 113 q 63 319 63 239 q 84 463 63 400 q 142 570 106 526 q 226 637 179 614 q 326 660 274 660 z "},"п":{"ha":722,"x_min":49,"x_max":674,"o":"m 49 639 l 674 639 l 674 625 l 590 604 l 590 35 l 674 14 l 674 0 l 403 0 l 403 14 l 479 35 l 479 611 l 243 611 l 243 35 l 319 14 l 319 0 l 49 0 l 49 14 l 132 35 l 132 604 l 49 625 l 49 639 z "},"р":{"ha":694,"x_min":35,"x_max":632,"o":"m 118 604 l 35 625 l 35 639 l 229 639 l 229 556 q 267 607 243 583 q 317 643 286 626 q 389 660 347 660 q 477 637 433 660 q 555 570 521 614 q 610 463 589 526 q 632 319 632 400 q 610 176 632 239 q 553 69 589 113 q 471 2 517 25 q 375 -21 425 -21 q 308 -10 335 -21 q 263 14 281 0 q 229 49 242 29 l 229 -299 l 313 -319 l 313 -333 l 35 -333 l 35 -319 l 118 -299 l 118 604 m 354 7 q 410 22 383 7 q 459 74 438 38 q 494 171 481 111 q 507 319 507 231 q 494 468 507 408 q 460 564 481 528 q 416 616 440 600 q 368 632 392 632 q 308 613 333 632 q 265 569 283 593 q 229 507 244 542 l 229 90 q 260 49 242 67 q 299 20 275 33 q 354 7 322 7 z "},"с":{"ha":597,"x_min":63,"x_max":556,"o":"m 333 632 q 281 616 307 632 q 235 564 256 600 q 201 468 214 528 q 188 319 188 408 q 201 171 188 231 q 236 74 214 111 q 287 22 258 38 q 347 7 315 7 q 415 21 383 7 q 472 58 447 35 q 513 115 497 82 q 535 188 529 149 l 556 188 q 531 105 550 143 q 483 39 513 67 q 416 -5 454 11 q 333 -21 378 -21 q 230 2 279 -21 q 143 69 181 25 q 84 176 106 113 q 63 319 63 239 q 84 463 63 400 q 142 570 106 526 q 224 637 178 614 q 319 660 269 660 q 378 649 353 660 q 422 625 404 638 q 458 590 443 610 q 481 629 464 611 q 514 653 499 647 l 535 653 q 531 615 532 635 q 528 579 529 599 q 528 542 528 560 q 528 499 528 521 q 531 461 529 478 q 535 424 532 442 l 514 424 q 437 578 488 524 q 333 632 386 632 z "},"т":{"ha":611,"x_min":42,"x_max":569,"o":"m 569 639 q 565 610 567 625 q 563 577 564 596 q 563 535 563 558 q 563 501 563 519 q 565 467 564 482 q 569 431 567 449 l 556 431 q 496 508 519 463 q 472 611 472 553 l 361 611 l 361 35 l 444 14 l 444 0 l 167 0 l 167 14 l 250 35 l 250 611 l 139 611 q 115 508 139 553 q 56 431 92 463 l 42 431 q 44 467 43 449 q 47 501 46 482 q 49 535 49 519 q 47 577 49 558 q 44 610 46 596 q 42 639 43 625 l 569 639 l 569 639 z "},"у":{"ha":604,"x_min":-14,"x_max":625,"o":"m 299 -118 q 256 -227 276 -183 q 212 -298 235 -271 q 165 -336 189 -325 q 111 -347 140 -347 q 96 -347 103 -347 q 82 -344 89 -346 q 69 -340 75 -343 l 49 -236 q 61 -240 54 -239 q 75 -242 68 -242 q 90 -243 82 -243 q 212 -212 174 -243 q 271 -118 250 -181 l 310 0 l 69 604 l -14 625 l -14 639 l 264 639 l 264 625 l 188 604 l 364 161 l 507 590 l 417 625 l 417 639 l 625 639 l 625 625 l 535 590 l 299 -118 z "},"ф":{"ha":958,"x_min":63,"x_max":896,"o":"m 639 7 q 686 22 663 7 q 728 72 710 36 q 759 168 747 108 q 771 319 771 228 q 759 471 771 411 q 730 567 747 531 q 692 617 713 603 q 653 632 671 632 q 605 615 626 632 q 568 579 583 599 q 535 528 550 556 l 535 76 q 564 42 549 57 q 597 17 578 28 q 639 7 615 7 m 319 7 q 362 17 343 7 q 394 42 381 28 q 424 76 410 57 l 424 528 q 390 579 408 556 q 353 615 375 599 q 306 632 332 632 q 267 617 288 632 q 228 567 246 603 q 199 471 211 531 q 188 319 188 411 q 199 168 188 228 q 230 72 211 108 q 272 22 249 36 q 319 7 296 7 m 424 938 l 340 958 l 340 972 l 535 972 l 535 576 q 571 618 550 600 q 614 647 589 633 q 674 660 639 660 q 752 638 713 660 q 824 573 792 615 q 876 467 856 531 q 896 319 896 403 q 876 172 896 236 q 822 66 856 108 q 747 1 789 24 q 660 -21 704 -21 q 604 -12 628 -21 q 565 7 581 -4 q 535 35 547 19 l 535 -299 l 618 -319 l 618 -333 l 340 -333 l 340 -319 l 424 -299 l 424 35 q 392 7 410 19 q 353 -12 376 -4 q 299 -21 331 -21 q 212 1 254 -21 q 136 66 169 24 q 83 172 103 108 q 63 319 63 236 q 83 467 63 403 q 135 573 103 531 q 206 638 167 615 q 285 660 246 660 q 344 647 318 660 q 388 618 369 633 q 424 576 408 600 l 424 938 z "},"х":{"ha":590,"x_min":-14,"x_max":604,"o":"m 264 265 l 125 49 l 215 14 l 215 0 l 7 0 l 7 14 l 97 49 l 250 288 l 69 604 l -14 625 l -14 639 l 271 639 l 271 625 l 194 604 l 317 390 l 444 590 l 354 625 l 354 639 l 563 639 l 563 625 l 472 590 l 329 368 l 521 35 l 604 14 l 604 0 l 319 0 l 319 14 l 396 35 l 264 265 z "},"ц":{"ha":722,"x_min":49,"x_max":708,"o":"m 708 28 q 704 -3 706 14 q 702 -40 703 -18 q 701 -90 701 -62 q 702 -131 701 -111 q 704 -167 703 -151 q 708 -201 706 -185 l 694 -201 q 631 -119 658 -169 q 604 0 604 -68 l 49 0 l 49 14 l 132 35 l 132 604 l 49 625 l 49 639 l 319 639 l 319 625 l 243 604 l 243 28 l 479 28 l 479 604 l 403 625 l 403 639 l 674 639 l 674 625 l 590 604 l 590 28 l 708 28 z "},"ч":{"ha":688,"x_min":21,"x_max":639,"o":"m 444 271 q 404 253 425 260 q 362 241 385 246 q 313 236 339 236 q 224 249 263 236 q 159 285 186 263 q 118 339 132 308 q 104 403 104 369 l 104 604 l 21 625 l 21 639 l 292 639 l 292 625 l 215 604 l 215 403 q 244 297 215 329 q 326 264 274 264 q 368 269 347 264 q 406 281 389 274 q 444 299 425 288 l 444 604 l 368 625 l 368 639 l 639 639 l 639 625 l 556 604 l 556 35 l 639 14 l 639 0 l 361 0 l 361 14 l 444 35 l 444 271 z "},"ш":{"ha":1014,"x_min":49,"x_max":965,"o":"m 49 14 l 132 35 l 132 604 l 49 625 l 49 639 l 319 639 l 319 625 l 243 604 l 243 28 l 451 28 l 451 604 l 375 625 l 375 639 l 639 639 l 639 625 l 563 604 l 563 28 l 771 28 l 771 604 l 694 625 l 694 639 l 965 639 l 965 625 l 882 604 l 882 35 l 965 14 l 965 0 l 49 0 l 49 14 z "},"щ":{"ha":1014,"x_min":49,"x_max":1000,"o":"m 49 0 l 49 14 l 132 35 l 132 604 l 49 625 l 49 639 l 319 639 l 319 625 l 243 604 l 243 28 l 451 28 l 451 604 l 375 625 l 375 639 l 639 639 l 639 625 l 563 604 l 563 28 l 771 28 l 771 604 l 694 625 l 694 639 l 965 639 l 965 625 l 882 604 l 882 28 l 1000 28 q 996 -3 997 14 q 994 -40 994 -18 q 993 -90 993 -62 q 994 -131 993 -111 q 996 -167 994 -151 q 1000 -201 997 -185 l 986 -201 q 923 -119 950 -169 q 896 0 896 -68 l 49 0 z "},"ъ":{"ha":681,"x_min":14,"x_max":660,"o":"m 319 375 l 319 28 l 368 28 q 491 73 447 28 q 535 201 535 118 q 491 330 535 285 q 368 375 447 375 l 319 375 m 410 639 l 410 625 l 319 597 l 319 403 l 368 403 q 499 387 443 403 q 590 344 554 371 q 642 280 625 317 q 660 201 660 243 q 642 123 660 160 q 590 59 625 86 q 499 16 554 32 q 368 0 443 0 l 125 0 l 125 14 l 208 35 l 208 611 l 111 611 q 88 508 111 553 q 28 431 64 463 l 14 431 q 17 467 15 449 q 19 501 18 482 q 21 535 21 519 q 19 577 21 558 q 17 610 18 596 q 14 639 15 625 l 410 639 z "},"ы":{"ha":931,"x_min":49,"x_max":882,"o":"m 292 403 q 422 387 367 403 q 513 344 478 371 q 566 280 549 317 q 583 201 583 243 q 566 123 583 160 q 513 59 549 86 q 422 16 478 32 q 292 0 367 0 l 49 0 l 49 14 l 132 35 l 132 604 l 49 625 l 49 639 l 326 639 l 326 625 l 243 604 l 243 403 l 292 403 m 243 375 l 243 28 l 292 28 q 415 73 371 28 q 458 201 458 118 q 415 330 458 285 q 292 375 371 375 l 243 375 m 799 35 l 882 14 l 882 0 l 604 0 l 604 14 l 688 35 l 688 604 l 604 625 l 604 639 l 882 639 l 882 625 l 799 604 l 799 35 z "},"ь":{"ha":604,"x_min":49,"x_max":583,"o":"m 292 403 q 422 387 367 403 q 513 344 478 371 q 566 280 549 317 q 583 201 583 243 q 566 123 583 160 q 513 59 549 86 q 422 16 478 32 q 292 0 367 0 l 49 0 l 49 14 l 132 35 l 132 604 l 49 625 l 49 639 l 326 639 l 326 625 l 243 604 l 243 403 l 292 403 m 243 375 l 243 28 l 292 28 q 415 73 371 28 q 458 201 458 118 q 415 330 458 285 q 292 375 371 375 l 243 375 z "},"э":{"ha":597,"x_min":42,"x_max":535,"o":"m 264 632 q 160 578 211 632 q 83 424 110 524 l 63 424 q 65 461 64 442 q 68 499 67 478 q 69 542 69 521 q 68 579 69 560 q 65 615 67 599 q 63 653 64 635 l 83 653 q 116 629 99 647 q 139 590 133 611 q 175 625 154 610 q 218 649 193 638 q 278 660 243 660 q 374 637 328 660 q 456 570 419 614 q 513 463 492 526 q 535 319 535 400 q 513 176 535 239 q 454 69 492 113 q 367 2 417 25 q 264 -21 318 -21 q 181 -5 219 -21 q 114 39 143 11 q 66 105 85 67 q 42 188 47 143 l 63 188 q 84 115 68 149 q 125 58 100 82 q 182 21 150 35 q 250 7 214 7 q 309 22 281 7 q 360 72 338 38 q 395 164 382 107 q 410 306 408 221 l 292 306 l 243 194 l 229 194 l 229 444 l 243 444 l 292 333 l 410 333 q 395 475 408 418 q 361 567 382 532 q 315 617 340 601 q 264 632 289 632 z "},"ю":{"ha":944,"x_min":49,"x_max":882,"o":"m 618 660 q 717 637 669 660 q 802 570 765 614 q 860 463 839 526 q 882 319 882 400 q 860 176 882 239 q 802 69 839 113 q 717 2 765 25 q 618 -21 669 -21 q 518 2 565 -21 q 434 68 471 25 q 376 173 397 111 q 354 313 354 235 l 243 313 l 243 35 l 326 14 l 326 0 l 49 0 l 49 14 l 132 35 l 132 604 l 49 625 l 49 639 l 326 639 l 326 625 l 243 604 l 243 340 l 354 340 q 380 475 357 415 q 439 576 403 535 q 522 638 475 617 q 618 660 568 660 m 618 639 q 570 623 594 639 q 526 570 546 607 q 492 472 506 533 q 479 319 479 411 q 492 167 479 228 q 526 69 506 106 q 570 16 546 32 q 618 0 594 0 q 666 16 642 0 q 710 69 690 32 q 744 167 731 106 q 757 319 757 228 q 744 472 757 411 q 710 570 731 533 q 666 623 690 607 q 618 639 642 639 z "},"я":{"ha":660,"x_min":14,"x_max":611,"o":"m 361 292 q 274 263 303 292 q 238 181 244 233 l 222 69 q 191 3 217 28 q 118 -21 165 -21 q 69 -11 89 -21 q 38 10 50 -1 q 14 42 22 24 l 28 56 q 40 38 33 44 q 54 26 47 31 q 69 21 61 21 q 90 32 81 21 q 103 69 100 43 l 118 181 q 150 247 124 222 q 207 285 176 271 q 285 306 243 300 q 183 331 228 311 q 115 378 146 347 q 83 465 83 410 q 99 531 83 499 q 149 586 115 563 q 235 624 183 610 q 361 639 288 639 l 611 639 l 611 625 l 528 604 l 528 35 l 611 14 l 611 0 l 333 0 l 333 14 l 417 35 l 417 292 l 361 292 m 417 319 l 417 611 l 361 611 q 248 572 288 611 q 208 465 208 533 q 248 358 208 397 q 361 319 288 319 l 417 319 z "},"ѣ":{"ha":681,"x_min":28,"x_max":667,"o":"m 326 361 l 326 28 l 375 28 q 498 72 454 28 q 542 194 542 115 q 498 317 542 274 q 375 361 454 361 l 326 361 m 375 389 q 506 373 450 389 q 597 331 561 357 q 649 269 632 304 q 667 194 667 233 q 649 120 667 156 q 597 58 632 85 q 506 16 561 32 q 375 0 450 0 l 132 0 l 132 14 l 215 35 l 215 611 l 125 611 q 101 508 125 553 q 42 431 78 463 l 28 431 q 31 467 29 449 q 33 501 32 482 q 35 535 35 519 q 33 577 35 558 q 31 610 32 596 q 28 639 29 625 l 215 639 l 215 799 l 326 875 l 326 639 l 528 639 q 524 610 525 625 q 522 577 522 596 q 521 535 521 558 q 522 501 521 519 q 524 467 522 482 q 528 431 525 449 l 514 431 q 454 508 478 463 q 431 611 431 553 l 326 611 l 326 389 l 375 389 z "},"ѳ":{"ha":653,"x_min":63,"x_max":590,"o":"m 326 660 q 426 637 378 660 q 510 570 474 614 q 569 463 547 526 q 590 319 590 400 q 569 176 590 239 q 510 69 547 113 q 426 2 474 25 q 326 -21 378 -21 q 226 2 274 -21 q 142 69 179 25 q 84 176 106 113 q 63 319 63 239 q 84 463 63 400 q 142 570 106 526 q 226 637 179 614 q 326 660 274 660 m 326 639 q 278 624 303 639 q 234 572 254 608 q 201 478 214 536 q 188 333 188 419 l 465 333 q 452 478 465 419 q 419 572 439 536 q 374 624 399 608 q 326 639 350 639 m 326 0 q 374 15 350 0 q 419 67 399 31 q 452 161 439 103 q 465 306 465 219 l 188 306 q 201 161 188 219 q 234 67 214 103 q 278 15 254 31 q 326 0 303 0 z "},"A":{"ha":722,"x_min":-7,"x_max":750,"o":"m 465 285 l 181 285 l 111 49 l 201 14 l 201 0 l -7 0 l -7 14 l 83 49 l 354 993 l 375 993 l 667 35 l 750 14 l 750 0 l 458 0 l 458 14 l 542 35 l 465 285 m 188 311 l 457 311 l 318 771 l 188 311 z "},"B":{"ha":701,"x_min":63,"x_max":667,"o":"m 63 0 l 63 14 l 146 35 l 146 938 l 63 958 l 63 972 l 313 972 q 426 958 378 972 q 506 917 474 943 q 553 858 538 892 q 569 785 569 824 q 560 731 569 754 q 537 690 551 707 q 503 659 522 672 q 465 638 485 646 q 361 611 419 617 q 514 568 447 603 q 570 531 543 553 q 619 478 597 510 q 653 406 640 447 q 667 313 667 365 q 642 190 667 247 q 570 91 617 133 q 458 24 524 49 q 313 0 393 0 l 63 0 m 264 597 l 264 28 l 313 28 q 400 46 360 28 q 470 100 440 64 q 517 189 500 136 q 535 313 535 242 q 517 436 535 383 q 470 525 500 489 q 400 579 440 561 q 313 597 360 597 l 264 597 m 264 625 l 313 625 q 413 666 375 626 q 451 785 451 706 q 413 904 451 864 q 313 944 375 944 l 264 944 l 264 625 z "},"C":{"ha":681,"x_min":56,"x_max":653,"o":"m 396 965 q 319 943 357 965 q 253 866 282 921 q 206 719 224 811 q 188 486 188 626 q 206 253 188 346 q 254 106 224 161 q 325 29 285 51 q 410 7 365 7 q 483 26 446 7 q 552 81 521 46 q 605 163 583 115 q 632 264 626 210 l 653 264 q 625 149 647 201 q 569 59 603 97 q 490 0 535 21 q 396 -21 446 -21 q 269 10 331 -21 q 160 105 208 42 q 84 263 113 168 q 56 486 56 358 q 84 709 56 614 q 159 867 113 804 q 264 962 206 931 q 382 993 322 993 q 442 982 415 993 q 489 957 469 971 q 528 922 511 942 q 558 962 539 943 q 597 986 576 981 l 618 986 q 614 944 615 965 q 612 903 613 925 q 611 861 611 882 q 612 815 611 838 q 614 772 613 792 q 618 729 615 750 l 597 729 q 512 905 565 844 q 396 965 458 965 z "},"D":{"ha":778,"x_min":63,"x_max":729,"o":"m 306 972 q 474 939 397 972 q 608 843 551 906 q 697 690 665 781 q 729 486 729 600 q 697 281 729 371 q 608 128 665 190 q 474 33 551 65 q 306 0 397 0 l 63 0 l 63 14 l 146 35 l 146 938 l 63 958 l 63 972 l 306 972 m 264 944 l 264 28 l 306 28 q 419 53 365 28 q 512 135 472 79 q 574 277 551 190 q 597 486 597 364 q 574 695 597 608 q 512 838 551 782 q 419 919 472 893 q 306 944 365 944 l 264 944 z "},"E":{"ha":701,"x_min":63,"x_max":639,"o":"m 542 28 q 565 136 542 86 q 625 222 589 186 l 639 222 q 635 185 636 204 q 633 149 633 168 q 632 111 632 129 q 633 65 632 85 q 635 29 633 44 q 639 0 636 13 l 63 0 l 63 14 l 146 35 l 146 938 l 63 958 l 63 972 l 625 972 q 621 943 622 960 q 619 908 619 928 q 618 861 618 888 q 619 823 618 842 q 621 788 619 804 q 625 750 622 768 l 611 750 q 551 836 575 786 q 528 944 528 886 l 264 944 l 264 528 l 396 528 l 458 653 l 472 653 l 472 375 l 458 375 l 396 500 l 264 500 l 264 28 l 542 28 z "},"F":{"ha":667,"x_min":63,"x_max":625,"o":"m 264 500 l 264 35 l 347 14 l 347 0 l 63 0 l 63 14 l 146 35 l 146 938 l 63 958 l 63 972 l 625 972 q 621 943 622 960 q 619 908 619 928 q 618 861 618 888 q 619 823 618 842 q 621 788 619 804 q 625 750 622 768 l 611 750 q 551 836 575 786 q 528 944 528 886 l 264 944 l 264 528 l 396 528 l 458 653 l 472 653 l 472 375 l 458 375 l 396 500 l 264 500 z "},"G":{"ha":729,"x_min":63,"x_max":667,"o":"m 549 444 l 410 444 l 410 472 l 667 472 l 667 368 q 642 201 667 274 q 578 80 618 129 q 488 5 539 31 q 382 -21 436 -21 q 268 10 325 -21 q 165 105 211 42 q 91 263 119 168 q 63 486 63 358 q 91 709 63 614 q 166 867 119 804 q 271 962 213 931 q 389 993 329 993 q 449 982 422 993 q 496 958 476 971 q 535 924 518 943 q 565 963 546 944 q 604 986 583 981 l 625 986 q 621 944 622 965 q 619 903 619 925 q 618 861 618 882 q 619 815 618 838 q 621 772 619 792 q 625 729 622 750 l 604 729 q 519 905 572 844 q 403 965 465 965 q 326 943 364 965 q 260 866 289 921 q 213 719 231 811 q 194 486 194 626 q 212 249 194 343 q 257 100 229 156 q 317 22 285 44 q 382 0 350 0 q 443 17 413 0 q 497 77 474 35 q 534 190 519 119 q 549 368 549 261 l 549 444 z "},"H":{"ha":813,"x_min":63,"x_max":750,"o":"m 264 500 l 264 35 l 347 14 l 347 0 l 63 0 l 63 14 l 146 35 l 146 938 l 63 958 l 63 972 l 347 972 l 347 958 l 264 938 l 264 528 l 549 528 l 549 938 l 465 958 l 465 972 l 750 972 l 750 958 l 667 938 l 667 35 l 750 14 l 750 0 l 465 0 l 465 14 l 549 35 l 549 500 l 264 500 z "},"I":{"ha":410,"x_min":63,"x_max":347,"o":"m 264 35 l 347 14 l 347 0 l 63 0 l 63 14 l 146 35 l 146 938 l 63 958 l 63 972 l 347 972 l 347 958 l 264 938 l 264 35 z "},"J":{"ha":681,"x_min":21,"x_max":639,"o":"m 556 264 q 535 146 556 199 q 478 56 515 93 q 389 -1 442 19 q 271 -21 336 -21 q 173 -1 218 -21 q 94 50 128 18 q 40 123 60 82 q 21 208 21 164 q 53 326 21 288 q 132 375 86 365 l 229 292 q 90 146 90 271 q 103 94 90 119 q 139 50 115 69 q 196 19 163 31 q 271 7 229 7 q 335 22 304 7 q 388 67 365 36 q 424 147 411 99 q 438 264 438 196 l 438 938 l 354 958 l 354 972 l 639 972 l 639 958 l 556 938 l 556 264 z "},"K":{"ha":750,"x_min":63,"x_max":778,"o":"m 264 361 l 264 35 l 347 14 l 347 0 l 63 0 l 63 14 l 146 35 l 146 938 l 63 958 l 63 972 l 347 972 l 347 958 l 264 938 l 264 410 l 563 924 l 472 958 l 472 972 l 681 972 l 681 958 l 590 924 l 415 622 l 694 35 l 778 14 l 778 0 l 479 0 l 479 14 l 563 35 l 343 497 l 264 361 z "},"L":{"ha":653,"x_min":63,"x_max":611,"o":"m 264 28 l 514 28 q 538 136 514 86 q 597 222 561 186 l 611 222 q 607 185 608 204 q 605 149 606 168 q 604 111 604 129 q 605 65 604 85 q 607 29 606 44 q 611 0 608 13 l 63 0 l 63 14 l 146 35 l 146 938 l 63 958 l 63 972 l 347 972 l 347 958 l 264 938 l 264 28 z "},"M":{"ha":1090,"x_min":56,"x_max":1028,"o":"m 833 972 l 1028 972 l 1028 958 l 944 938 l 944 35 l 1028 14 l 1028 0 l 743 0 l 743 14 l 826 35 l 826 854 l 528 -21 l 507 -21 l 174 854 l 174 49 l 264 14 l 264 0 l 56 0 l 56 14 l 146 49 l 146 931 l 56 958 l 56 972 l 257 972 l 561 174 l 833 972 z "},"N":{"ha":813,"x_min":56,"x_max":757,"o":"m 639 924 l 549 958 l 549 972 l 757 972 l 757 958 l 667 924 l 667 -14 l 646 -14 l 174 854 l 174 49 l 264 14 l 264 0 l 56 0 l 56 14 l 146 49 l 146 931 l 56 958 l 56 972 l 243 972 l 639 243 l 639 924 z "},"O":{"ha":764,"x_min":56,"x_max":708,"o":"m 708 486 q 680 263 708 358 q 605 105 651 168 q 500 10 558 42 q 382 -21 442 -21 q 264 10 322 -21 q 159 105 206 42 q 84 263 113 168 q 56 486 56 358 q 84 709 56 614 q 159 867 113 804 q 264 962 206 931 q 382 993 322 993 q 500 962 442 993 q 605 867 558 931 q 680 709 651 804 q 708 486 708 614 m 576 486 q 559 723 576 629 q 513 872 542 817 q 450 950 485 928 q 382 972 415 972 q 314 950 349 972 q 251 872 279 928 q 205 723 222 817 q 188 486 188 629 q 205 249 188 343 q 251 100 222 156 q 314 22 279 44 q 382 0 349 0 q 450 22 415 0 q 513 100 485 44 q 559 249 542 156 q 576 486 576 343 z "},"P":{"ha":701,"x_min":63,"x_max":674,"o":"m 264 347 l 264 35 l 347 14 l 347 0 l 63 0 l 63 14 l 146 35 l 146 938 l 63 958 l 63 972 l 313 972 q 466 949 399 972 q 579 883 533 925 q 649 785 625 842 q 674 660 674 728 q 649 535 674 592 q 579 436 625 478 q 466 371 533 394 q 313 347 399 347 l 264 347 m 264 375 l 313 375 q 482 442 422 375 q 542 660 542 508 q 482 878 542 811 q 313 944 422 944 l 264 944 l 264 375 z "},"Q":{"ha":764,"x_min":56,"x_max":708,"o":"m 708 486 q 683 278 708 369 q 617 124 658 188 q 524 24 576 60 q 417 -21 471 -12 q 464 -63 443 -36 q 502 -117 485 -90 q 534 -162 519 -143 q 563 -181 549 -181 q 588 -167 578 -181 q 597 -118 597 -154 q 589 -69 597 -89 q 569 -35 581 -49 q 548 -15 558 -22 q 535 -7 538 -8 l 653 0 q 669 -24 663 -10 q 682 -50 676 -35 q 688 -83 688 -65 q 676 -125 688 -104 q 647 -163 665 -146 q 603 -191 628 -181 q 549 -201 578 -201 q 453 -180 489 -201 q 392 -132 417 -158 q 344 -84 367 -106 q 292 -62 322 -62 q 267 -67 278 -62 q 247 -76 256 -71 q 229 -90 238 -82 l 215 -76 q 268 -32 236 -50 q 326 -14 300 -14 q 225 37 274 -1 q 139 138 176 75 q 78 287 101 200 q 56 486 56 374 q 84 709 56 614 q 159 867 113 804 q 264 962 206 931 q 382 993 322 993 q 500 962 442 993 q 605 867 558 931 q 680 709 651 804 q 708 486 708 614 m 576 486 q 559 723 576 629 q 513 872 542 817 q 450 950 485 928 q 382 972 415 972 q 314 950 349 972 q 251 872 279 928 q 205 723 222 817 q 188 486 188 629 q 205 249 188 343 q 251 100 222 156 q 314 22 279 44 q 382 0 349 0 q 450 22 415 0 q 513 100 485 44 q 559 249 542 156 q 576 486 576 343 z "},"R":{"ha":764,"x_min":63,"x_max":750,"o":"m 319 972 q 474 953 408 972 q 582 900 539 933 q 646 823 625 867 q 667 729 667 779 q 655 658 667 689 q 624 602 643 626 q 581 561 606 578 q 531 533 556 544 q 396 500 471 507 q 507 471 457 493 q 588 414 550 451 q 632 313 625 376 l 660 69 q 672 32 663 43 q 694 21 682 21 q 709 26 701 21 q 724 38 717 31 q 736 56 731 44 l 750 42 q 726 10 742 24 q 694 -11 714 -1 q 646 -21 674 -21 q 569 6 599 -21 q 535 69 539 33 l 507 313 q 489 392 501 360 q 455 446 476 425 q 400 476 433 467 q 319 486 367 486 l 264 486 l 264 35 l 347 14 l 347 0 l 63 0 l 63 14 l 146 35 l 146 938 l 63 958 l 63 972 l 319 972 m 535 729 q 479 889 535 833 q 319 944 424 944 l 264 944 l 264 514 l 319 514 q 479 569 424 514 q 535 729 535 625 z "},"S":{"ha":646,"x_min":49,"x_max":604,"o":"m 153 792 q 186 694 153 735 q 269 618 219 653 q 378 550 319 583 q 488 474 438 517 q 571 375 538 432 q 604 236 604 318 q 585 135 604 182 q 530 53 565 88 q 446 -1 494 18 q 340 -21 397 -21 q 250 -10 288 -21 q 188 14 213 0 q 139 49 158 29 q 109 10 128 28 q 69 -14 90 -8 l 49 -14 q 51 28 50 6 q 54 68 53 46 q 56 111 56 90 q 54 158 56 135 q 51 200 53 181 q 49 243 50 222 l 69 243 q 162 67 101 128 q 326 7 222 7 q 462 60 410 7 q 514 208 514 114 q 481 306 514 265 q 397 382 447 347 q 288 450 347 417 q 179 526 229 483 q 96 625 129 568 q 63 764 63 682 q 81 853 63 811 q 131 926 99 894 q 206 975 163 957 q 299 993 249 993 q 372 982 340 993 q 426 958 404 971 q 472 924 451 943 q 502 963 483 944 q 542 986 521 981 l 563 986 q 558 944 560 965 q 556 903 557 925 q 556 861 556 882 q 556 815 556 838 q 558 772 557 792 q 563 729 560 750 l 542 729 q 453 905 510 844 q 313 965 396 965 q 199 918 244 965 q 153 792 153 871 z "},"T":{"ha":688,"x_min":42,"x_max":646,"o":"m 403 35 l 486 14 l 486 0 l 201 0 l 201 14 l 285 35 l 285 944 l 139 944 q 115 836 139 886 q 56 750 92 786 l 42 750 q 44 788 43 768 q 47 823 46 804 q 49 861 49 842 q 47 908 49 888 q 44 943 46 928 q 42 972 43 960 l 646 972 q 642 943 643 960 q 640 908 640 928 q 639 861 639 888 q 640 823 639 842 q 642 788 640 804 q 646 750 643 768 l 632 750 q 572 836 596 786 q 549 944 549 886 l 403 944 l 403 35 z "},"U":{"ha":792,"x_min":42,"x_max":764,"o":"m 674 278 q 609 50 674 121 q 424 -21 544 -21 q 203 58 282 -21 q 125 278 125 136 l 125 938 l 42 958 l 42 972 l 326 972 l 326 958 l 243 938 l 243 278 q 299 72 243 138 q 438 7 354 7 q 523 23 485 7 q 588 72 561 39 q 631 156 615 106 q 646 278 646 207 l 646 924 l 556 958 l 556 972 l 764 972 l 764 958 l 674 924 l 674 278 z "},"W":{"ha":1118,"x_min":-14,"x_max":1146,"o":"m -14 958 l -14 972 l 278 972 l 278 958 l 194 938 l 396 222 l 597 993 l 618 993 l 846 222 l 1028 924 l 938 958 l 938 972 l 1146 972 l 1146 958 l 1056 924 l 813 -21 l 792 -21 l 563 757 l 361 -21 l 340 -21 l 69 938 l -14 958 z "},"V":{"ha":701,"x_min":-14,"x_max":729,"o":"m -14 958 l -14 972 l 278 972 l 278 958 l 194 938 l 417 208 l 611 924 l 521 958 l 521 972 l 729 972 l 729 958 l 639 924 l 382 -21 l 361 -21 l 69 938 l -14 958 z "},"X":{"ha":688,"x_min":-14,"x_max":701,"o":"m 293 453 l 69 938 l -14 958 l -14 972 l 285 972 l 285 958 l 201 938 l 361 590 l 528 924 l 438 958 l 438 972 l 646 972 l 646 958 l 556 924 l 375 561 l 618 35 l 701 14 l 701 0 l 403 0 l 403 14 l 486 35 l 306 425 l 118 49 l 208 14 l 208 0 l 0 0 l 0 14 l 90 49 l 293 453 z "},"Y":{"ha":681,"x_min":-7,"x_max":708,"o":"m 410 389 l 410 35 l 493 14 l 493 0 l 208 0 l 208 14 l 292 35 l 292 382 l 76 938 l -7 958 l -7 972 l 285 972 l 285 958 l 201 938 l 399 431 l 590 924 l 500 958 l 500 972 l 708 972 l 708 958 l 618 924 l 410 389 z "},"Z":{"ha":639,"x_min":21,"x_max":604,"o":"m 160 28 l 507 28 q 531 136 507 86 q 590 222 554 186 l 604 222 q 600 185 601 204 q 598 149 599 168 q 597 111 597 129 q 598 65 597 85 q 600 29 599 44 q 604 0 601 13 l 21 0 l 465 944 l 160 944 q 136 836 160 886 q 76 750 113 786 l 63 750 q 65 788 64 768 q 68 823 67 804 q 69 861 69 842 q 68 908 69 888 q 65 943 67 928 q 63 972 64 960 l 604 972 l 160 28 z "},"a":{"ha":646,"x_min":56,"x_max":611,"o":"m 417 340 q 238 287 296 340 q 181 139 181 233 q 211 42 181 76 q 278 7 242 7 q 337 26 311 7 q 381 69 363 46 q 417 132 401 96 l 417 340 m 313 639 q 243 610 271 639 q 215 535 215 582 q 216 515 215 524 q 218 500 217 507 q 222 486 219 493 l 111 458 q 107 469 108 463 q 105 485 106 476 q 104 507 104 493 q 118 563 104 536 q 159 612 132 590 q 224 647 186 633 q 313 660 263 660 q 470 603 413 660 q 528 451 528 546 l 528 35 l 611 14 l 611 0 l 417 0 l 417 83 q 378 31 401 54 q 328 -5 358 11 q 257 -21 299 -21 q 106 26 157 -21 q 56 153 56 74 q 77 231 56 192 q 142 300 99 269 q 254 349 186 331 q 417 368 322 368 l 417 451 q 385 597 417 556 q 313 639 354 639 z "},"b":{"ha":701,"x_min":42,"x_max":639,"o":"m 361 632 q 306 619 329 632 q 267 590 282 606 q 236 549 249 572 l 236 132 q 272 69 251 96 q 315 26 290 46 q 375 7 340 7 q 423 22 399 7 q 467 74 447 38 q 501 171 488 111 q 514 319 514 231 q 501 468 514 408 q 466 564 488 528 q 417 616 444 600 q 361 632 390 632 m 382 660 q 478 637 432 660 q 560 570 524 614 q 617 463 596 526 q 639 319 639 400 q 617 176 639 239 q 562 69 596 113 q 484 2 528 25 q 396 -21 440 -21 q 324 -5 354 -21 q 274 31 293 11 q 236 83 250 54 l 236 0 l 42 0 l 42 14 l 125 35 l 125 938 l 42 958 l 42 972 l 236 972 l 236 590 q 269 625 249 610 q 315 649 288 638 q 382 660 342 660 z "},"c":{"ha":597,"x_min":63,"x_max":556,"o":"m 333 632 q 281 616 307 632 q 235 564 256 600 q 201 468 214 528 q 188 319 188 408 q 201 171 188 231 q 236 74 214 111 q 287 22 258 38 q 347 7 315 7 q 415 21 383 7 q 472 58 447 35 q 513 115 497 82 q 535 188 529 149 l 556 188 q 531 105 550 143 q 483 39 513 67 q 416 -5 454 11 q 333 -21 378 -21 q 230 2 279 -21 q 143 69 181 25 q 84 176 106 113 q 63 319 63 239 q 84 463 63 400 q 142 570 106 526 q 224 637 178 614 q 319 660 269 660 q 378 649 353 660 q 422 625 404 638 q 458 590 443 610 q 481 629 464 611 q 514 653 499 647 l 535 653 q 531 615 532 635 q 528 579 529 599 q 528 542 528 560 q 528 499 528 521 q 531 461 529 478 q 535 424 532 442 l 514 424 q 437 578 488 524 q 333 632 386 632 z "},"d":{"ha":694,"x_min":56,"x_max":653,"o":"m 333 632 q 277 616 304 632 q 228 564 250 600 q 194 468 207 528 q 181 319 181 408 q 194 171 181 231 q 227 74 207 111 q 272 22 247 38 q 319 7 296 7 q 378 26 353 7 q 422 69 404 46 q 458 132 443 96 l 458 549 q 426 590 444 572 q 388 619 411 606 q 333 632 365 632 m 569 35 l 653 14 l 653 0 l 458 0 l 458 83 q 419 31 443 54 q 370 -5 400 11 q 299 -21 340 -21 q 210 2 254 -21 q 133 69 167 25 q 77 176 99 113 q 56 319 56 239 q 77 463 56 400 q 135 570 99 526 q 217 637 171 614 q 313 660 263 660 q 379 649 351 660 q 425 625 407 638 q 458 590 446 610 l 458 938 l 375 958 l 375 972 l 569 972 l 569 35 z "},"e":{"ha":618,"x_min":63,"x_max":563,"o":"m 188 319 q 201 171 188 231 q 235 74 214 111 q 284 22 257 38 q 340 7 311 7 q 408 21 376 7 q 465 58 440 35 q 506 115 490 82 q 528 188 522 149 l 549 188 q 524 105 543 143 q 476 39 506 67 q 409 -5 447 11 q 326 -21 371 -21 q 226 2 274 -21 q 142 69 179 25 q 84 176 106 113 q 63 319 63 239 q 83 467 63 403 q 138 573 104 531 q 217 638 172 615 q 313 660 263 660 q 408 638 363 660 q 487 573 453 615 q 542 467 521 531 q 563 319 563 403 l 188 319 m 313 639 q 271 626 292 639 q 232 579 250 613 q 202 490 214 546 q 188 347 190 433 l 438 347 q 423 490 435 433 q 393 579 411 546 q 354 626 375 613 q 313 639 333 639 z "},"f":{"ha":458,"x_min":56,"x_max":500,"o":"m 500 854 q 492 812 500 831 q 475 779 485 793 q 451 750 464 764 l 347 792 q 371 821 360 806 q 388 853 381 835 q 396 896 396 872 q 377 952 396 932 q 326 972 358 972 q 297 965 311 972 q 273 938 283 957 q 256 888 263 919 q 250 806 250 856 l 250 639 l 444 639 l 444 611 l 250 611 l 250 35 l 333 14 l 333 0 l 56 0 l 56 14 l 139 35 l 139 611 l 56 611 l 56 639 l 139 639 l 139 806 q 191 941 139 889 q 326 993 243 993 q 397 981 365 993 q 452 950 429 969 q 488 906 475 931 q 500 854 500 881 z "},"g":{"ha":674,"x_min":28,"x_max":681,"o":"m 306 208 q 351 220 329 208 q 392 258 374 232 q 420 326 410 285 q 431 424 431 367 q 420 522 431 481 q 392 588 410 563 q 351 626 374 614 q 306 639 329 639 q 260 626 282 639 q 219 588 238 614 q 191 522 201 563 q 181 424 181 481 q 191 326 181 367 q 219 258 201 285 q 260 220 238 232 q 306 208 282 208 m 333 -328 q 426 -313 385 -328 q 497 -274 468 -299 q 540 -215 525 -249 q 556 -146 556 -182 q 424 -14 556 -14 l 201 -14 q 85 18 122 -14 q 49 97 49 50 q 65 153 49 129 q 100 197 81 178 q 153 236 124 218 q 104 281 125 254 q 70 339 85 304 q 56 424 56 374 q 74 517 56 474 q 126 592 93 560 q 206 642 160 624 q 306 660 251 660 q 351 656 329 660 q 392 646 374 651 q 431 632 413 640 q 457 660 442 647 q 492 679 471 671 q 542 688 513 688 q 616 670 589 688 q 658 632 643 653 q 681 576 675 607 l 576 556 q 564 607 572 583 q 544 643 557 626 q 514 660 532 660 q 486 653 499 660 q 467 639 474 646 q 451 618 457 629 q 530 536 504 586 q 556 424 556 486 q 537 331 556 374 q 485 256 518 288 q 406 206 451 224 q 306 188 360 188 q 253 192 276 188 q 211 204 229 197 q 174 222 190 211 q 139 196 154 210 q 115 169 125 185 q 104 139 104 154 q 124 105 104 118 q 201 92 143 92 l 424 92 q 559 38 507 92 q 611 -104 611 -15 q 591 -202 611 -157 q 535 -281 571 -247 q 447 -335 499 -315 q 333 -354 396 -354 q 198 -337 256 -354 q 103 -290 140 -319 q 47 -219 65 -260 q 28 -132 28 -179 q 32 -99 28 -114 q 42 -75 36 -85 q 56 -56 47 -64 l 160 -97 q 153 -118 156 -107 q 146 -160 146 -139 q 195 -281 146 -233 q 333 -328 244 -328 z "},"h":{"ha":708,"x_min":42,"x_max":674,"o":"m 125 35 l 125 938 l 42 958 l 42 972 l 236 972 l 236 556 q 274 607 250 583 q 324 643 293 626 q 396 660 354 660 q 473 644 438 660 q 535 602 508 629 q 576 537 561 575 q 590 451 590 499 l 590 35 l 674 14 l 674 0 l 403 0 l 403 14 l 479 35 l 479 451 q 448 591 479 550 q 375 632 417 632 q 315 613 340 632 q 272 569 290 593 q 236 507 251 542 l 236 35 l 313 14 l 313 0 l 42 0 l 42 14 l 125 35 z "},"i":{"ha":361,"x_min":49,"x_max":326,"o":"m 132 35 l 132 604 l 49 625 l 49 639 l 243 639 l 243 35 l 326 14 l 326 0 l 49 0 l 49 14 l 132 35 m 250 799 q 228 751 250 772 q 181 729 207 729 q 133 751 154 729 q 111 799 111 772 q 133 847 111 825 q 181 868 154 868 q 228 847 207 868 q 250 799 250 825 z "},"k":{"ha":639,"x_min":42,"x_max":660,"o":"m 236 226 l 236 35 l 313 14 l 313 0 l 42 0 l 42 14 l 125 35 l 125 938 l 42 958 l 42 972 l 236 972 l 236 264 l 465 590 l 375 625 l 375 639 l 583 639 l 583 625 l 493 590 l 358 399 l 576 35 l 660 14 l 660 0 l 375 0 l 375 14 l 451 35 l 290 303 l 236 226 z "},"l":{"ha":354,"x_min":42,"x_max":319,"o":"m 125 35 l 125 938 l 42 958 l 42 972 l 236 972 l 236 35 l 319 14 l 319 0 l 42 0 l 42 14 l 125 35 z "},"m":{"ha":1069,"x_min":49,"x_max":1035,"o":"m 132 35 l 132 604 l 49 625 l 49 639 l 243 639 l 243 556 q 281 607 257 583 q 331 643 300 626 q 403 660 361 660 q 490 640 456 660 q 544 597 524 621 q 583 535 569 569 q 626 597 601 569 q 681 640 649 621 q 757 660 713 660 q 834 644 799 660 q 896 602 869 629 q 937 537 922 575 q 951 451 951 499 l 951 35 l 1035 14 l 1035 0 l 764 0 l 764 14 l 840 35 l 840 451 q 809 591 840 550 q 736 632 778 632 q 676 613 701 632 q 633 569 651 593 q 597 507 613 542 l 597 35 l 674 14 l 674 0 l 410 0 l 410 14 l 486 35 l 486 451 q 455 591 486 550 q 382 632 424 632 q 322 613 347 632 q 279 569 297 593 q 243 507 258 542 l 243 35 l 319 14 l 319 0 l 49 0 l 49 14 l 132 35 z "},"n":{"ha":715,"x_min":49,"x_max":681,"o":"m 132 35 l 132 604 l 49 625 l 49 639 l 243 639 l 243 556 q 281 607 257 583 q 331 643 300 626 q 403 660 361 660 q 480 644 444 660 q 542 602 515 629 q 583 537 568 575 q 597 451 597 499 l 597 35 l 681 14 l 681 0 l 410 0 l 410 14 l 486 35 l 486 451 q 455 591 486 550 q 382 632 424 632 q 322 613 347 632 q 279 569 297 593 q 243 507 258 542 l 243 35 l 319 14 l 319 0 l 49 0 l 49 14 l 132 35 z "},"o":{"ha":653,"x_min":63,"x_max":590,"o":"m 326 639 q 278 623 303 639 q 234 570 254 607 q 201 472 214 533 q 188 319 188 411 q 201 167 188 228 q 234 69 214 106 q 278 16 254 32 q 326 0 303 0 q 374 16 350 0 q 419 69 399 32 q 452 167 439 106 q 465 319 465 228 q 452 472 465 411 q 419 570 439 533 q 374 623 399 607 q 326 639 350 639 m 326 660 q 426 637 378 660 q 510 570 474 614 q 569 463 547 526 q 590 319 590 400 q 569 176 590 239 q 510 69 547 113 q 426 2 474 25 q 326 -21 378 -21 q 226 2 274 -21 q 142 69 179 25 q 84 176 106 113 q 63 319 63 239 q 84 463 63 400 q 142 570 106 526 q 226 637 179 614 q 326 660 274 660 z "},"p":{"ha":694,"x_min":35,"x_max":632,"o":"m 118 604 l 35 625 l 35 639 l 229 639 l 229 556 q 267 607 243 583 q 317 643 286 626 q 389 660 347 660 q 477 637 433 660 q 555 570 521 614 q 610 463 589 526 q 632 319 632 400 q 610 176 632 239 q 553 69 589 113 q 471 2 517 25 q 375 -21 425 -21 q 308 -10 335 -21 q 263 14 281 0 q 229 49 242 29 l 229 -299 l 313 -319 l 313 -333 l 35 -333 l 35 -319 l 118 -299 l 118 604 m 354 7 q 410 22 383 7 q 459 74 438 38 q 494 171 481 111 q 507 319 507 231 q 494 468 507 408 q 460 564 481 528 q 416 616 440 600 q 368 632 392 632 q 308 613 333 632 q 265 569 283 593 q 229 507 244 542 l 229 90 q 260 49 242 67 q 299 20 275 33 q 354 7 322 7 z "},"q":{"ha":694,"x_min":63,"x_max":660,"o":"m 340 7 q 395 20 372 7 q 433 49 418 33 q 465 90 451 67 l 465 507 q 429 569 450 542 q 385 613 411 593 q 326 632 360 632 q 278 616 303 632 q 234 564 254 600 q 201 468 214 528 q 188 319 188 408 q 201 171 188 231 q 235 74 214 111 q 284 22 257 38 q 340 7 311 7 m 576 -299 l 660 -319 l 660 -333 l 382 -333 l 382 -319 l 465 -299 l 465 49 q 432 14 453 29 q 386 -10 414 0 q 319 -21 358 -21 q 224 2 269 -21 q 142 69 178 25 q 84 176 106 113 q 63 319 63 239 q 84 463 63 400 q 140 570 106 526 q 217 637 174 614 q 306 660 261 660 q 377 643 347 660 q 426 607 407 626 q 465 556 450 583 l 465 639 l 660 639 l 660 625 l 576 604 l 576 -299 z "},"r":{"ha":500,"x_min":49,"x_max":493,"o":"m 243 35 l 326 14 l 326 0 l 49 0 l 49 14 l 132 35 l 132 604 l 49 625 l 49 639 l 243 639 l 243 472 q 286 565 261 524 q 340 631 308 601 q 417 660 372 660 q 446 658 432 660 q 471 653 460 656 q 493 646 483 649 l 451 542 q 433 551 443 546 q 413 559 425 556 q 389 563 401 563 q 325 543 353 563 q 279 500 297 524 q 243 438 257 472 l 243 35 z "},"s":{"ha":563,"x_min":56,"x_max":514,"o":"m 299 -21 q 222 -10 254 -21 q 171 14 190 0 q 132 49 147 29 q 109 10 126 28 q 76 -14 92 -8 l 56 -14 q 58 24 57 4 q 61 59 60 40 q 63 97 63 78 q 61 139 63 118 q 58 176 60 160 q 56 215 57 196 l 76 215 q 157 61 103 115 q 285 7 211 7 q 380 43 343 7 q 417 132 417 79 q 391 197 417 169 q 326 248 365 225 q 243 293 288 271 q 160 343 199 315 q 95 408 121 371 q 69 500 69 446 q 83 560 69 531 q 122 611 97 589 q 181 647 146 633 q 257 660 215 660 q 320 649 293 660 q 367 625 347 638 q 403 590 388 610 q 426 629 408 611 q 458 653 443 647 l 479 653 q 475 615 476 635 q 473 579 474 599 q 472 542 472 560 q 473 499 472 521 q 475 461 474 478 q 479 424 476 442 l 458 424 q 381 578 432 524 q 271 632 329 632 q 192 601 224 632 q 160 528 160 569 q 186 468 160 493 q 251 422 213 443 q 337 378 290 400 q 422 326 383 356 q 488 257 461 297 q 514 160 514 217 q 498 94 514 126 q 453 35 482 61 q 385 -6 425 10 q 299 -21 346 -21 z "},"t":{"ha":493,"x_min":14,"x_max":479,"o":"m 403 639 l 403 611 l 243 611 l 243 168 q 274 45 243 83 q 340 7 304 7 q 420 42 388 7 q 458 146 453 78 l 479 146 q 431 23 474 67 q 326 -21 389 -21 q 185 31 238 -21 q 132 167 132 83 l 132 611 l 14 611 l 14 639 l 132 639 l 132 799 l 243 875 l 243 639 l 403 639 z "},"u":{"ha":701,"x_min":21,"x_max":653,"o":"m 569 604 l 569 35 l 653 14 l 653 0 l 458 0 l 458 83 q 419 31 443 54 q 370 -5 400 11 q 299 -21 340 -21 q 222 -6 257 -21 q 160 37 186 10 q 119 102 133 64 q 104 188 104 140 l 104 604 l 21 625 l 21 639 l 292 639 l 292 625 l 215 604 l 215 188 q 247 48 215 89 q 319 7 278 7 q 378 26 353 7 q 422 69 404 46 q 458 132 443 96 l 458 604 l 382 625 l 382 639 l 653 639 l 653 625 l 569 604 z "},"w":{"ha":910,"x_min":-14,"x_max":931,"o":"m 299 -21 l 278 -21 l 69 604 l -14 625 l -14 639 l 264 639 l 264 625 l 188 604 l 332 169 l 486 660 l 507 660 l 685 169 l 813 590 l 722 625 l 722 639 l 931 639 l 931 625 l 840 590 l 653 -21 l 632 -21 l 453 471 l 299 -21 z "},"v":{"ha":604,"x_min":-14,"x_max":625,"o":"m 69 604 l -14 625 l -14 639 l 264 639 l 264 625 l 188 604 l 363 153 l 507 590 l 417 625 l 417 639 l 625 639 l 625 625 l 535 590 l 333 -21 l 313 -21 l 69 604 z "},"x":{"ha":590,"x_min":-14,"x_max":604,"o":"m 264 265 l 125 49 l 215 14 l 215 0 l 7 0 l 7 14 l 97 49 l 250 288 l 69 604 l -14 625 l -14 639 l 271 639 l 271 625 l 194 604 l 317 390 l 444 590 l 354 625 l 354 639 l 563 639 l 563 625 l 472 590 l 329 368 l 521 35 l 604 14 l 604 0 l 319 0 l 319 14 l 396 35 l 264 265 z "},"y":{"ha":604,"x_min":-14,"x_max":625,"o":"m 299 -118 q 256 -227 276 -183 q 212 -298 235 -271 q 165 -336 189 -325 q 111 -347 140 -347 q 96 -347 103 -347 q 82 -344 89 -346 q 69 -340 75 -343 l 49 -236 q 61 -240 54 -239 q 75 -242 68 -242 q 90 -243 82 -243 q 212 -212 174 -243 q 271 -118 250 -181 l 310 0 l 69 604 l -14 625 l -14 639 l 264 639 l 264 625 l 188 604 l 364 161 l 507 590 l 417 625 l 417 639 l 625 639 l 625 625 l 535 590 l 299 -118 z "},"z":{"ha":597,"x_min":49,"x_max":542,"o":"m 444 28 q 468 131 444 86 q 528 208 492 176 l 542 208 q 538 172 539 190 q 535 138 536 157 q 535 104 535 119 q 535 62 535 81 q 538 29 536 43 q 542 0 539 14 l 49 0 l 396 611 l 174 611 q 150 508 174 553 q 90 431 126 463 l 76 431 q 79 467 78 449 q 82 501 81 482 q 83 535 83 519 q 82 577 83 558 q 79 610 81 596 q 76 639 78 625 l 542 639 l 194 28 l 444 28 z "}," ":{"ha":333,"x_min":0,"x_max":0,"o":""},"Љ":{"ha":1035,"x_min":-14,"x_max":1007,"o":"m 646 597 q 799 574 732 597 q 913 510 867 551 q 983 415 958 469 q 1007 299 1007 361 q 985 187 1007 239 q 921 94 963 135 q 819 29 879 54 q 681 0 758 4 l 396 0 l 396 14 l 479 35 l 479 944 l 222 944 l 222 597 q 216 363 222 463 q 198 194 210 264 q 169 81 186 125 q 133 13 153 38 q 92 -19 114 -11 q 49 -28 71 -28 q 33 -27 40 -28 q 19 -25 26 -26 q 7 -21 13 -24 l -14 83 q -1 79 -8 81 q 13 77 6 78 q 28 76 19 76 q 94 94 64 76 q 147 167 125 113 q 182 325 169 222 q 194 597 194 428 l 194 931 l 104 958 l 104 972 l 681 972 l 681 958 l 597 938 l 597 597 l 646 597 m 597 28 l 646 28 q 815 92 756 28 q 875 299 875 157 q 815 505 875 440 q 646 569 756 569 l 597 569 l 597 28 z "},"Њ":{"ha":1104,"x_min":63,"x_max":1076,"o":"m 715 569 q 869 547 801 569 q 982 485 936 524 q 1052 394 1028 446 q 1076 285 1076 342 q 1052 176 1076 228 q 982 85 1028 124 q 869 23 936 46 q 715 0 801 0 l 451 0 l 451 14 l 535 35 l 535 542 l 264 542 l 264 35 l 347 14 l 347 0 l 63 0 l 63 14 l 146 35 l 146 938 l 63 958 l 63 972 l 347 972 l 347 958 l 264 938 l 264 569 l 535 569 l 535 938 l 451 958 l 451 972 l 736 972 l 736 958 l 653 938 l 653 569 l 715 569 m 653 28 l 715 28 q 885 91 825 28 q 944 285 944 154 q 885 478 944 415 q 715 542 825 542 l 653 542 l 653 28 z "},"љ":{"ha":868,"x_min":-14,"x_max":847,"o":"m 556 403 q 686 387 631 403 q 777 344 742 371 q 830 280 813 317 q 847 201 847 243 q 832 127 847 163 q 785 65 817 92 q 705 21 753 38 q 590 0 657 4 l 313 0 l 313 14 l 396 35 l 396 611 l 194 611 l 194 417 q 183 189 194 276 q 151 53 171 101 q 104 -11 131 6 q 49 -28 78 -28 q 33 -27 40 -28 q 19 -25 26 -26 q 7 -21 13 -24 l -14 76 q 0 72 -7 74 q 14 70 7 71 q 28 69 21 69 q 82 83 57 69 q 126 136 107 97 q 156 242 144 175 q 167 417 167 310 l 167 597 l 76 625 l 76 639 l 590 639 l 590 625 l 507 604 l 507 403 l 556 403 m 507 375 l 507 28 l 556 28 q 678 73 635 28 q 722 201 722 118 q 678 330 722 285 q 556 375 635 375 l 507 375 z "},"њ":{"ha":951,"x_min":49,"x_max":931,"o":"m 639 375 q 769 359 714 375 q 860 317 825 343 q 913 258 896 292 q 931 188 931 224 q 913 117 931 151 q 860 57 896 83 q 769 15 825 31 q 639 0 714 0 l 382 0 l 382 14 l 465 35 l 465 347 l 243 347 l 243 35 l 319 14 l 319 0 l 49 0 l 49 14 l 132 35 l 132 604 l 49 625 l 49 639 l 319 639 l 319 625 l 243 604 l 243 375 l 465 375 l 465 604 l 382 625 l 382 639 l 660 639 l 660 625 l 576 604 l 576 375 l 639 375 m 576 347 l 576 28 l 639 28 q 762 71 718 28 q 806 188 806 114 q 762 304 806 261 q 639 347 718 347 l 576 347 z "},"Ђ":{"ha":806,"x_min":14,"x_max":750,"o":"m 632 354 q 594 498 632 454 q 493 542 556 542 q 438 534 464 542 q 392 517 411 526 q 347 493 368 506 l 347 35 l 431 14 l 431 0 l 146 0 l 146 14 l 229 35 l 229 944 l 111 944 q 88 836 111 886 q 28 750 64 786 l 14 750 q 17 788 15 768 q 19 823 18 804 q 21 861 21 842 q 19 908 21 888 q 17 943 18 928 q 14 972 15 960 l 563 972 q 558 943 560 960 q 556 908 557 928 q 556 861 556 888 q 556 823 556 842 q 558 788 557 804 q 563 750 560 768 l 549 750 q 489 836 513 786 q 465 944 465 886 l 347 944 l 347 521 q 393 544 368 533 q 444 562 415 554 q 507 569 472 569 q 689 512 628 569 q 750 354 750 454 l 750 83 q 692 -68 750 -11 q 529 -125 633 -125 l 529 -104 q 568 -94 550 -104 q 601 -62 586 -85 q 624 -5 615 -40 q 632 83 632 31 l 632 354 z "},"ђ":{"ha":688,"x_min":49,"x_max":597,"o":"m 486 396 q 455 535 486 494 q 382 576 424 576 q 322 557 347 576 q 279 514 297 538 q 243 451 258 486 l 243 35 l 319 14 l 319 0 l 49 0 l 49 14 l 132 35 l 132 736 l 49 757 l 49 778 l 132 778 l 132 938 l 49 958 l 49 972 l 243 972 l 243 778 l 438 778 l 438 757 l 243 736 l 243 500 q 281 551 257 528 q 331 588 300 571 q 403 604 361 604 q 480 589 444 604 q 542 547 515 574 q 583 481 568 519 q 597 396 597 443 l 597 83 q 540 -68 597 -11 q 383 -125 482 -125 l 383 -104 q 422 -94 404 -104 q 455 -62 440 -85 q 478 -5 469 -40 q 486 83 486 31 l 486 396 z "},"Ћ":{"ha":861,"x_min":14,"x_max":833,"o":"m 347 521 q 393 544 368 533 q 444 562 415 554 q 507 569 472 569 q 689 512 628 569 q 750 354 750 454 l 750 35 l 833 14 l 833 0 l 549 0 l 549 14 l 632 35 l 632 354 q 594 498 632 454 q 493 542 556 542 q 438 534 464 542 q 392 517 411 526 q 347 493 368 506 l 347 35 l 431 14 l 431 0 l 146 0 l 146 14 l 229 35 l 229 944 l 111 944 q 88 836 111 886 q 28 750 64 786 l 14 750 q 17 788 15 768 q 19 823 18 804 q 21 861 21 842 q 19 908 21 888 q 17 943 18 928 q 14 972 15 960 l 563 972 q 558 943 560 960 q 556 908 557 928 q 556 861 556 888 q 556 823 556 842 q 558 788 557 804 q 563 750 560 768 l 549 750 q 489 836 513 786 q 465 944 465 886 l 347 944 l 347 521 z "},"ћ":{"ha":715,"x_min":49,"x_max":681,"o":"m 243 500 q 281 551 257 528 q 331 588 300 571 q 403 604 361 604 q 480 589 444 604 q 542 547 515 574 q 583 481 568 519 q 597 396 597 443 l 597 35 l 681 14 l 681 0 l 410 0 l 410 14 l 486 35 l 486 396 q 455 535 486 494 q 382 576 424 576 q 322 557 347 576 q 279 514 297 538 q 243 451 258 486 l 243 35 l 319 14 l 319 0 l 49 0 l 49 14 l 132 35 l 132 736 l 49 757 l 49 778 l 132 778 l 132 938 l 49 958 l 49 972 l 243 972 l 243 778 l 438 778 l 438 757 l 243 736 l 243 500 z "},"Џ":{"ha":813,"x_min":63,"x_max":750,"o":"m 63 0 l 63 14 l 146 35 l 146 938 l 63 958 l 63 972 l 347 972 l 347 958 l 264 938 l 264 28 l 549 28 l 549 938 l 465 958 l 465 972 l 750 972 l 750 958 l 667 938 l 667 35 l 750 14 l 750 0 l 465 0 l 431 -215 l 382 -215 l 347 0 l 63 0 z "},"џ":{"ha":722,"x_min":49,"x_max":674,"o":"m 49 14 l 132 35 l 132 604 l 49 625 l 49 639 l 319 639 l 319 625 l 243 604 l 243 28 l 479 28 l 479 604 l 403 625 l 403 639 l 674 639 l 674 625 l 590 604 l 590 35 l 674 14 l 674 0 l 417 0 l 382 -201 l 340 -201 l 306 0 l 49 0 l 49 14 z "},"€":{"ha":736,"x_min":0,"x_max":708,"o":"m 21 556 l 114 556 q 153 747 122 665 q 228 884 183 829 q 327 966 272 939 q 438 993 382 993 q 498 982 471 993 q 544 957 525 971 q 583 922 567 942 q 613 962 594 943 q 653 986 632 981 l 674 986 q 669 944 671 965 q 667 903 668 925 q 667 861 667 882 q 667 815 667 838 q 669 772 668 792 q 674 729 671 750 l 653 729 q 567 905 621 844 q 451 965 514 965 q 380 946 415 965 q 316 880 344 926 q 268 754 288 833 q 244 556 249 675 l 507 556 l 501 528 l 243 528 l 243 444 l 493 444 l 488 417 l 244 417 q 268 218 249 297 q 317 92 288 139 q 385 26 347 44 q 465 7 424 7 q 539 26 501 7 q 608 81 576 46 q 660 163 639 115 q 688 264 682 210 l 708 264 q 681 149 703 201 q 624 59 658 97 q 546 0 590 21 q 451 -21 501 -21 q 333 6 390 -21 q 230 88 276 33 q 153 224 183 142 q 114 417 122 306 l 0 417 l 7 444 l 111 444 l 111 528 l 14 528 l 21 556 z "},"ð":{"ha":646,"x_min":56,"x_max":583,"o":"m 313 660 q 377 648 349 660 q 425 621 406 636 q 465 583 449 604 q 431 703 458 647 q 358 808 403 760 l 271 715 l 243 743 l 331 836 q 267 889 301 864 q 194 938 233 914 l 208 958 q 290 918 251 939 q 365 872 329 897 l 451 965 l 479 938 l 396 849 q 534 667 485 776 q 583 389 583 557 l 583 319 q 562 176 583 239 q 503 69 540 113 q 419 2 467 25 q 319 -21 371 -21 q 219 2 267 -21 q 135 69 172 25 q 77 176 99 113 q 56 319 56 239 q 77 463 56 400 q 135 570 99 526 q 217 637 171 614 q 313 660 263 660 m 458 319 q 445 472 458 411 q 411 570 432 533 q 365 623 390 607 q 313 639 339 639 q 269 623 292 639 q 226 570 246 607 q 193 472 206 533 q 181 319 181 411 q 194 167 181 228 q 227 69 207 106 q 272 16 247 32 q 319 0 296 0 q 367 16 343 0 q 412 69 392 32 q 445 167 432 106 q 458 319 458 228 z "},"÷":{"ha":611,"x_min":42,"x_max":569,"o":"m 569 444 l 569 389 l 42 389 l 42 444 l 569 444 m 228 201 q 250 256 228 233 q 304 278 272 278 q 358 256 336 278 q 381 201 381 233 q 358 147 381 169 q 304 125 336 125 q 250 147 272 125 q 228 201 228 169 m 228 632 q 250 686 228 664 q 304 708 272 708 q 358 686 336 708 q 381 632 381 664 q 358 578 381 600 q 304 556 336 556 q 250 578 272 556 q 228 632 228 600 z "},"¶":{"ha":654,"x_min":42,"x_max":626,"o":"m 42 660 q 66 782 42 725 q 132 881 90 839 q 229 948 174 924 q 347 972 285 972 l 626 972 l 626 944 l 528 944 l 528 -333 l 479 -333 l 479 944 l 396 944 l 396 -333 l 347 -333 l 347 347 q 229 372 285 347 q 132 438 174 396 q 66 538 90 481 q 42 660 42 594 z "},"µ":{"ha":722,"x_min":42,"x_max":674,"o":"m 42 625 l 42 639 l 313 639 l 313 625 l 236 604 l 236 188 q 267 48 236 89 q 340 7 299 7 q 399 26 374 7 q 443 69 425 46 q 479 132 464 96 l 479 604 l 403 625 l 403 639 l 674 639 l 674 625 l 590 604 l 590 35 l 674 14 l 674 0 l 479 0 l 479 83 q 449 31 468 54 q 406 -5 432 11 q 340 -21 379 -21 q 298 -14 317 -21 q 265 3 279 -7 q 236 28 250 14 l 236 -125 q 187 -271 236 -219 q 50 -333 138 -322 l 50 -312 q 78 -297 65 -307 q 102 -265 92 -286 q 119 -211 113 -244 q 125 -125 125 -178 l 125 604 l 42 625 z "},"‡":{"ha":611,"x_min":28,"x_max":583,"o":"m 285 632 q 194 624 235 632 q 124 604 153 615 q 63 576 89 592 l 28 653 l 63 729 q 124 701 89 714 q 194 682 153 690 q 285 674 235 674 q 276 799 285 744 q 257 893 268 854 q 229 972 244 939 l 306 1007 l 382 972 q 354 893 367 939 q 335 799 343 854 q 326 674 326 744 q 417 682 375 674 q 488 701 458 690 q 549 729 522 714 l 583 653 l 549 576 q 488 604 522 592 q 417 624 458 615 q 326 632 375 632 l 326 340 q 417 349 375 340 q 488 368 458 357 q 549 396 522 381 l 583 319 l 549 243 q 488 271 522 258 q 417 290 458 282 q 326 299 375 299 q 335 173 326 228 q 354 79 343 118 q 382 0 367 33 l 306 -35 l 229 0 q 257 79 244 33 q 276 173 268 118 q 285 299 285 228 q 194 290 235 299 q 124 271 153 282 q 63 243 89 258 l 28 319 l 63 396 q 124 368 89 381 q 194 349 153 357 q 285 340 235 340 l 285 632 z "},"#":{"ha":792,"x_min":0,"x_max":792,"o":"m 276 694 l 347 972 l 417 972 l 344 694 l 554 694 l 625 972 l 694 972 l 622 694 l 792 694 l 771 625 l 604 625 l 533 347 l 701 347 l 681 278 l 515 278 l 444 0 l 375 0 l 446 278 l 238 278 l 167 0 l 97 0 l 168 278 l 0 278 l 21 347 l 186 347 l 258 625 l 90 625 l 111 694 l 276 694 m 256 347 l 464 347 l 536 625 l 326 625 l 256 347 z "},"$":{"ha":653,"x_min":49,"x_max":604,"o":"m 271 -14 q 212 3 236 -7 q 171 24 188 13 q 139 49 151 36 q 109 10 128 28 q 69 -14 90 -8 l 49 -14 q 51 28 50 6 q 54 68 53 46 q 56 111 56 90 q 54 158 56 135 q 51 200 53 181 q 49 243 50 222 l 69 243 q 144 85 96 143 q 271 11 192 26 l 271 460 q 193 514 231 485 q 126 579 156 543 q 80 660 97 615 q 63 764 63 706 q 78 846 63 807 q 122 915 94 885 q 188 966 150 946 q 271 992 226 986 l 271 1069 l 299 1069 l 299 993 q 354 986 326 993 l 354 1069 l 382 1069 l 382 979 q 421 961 404 971 q 449 943 438 951 q 472 924 463 933 q 502 963 483 944 q 542 986 521 981 l 563 986 q 558 944 560 965 q 556 903 557 925 q 556 861 556 882 q 556 815 556 838 q 558 772 557 792 q 563 729 560 750 l 542 729 q 382 953 490 910 l 382 549 q 463 493 424 522 q 534 427 503 464 q 585 343 565 390 q 604 236 604 296 q 588 143 604 186 q 542 67 571 100 q 472 11 513 33 q 382 -18 431 -11 l 382 -97 l 354 -97 l 354 -21 l 340 -21 q 319 -20 329 -21 q 299 -18 308 -19 l 299 -97 l 271 -97 l 271 -14 m 514 208 q 476 313 514 269 q 382 392 438 356 l 382 14 q 478 80 443 29 q 514 208 514 131 m 153 792 q 186 693 153 733 q 271 617 219 653 l 271 960 q 185 902 218 946 q 153 792 153 858 m 299 443 l 299 8 q 313 7 306 7 q 326 7 319 7 q 340 7 333 7 q 354 8 347 7 l 354 410 l 299 443 m 313 965 q 299 964 303 965 l 299 599 l 354 565 l 354 961 q 313 965 333 965 z "},"^":{"ha":569,"x_min":14,"x_max":556,"o":"m 556 625 l 479 625 l 285 896 l 90 625 l 14 625 l 285 1000 l 556 625 z "},"¢":{"ha":597,"x_min":63,"x_max":556,"o":"m 319 -21 q 220 6 267 -18 q 138 74 174 31 q 83 180 103 118 q 63 319 63 242 q 84 463 63 400 q 142 570 106 526 q 224 637 178 614 q 319 660 269 660 l 319 736 l 347 736 l 347 657 q 394 642 375 653 q 429 619 414 631 q 458 590 444 606 q 481 629 464 611 q 514 653 499 647 l 535 653 q 531 615 532 635 q 528 579 529 599 q 528 542 528 560 q 528 499 528 521 q 531 461 529 478 q 535 424 532 442 l 514 424 q 442 570 489 517 q 347 631 396 624 l 347 7 q 415 21 383 7 q 472 58 447 35 q 513 115 497 82 q 535 188 529 149 l 556 188 q 533 108 550 144 q 488 44 515 71 q 425 0 461 17 q 347 -19 389 -17 l 347 -97 l 319 -97 l 319 -21 m 188 319 q 198 185 188 240 q 226 92 208 129 q 268 35 244 54 q 319 10 292 15 l 319 631 q 271 608 294 626 q 228 554 247 590 q 199 460 210 518 q 188 319 188 403 z "},"ˆ":{"ha":349,"x_min":15,"x_max":335,"o":"m 50 792 l 15 792 l 175 972 l 335 792 l 300 792 l 175 875 l 50 792 z "},"`":{"ha":208,"x_min":14,"x_max":194,"o":"m 194 806 l 153 806 l 14 972 l 139 972 l 194 806 z "},"£":{"ha":708,"x_min":56,"x_max":653,"o":"m 271 333 q 250 213 271 260 q 204 139 229 167 q 139 90 175 107 l 604 90 l 632 222 l 653 222 l 653 0 l 56 0 l 56 63 q 104 131 82 90 q 138 215 122 164 q 153 333 153 265 l 153 514 l 69 514 l 69 542 l 153 542 l 153 722 q 219 923 153 853 q 396 993 286 993 q 493 977 450 993 q 565 935 536 961 q 610 873 594 908 q 625 799 625 838 q 623 771 625 783 q 618 751 621 758 q 611 736 614 742 l 493 764 l 500 785 q 505 805 503 794 q 507 826 507 815 q 475 936 507 900 q 396 972 443 972 q 353 958 375 972 q 313 915 331 944 q 283 838 294 885 q 271 722 271 790 l 271 542 l 507 542 l 507 514 l 271 514 l 271 333 z "},"¥":{"ha":681,"x_min":-7,"x_max":708,"o":"m 125 410 l 281 410 l 76 938 l -7 958 l -7 972 l 285 972 l 285 958 l 201 938 l 399 431 l 590 924 l 500 958 l 500 972 l 708 972 l 708 958 l 618 924 l 418 410 l 576 410 l 576 382 l 410 382 l 410 319 l 576 319 l 576 292 l 410 292 l 410 35 l 493 14 l 493 0 l 208 0 l 208 14 l 292 35 l 292 292 l 125 292 l 125 319 l 292 319 l 292 382 l 125 382 l 125 410 z "},"®":{"ha":1097,"x_min":28,"x_max":1069,"o":"m 1069 486 q 1028 281 1069 376 q 915 113 986 185 q 750 0 844 42 q 549 -42 656 -42 q 347 0 442 -42 q 182 113 253 42 q 69 281 111 185 q 28 486 28 376 q 69 692 28 596 q 182 859 111 788 q 347 972 253 931 q 549 1014 442 1014 q 750 972 656 1014 q 915 859 844 931 q 1028 692 986 788 q 1069 486 1069 596 m 1021 486 q 983 676 1021 588 q 881 831 946 765 q 731 934 817 896 q 549 972 644 972 q 367 934 453 972 q 216 831 281 896 q 114 676 151 765 q 76 486 76 588 q 114 296 76 385 q 216 142 151 207 q 367 38 281 76 q 549 0 453 0 q 731 38 644 0 q 881 142 817 76 q 983 296 946 207 q 1021 486 1021 385 m 472 458 l 472 215 l 549 194 l 549 181 l 285 181 l 285 194 l 361 215 l 361 757 l 285 778 l 285 792 l 514 792 q 639 777 586 792 q 726 740 692 763 q 776 686 760 717 q 792 625 792 656 q 760 542 792 572 q 690 496 728 511 q 590 472 646 478 q 667 451 632 467 q 723 413 696 438 q 757 347 750 389 l 772 257 q 785 219 776 231 q 806 208 794 208 q 819 213 813 208 q 831 222 826 217 q 840 236 836 228 l 854 222 q 832 194 846 207 q 802 175 821 183 q 757 167 783 167 q 685 191 710 167 q 653 257 660 215 l 638 347 q 601 429 629 400 q 514 458 572 458 l 472 458 m 514 486 q 627 524 588 486 q 667 625 667 563 q 627 726 667 688 q 514 764 588 764 l 472 764 l 472 486 l 514 486 z "},"©":{"ha":1097,"x_min":28,"x_max":1069,"o":"m 1069 486 q 1028 281 1069 376 q 915 113 986 185 q 750 0 844 42 q 549 -42 656 -42 q 347 0 442 -42 q 182 113 253 42 q 69 281 111 185 q 28 486 28 376 q 69 692 28 596 q 182 859 111 788 q 347 972 253 931 q 549 1014 442 1014 q 750 972 656 1014 q 915 859 844 931 q 1028 692 986 788 q 1069 486 1069 596 m 1021 486 q 983 676 1021 588 q 881 831 946 765 q 731 934 817 896 q 549 972 644 972 q 367 934 453 972 q 216 831 281 896 q 114 676 151 765 q 76 486 76 588 q 114 296 76 385 q 216 142 151 207 q 367 38 281 76 q 549 0 453 0 q 731 38 644 0 q 881 142 817 76 q 983 296 946 207 q 1021 486 1021 385 m 563 778 q 515 763 539 778 q 470 713 490 747 q 437 622 450 678 q 424 486 424 567 q 437 350 424 406 q 472 260 450 294 q 520 210 493 225 q 576 194 547 194 q 640 208 610 194 q 695 244 671 221 q 735 300 719 268 q 757 368 751 332 l 778 368 q 753 290 772 326 q 706 226 735 253 q 641 183 678 199 q 563 167 604 167 q 463 189 510 167 q 378 253 415 211 q 320 353 342 294 q 299 486 299 413 q 320 617 299 558 q 377 718 342 676 q 457 783 413 760 q 549 806 501 806 q 608 794 582 806 q 651 771 633 783 q 688 736 672 756 q 710 775 693 757 q 743 799 728 793 l 764 799 q 760 761 761 781 q 758 725 758 744 q 757 688 757 706 q 758 649 757 668 q 760 614 758 631 q 764 576 761 594 l 743 576 q 666 724 717 671 q 563 778 615 778 z "},"†":{"ha":614,"x_min":28,"x_max":586,"o":"m 383 972 q 356 890 368 938 q 336 788 344 850 q 328 646 328 726 q 418 654 376 646 q 489 674 460 663 q 550 701 524 686 l 586 625 l 550 549 q 489 576 524 564 q 418 596 460 588 q 328 604 376 604 q 338 352 328 460 q 360 169 347 244 q 392 21 374 83 l 307 -35 l 224 21 q 254 169 240 83 q 276 352 265 244 q 286 604 286 460 q 195 596 236 604 q 125 576 154 588 q 64 549 90 564 l 28 625 l 64 701 q 125 674 90 686 q 195 654 154 663 q 286 646 236 646 q 278 788 286 726 q 258 890 269 850 q 231 972 246 938 l 307 1007 l 383 972 z "},"!":{"ha":333,"x_min":83,"x_max":250,"o":"m 167 993 q 226 968 203 993 q 250 896 250 943 l 188 222 l 146 222 l 83 896 q 107 968 83 943 q 167 993 131 993 m 90 63 q 113 117 90 94 q 167 139 135 139 q 221 117 199 139 q 243 63 243 94 q 221 8 243 31 q 167 -14 199 -14 q 113 8 135 -14 q 90 63 90 31 z "},"?":{"ha":639,"x_min":28,"x_max":597,"o":"m 222 63 q 244 117 222 94 q 299 139 267 139 q 353 117 331 139 q 375 63 375 94 q 353 8 375 31 q 299 -14 331 -14 q 244 8 267 -14 q 222 63 222 31 m 597 694 q 577 583 597 635 q 523 492 557 532 q 445 426 489 453 q 354 389 401 399 l 319 215 l 278 215 q 269 288 275 251 q 257 353 265 318 q 236 417 249 388 q 408 480 351 417 q 465 694 465 543 q 451 822 465 769 q 413 908 438 875 q 351 957 388 942 q 271 972 315 972 q 188 956 226 972 q 119 910 149 939 q 73 846 90 882 q 56 771 56 810 q 84 711 56 735 q 181 688 113 688 l 208 576 q 196 572 203 574 q 181 570 189 571 q 167 569 174 569 q 68 616 108 569 q 28 757 28 663 q 47 851 28 807 q 101 928 67 894 q 183 981 136 961 q 285 1000 231 1000 q 413 978 356 1000 q 512 915 471 956 q 575 819 553 875 q 597 694 597 763 z "},"{":{"ha":396,"x_min":28,"x_max":368,"o":"m 28 417 q 80 431 57 419 q 119 469 103 443 q 144 538 135 494 q 153 646 153 581 l 153 847 q 210 1035 153 974 q 368 1097 268 1097 l 368 1069 q 331 1061 347 1069 q 302 1028 314 1053 q 284 961 290 1004 q 278 847 278 918 l 278 646 q 249 511 278 560 q 188 439 221 463 q 97 403 147 411 q 188 367 147 394 q 249 294 221 343 q 278 160 278 244 l 278 -42 q 284 -156 278 -112 q 302 -223 290 -199 q 331 -256 314 -247 q 368 -264 347 -264 l 368 -292 q 210 -230 268 -292 q 153 -42 153 -168 l 153 160 q 144 268 153 225 q 119 337 135 311 q 80 374 103 363 q 28 389 57 386 l 28 417 z "},"}":{"ha":396,"x_min":28,"x_max":368,"o":"m 368 389 q 316 374 339 386 q 277 337 293 363 q 252 268 261 311 q 243 160 243 225 l 243 -42 q 185 -230 243 -168 q 28 -292 128 -292 l 28 -264 q 65 -256 49 -264 q 94 -223 82 -247 q 112 -156 106 -199 q 118 -42 118 -112 l 118 160 q 146 294 118 244 q 208 367 174 343 q 299 403 247 394 q 208 439 247 411 q 146 511 174 463 q 118 646 118 560 l 118 847 q 112 961 118 918 q 94 1028 106 1004 q 65 1061 82 1053 q 28 1069 49 1069 l 28 1097 q 185 1035 128 1097 q 243 847 243 974 l 243 646 q 252 538 243 581 q 277 469 261 494 q 316 431 293 443 q 368 417 339 419 l 368 389 l 368 389 z "},"(":{"ha":382,"x_min":83,"x_max":368,"o":"m 83 403 q 95 569 83 492 q 126 715 107 647 q 169 838 144 782 q 218 940 193 894 q 354 1125 278 1047 l 368 1111 q 288 939 324 1042 q 233 719 257 851 q 208 403 208 586 q 233 87 208 219 q 288 -133 257 -46 q 368 -306 324 -236 l 354 -319 q 218 -136 278 -243 q 169 -34 193 -90 q 126 90 144 22 q 95 236 107 158 q 83 403 83 314 z "},")":{"ha":382,"x_min":14,"x_max":299,"o":"m 299 403 q 287 236 299 314 q 256 90 275 158 q 213 -34 238 22 q 163 -136 188 -90 q 28 -319 103 -243 l 14 -306 q 93 -133 57 -236 q 149 87 124 -46 q 174 403 174 219 q 149 719 174 586 q 93 939 124 851 q 14 1111 57 1042 l 28 1125 q 163 940 103 1047 q 213 838 188 894 q 256 715 238 782 q 287 569 275 647 q 299 403 299 492 z "},"[":{"ha":361,"x_min":104,"x_max":361,"o":"m 104 -278 l 104 1083 l 361 1083 l 361 1056 l 222 1056 l 222 -250 l 361 -250 l 361 -278 l 104 -278 z "},"]":{"ha":361,"x_min":0,"x_max":257,"o":"m 0 -278 l 0 -250 l 139 -250 l 139 1056 l 0 1056 l 0 1083 l 257 1083 l 257 -278 l 0 -278 z "},"@":{"ha":1153,"x_min":42,"x_max":1111,"o":"m 660 431 q 531 387 576 431 q 486 264 486 343 q 504 189 486 211 q 549 167 522 167 q 592 184 572 167 q 628 222 613 201 q 660 278 644 247 l 660 431 m 604 -76 q 725 -59 669 -76 q 821 -21 781 -42 q 908 35 868 4 l 924 14 q 832 -49 883 -22 q 726 -92 788 -72 q 590 -111 665 -111 q 367 -72 468 -111 q 193 39 265 -32 q 81 208 121 110 q 42 424 42 307 q 81 639 42 540 q 192 808 121 738 q 361 919 263 879 q 576 958 460 958 q 792 919 693 958 q 961 813 890 881 q 1072 656 1032 746 q 1111 465 1111 567 q 1090 330 1111 390 q 1031 227 1068 269 q 947 162 994 185 q 847 139 899 139 q 753 153 789 139 q 696 183 717 167 q 660 229 671 203 q 625 183 644 203 q 584 153 608 167 q 528 139 560 139 q 405 179 449 139 q 361 278 361 219 q 378 344 361 311 q 432 402 396 376 q 525 443 468 428 q 660 458 582 458 l 660 521 q 634 639 660 604 q 576 674 608 674 q 528 649 550 674 q 507 576 507 624 q 511 551 507 560 q 515 542 513 546 l 403 514 q 399 524 400 518 q 396 549 396 535 q 442 653 396 611 q 576 694 488 694 q 657 681 621 694 q 718 644 693 668 q 757 589 743 621 q 771 521 771 557 l 771 278 q 793 188 771 215 q 847 160 815 160 q 903 175 876 160 q 952 226 931 190 q 987 321 974 263 q 1000 465 1000 379 q 966 652 1000 567 q 874 799 932 738 q 740 896 817 861 q 576 931 663 931 q 413 895 490 931 q 278 794 336 860 q 187 635 221 729 q 153 424 153 540 q 188 216 153 308 q 283 59 222 124 q 426 -41 343 -6 q 604 -76 508 -76 z "},"&":{"ha":736,"x_min":49,"x_max":743,"o":"m 382 7 q 517 59 465 7 q 569 194 569 111 q 529 317 569 274 q 431 361 489 361 q 374 353 396 361 q 338 333 351 344 q 313 306 322 321 l 299 313 q 321 382 306 351 q 360 430 335 408 q 431 451 386 451 q 485 445 460 451 q 535 431 510 439 q 588 416 561 422 q 646 410 614 410 q 682 418 667 410 q 708 438 697 426 q 729 465 721 450 l 743 465 q 715 392 738 418 q 668 356 693 367 q 604 340 639 342 q 625 313 615 329 q 639 276 632 297 q 646 222 646 254 q 625 131 646 175 q 567 53 604 88 q 478 -1 529 19 q 368 -21 428 -21 q 235 1 294 -21 q 135 62 176 24 q 71 152 93 100 q 49 264 49 204 q 60 349 49 311 q 89 415 71 386 q 130 464 107 443 q 176 499 153 485 q 306 542 232 532 q 194 578 243 551 q 153 606 174 589 q 118 644 133 622 q 93 697 103 667 q 83 764 83 726 q 101 856 83 814 q 153 928 119 897 q 235 976 186 958 q 347 993 285 993 q 453 977 407 993 q 532 935 500 961 q 581 873 564 908 q 597 799 597 838 q 595 771 597 783 q 590 751 593 758 q 583 736 586 742 l 465 764 l 472 785 q 477 805 475 794 q 479 826 479 815 q 444 936 479 900 q 347 972 410 972 q 292 959 318 972 q 245 920 265 946 q 213 855 225 894 q 201 764 201 815 q 247 605 201 654 q 375 556 292 556 l 403 556 l 403 528 l 375 528 q 233 466 286 528 q 181 264 181 404 q 234 67 181 128 q 382 7 288 7 z "},"<":{"ha":500,"x_min":28,"x_max":458,"o":"m 118 319 l 458 63 l 458 -7 l 28 319 l 458 646 l 458 576 l 118 319 z "},">":{"ha":500,"x_min":42,"x_max":472,"o":"m 42 576 l 42 646 l 472 319 l 42 -7 l 42 63 l 382 319 l 42 576 z "},"№":{"ha":1215,"x_min":56,"x_max":1188,"o":"m 639 924 l 549 958 l 549 972 l 757 972 l 757 958 l 667 924 l 667 -14 l 646 -14 l 174 854 l 174 49 l 264 14 l 264 0 l 56 0 l 56 14 l 146 49 l 146 931 l 56 958 l 56 972 l 243 972 l 639 243 l 639 924 m 993 965 q 958 956 975 965 q 929 924 942 947 q 910 863 917 901 q 903 764 903 824 q 910 665 903 704 q 929 603 917 626 q 958 572 942 581 q 993 563 975 563 q 1028 572 1011 563 q 1057 603 1044 581 q 1076 665 1069 626 q 1083 764 1083 704 q 1076 863 1083 824 q 1057 924 1069 901 q 1028 956 1044 947 q 993 965 1011 965 m 993 986 q 1067 970 1032 986 q 1129 925 1103 954 q 1172 855 1156 896 q 1188 764 1188 814 q 1172 673 1188 714 q 1129 603 1156 632 q 1067 558 1103 574 q 993 542 1032 542 q 919 558 954 542 q 857 603 883 574 q 815 673 831 632 q 799 764 799 714 q 815 855 799 814 q 857 925 831 896 q 919 970 883 954 q 993 986 954 986 m 1160 472 l 1160 431 l 826 431 l 826 472 l 1160 472 z "},"~":{"ha":521,"x_min":14,"x_max":507,"o":"m 403 486 q 486 563 464 486 l 507 563 q 459 435 496 474 q 375 396 422 396 q 307 408 342 396 q 239 434 272 419 q 175 460 206 449 q 118 472 144 472 q 35 396 57 472 l 14 396 q 62 524 25 485 q 146 563 99 563 q 214 551 179 563 q 282 524 249 539 q 346 498 315 510 q 403 486 376 486 z "},"«":{"ha":472,"x_min":14,"x_max":444,"o":"m 444 125 l 417 125 l 222 319 l 417 514 l 444 514 l 340 319 l 444 125 m 271 556 l 299 556 l 139 319 l 299 83 l 271 83 l 14 319 l 271 556 z "},"»":{"ha":472,"x_min":28,"x_max":458,"o":"m 132 319 l 28 514 l 56 514 l 250 319 l 56 125 l 28 125 l 132 319 m 458 319 l 201 83 l 174 83 l 333 319 l 174 556 l 201 556 l 458 319 z "},"%":{"ha":861,"x_min":28,"x_max":833,"o":"m 715 972 l 778 972 l 146 0 l 83 0 l 715 972 m 222 965 q 188 956 204 965 q 158 924 171 947 q 139 863 146 901 q 132 764 132 824 q 139 665 132 704 q 158 603 146 626 q 188 572 171 581 q 222 563 204 563 q 257 572 240 563 q 286 603 274 581 q 306 665 299 626 q 313 764 313 704 q 306 863 313 824 q 286 924 299 901 q 257 956 274 947 q 222 965 240 965 m 222 986 q 297 970 261 986 q 358 925 332 954 q 401 855 385 896 q 417 764 417 814 q 401 673 417 714 q 358 603 385 632 q 297 558 332 574 q 222 542 261 542 q 148 558 183 542 q 86 603 113 574 q 44 673 60 632 q 28 764 28 714 q 44 855 28 814 q 86 925 60 896 q 148 970 113 954 q 222 986 183 986 m 639 410 q 604 401 621 410 q 575 369 588 392 q 556 307 563 346 q 549 208 549 268 q 556 110 549 149 q 575 48 563 71 q 604 16 588 25 q 639 7 621 7 q 674 16 657 7 q 703 48 690 25 q 722 110 715 71 q 729 208 729 149 q 722 307 729 268 q 703 369 715 346 q 674 401 690 392 q 639 410 657 410 m 639 431 q 713 415 678 431 q 775 369 749 399 q 817 299 801 340 q 833 208 833 258 q 817 117 833 158 q 775 47 801 76 q 713 2 749 18 q 639 -14 678 -14 q 565 2 600 -14 q 503 47 529 18 q 460 117 476 76 q 444 208 444 158 q 460 299 444 258 q 503 369 476 340 q 565 415 529 399 q 639 431 600 431 z "},"ß":{"ha":785,"x_min":42,"x_max":757,"o":"m 382 528 q 395 596 382 564 q 424 659 408 628 q 452 723 439 690 q 465 792 465 756 q 431 928 465 885 q 354 972 396 972 q 272 929 307 972 q 236 792 236 886 l 236 35 l 306 14 l 306 0 l 42 0 l 42 14 l 125 35 l 125 597 l 42 618 l 42 639 l 125 639 l 125 792 q 141 870 125 833 q 188 934 157 907 q 260 977 218 961 q 354 993 301 993 q 441 977 401 993 q 509 934 481 961 q 553 870 538 907 q 569 792 569 833 q 554 724 569 756 q 521 663 539 692 q 488 608 503 635 q 472 556 472 582 q 493 489 472 517 q 546 436 514 461 q 615 386 578 411 q 683 330 651 361 q 736 258 715 299 q 757 160 757 217 q 743 88 757 121 q 705 31 729 54 q 646 -7 681 7 q 569 -21 611 -21 q 510 -10 535 -21 q 467 14 485 0 q 431 49 446 29 q 408 10 425 28 q 375 -14 390 -8 l 354 -14 q 357 24 356 4 q 360 59 358 40 q 361 97 361 78 q 360 139 361 118 q 357 176 358 160 q 354 215 356 196 l 375 215 q 452 61 401 115 q 556 7 503 7 q 631 38 603 7 q 660 132 660 69 q 639 204 660 174 q 588 261 618 235 q 521 312 557 288 q 454 367 485 336 q 403 435 424 397 q 382 528 382 474 z "},"½":{"ha":792,"x_min":42,"x_max":736,"o":"m 56 938 l 56 954 l 215 986 l 215 583 l 271 569 l 271 556 l 63 556 l 63 569 l 118 585 l 118 938 l 56 938 m 674 972 l 736 972 l 104 0 l 42 0 l 674 972 m 554 417 q 519 410 536 417 q 490 391 503 403 q 470 364 478 379 q 463 333 463 349 q 477 305 463 318 q 518 292 492 292 l 532 236 q 524 232 529 233 q 504 229 513 229 q 456 253 478 229 q 435 313 435 276 q 473 401 435 365 q 569 438 511 438 q 694 401 653 438 q 735 311 735 364 q 700 217 735 263 q 624 135 665 171 q 513 56 575 93 l 708 56 l 722 125 l 736 125 l 736 0 l 415 0 q 522 108 475 53 q 563 159 543 132 q 597 214 582 186 q 622 270 613 242 q 631 326 631 299 q 608 392 631 368 q 554 417 586 417 z "},"¼":{"ha":771,"x_min":42,"x_max":743,"o":"m 646 417 l 646 139 q 713 146 682 139 q 743 153 728 149 l 743 139 q 713 121 728 128 q 682 109 699 114 q 646 104 665 104 l 646 28 l 701 14 l 701 0 l 493 0 l 493 14 l 549 28 l 549 104 l 326 104 q 389 168 360 135 q 445 240 418 201 q 497 321 472 278 q 549 417 522 364 l 646 417 m 549 368 q 514 301 533 335 q 474 238 494 268 q 433 183 454 208 q 394 139 413 157 l 549 139 l 549 368 m 56 938 l 56 954 l 215 986 l 215 583 l 271 569 l 271 556 l 63 556 l 63 569 l 118 585 l 118 938 l 56 938 m 674 972 l 736 972 l 104 0 l 42 0 l 674 972 z "},"¾":{"ha":799,"x_min":28,"x_max":771,"o":"m 674 417 l 674 139 q 740 146 710 139 q 771 153 756 149 l 771 139 q 740 121 756 128 q 710 109 726 114 q 674 104 693 104 l 674 28 l 729 14 l 729 0 l 521 0 l 521 14 l 576 28 l 576 104 l 354 104 q 417 168 388 135 q 473 240 446 201 q 525 321 500 278 q 576 417 550 364 l 674 417 m 576 368 q 542 301 561 335 q 502 238 522 268 q 461 183 482 208 q 422 139 440 157 l 576 139 l 576 368 m 701 972 l 764 972 l 132 0 l 69 0 l 701 972 m 229 875 q 211 944 229 922 q 167 965 193 965 q 111 910 111 965 q 114 885 111 896 q 118 875 115 879 l 56 861 q 51 874 53 868 q 49 896 49 888 q 81 959 49 932 q 181 986 113 986 q 290 954 254 986 q 326 875 326 922 q 308 824 326 843 q 267 794 289 806 q 208 778 242 782 q 278 758 247 774 q 326 722 304 746 q 347 660 347 699 q 305 577 347 613 q 174 542 263 542 q 64 574 100 542 q 28 653 28 606 q 46 709 28 689 q 90 729 64 729 q 101 728 96 729 q 110 725 106 726 q 118 722 115 724 l 103 667 q 67 657 76 667 q 57 632 57 647 q 82 584 57 606 q 160 563 107 563 q 219 588 196 563 q 243 660 243 613 q 225 741 243 718 q 181 764 207 764 l 146 764 l 146 785 l 181 785 q 213 806 196 785 q 229 875 229 828 z "},".":{"ha":264,"x_min":56,"x_max":208,"o":"m 56 63 q 78 117 56 94 q 132 139 100 139 q 186 117 164 139 q 208 63 208 94 q 186 8 208 31 q 132 -14 164 -14 q 78 8 100 -14 q 56 63 56 31 z "},",":{"ha":264,"x_min":56,"x_max":208,"o":"m 132 139 q 186 115 164 139 q 208 49 208 90 q 190 -50 208 -12 q 149 -110 171 -87 q 90 -147 124 -135 l 76 -125 q 118 -99 100 -114 q 147 -67 133 -86 q 160 -21 160 -47 q 158 -12 160 -15 q 156 -6 157 -8 l 153 0 q 144 -4 150 -3 q 125 -7 133 -7 q 74 12 93 -7 q 56 63 56 31 q 78 117 56 94 q 132 139 100 139 z "},"”":{"ha":458,"x_min":56,"x_max":403,"o":"m 132 986 q 186 962 164 986 q 208 896 208 938 q 190 797 208 835 q 149 738 171 760 q 90 700 124 713 l 76 722 q 118 749 100 733 q 147 781 133 761 q 160 826 160 800 q 158 835 160 832 q 156 842 157 839 l 153 847 q 144 843 150 844 q 125 840 133 840 q 74 859 93 840 q 56 910 56 878 q 78 964 56 942 q 132 986 100 986 m 326 986 q 381 962 358 986 q 403 896 403 938 q 384 797 403 835 q 343 738 365 760 q 285 700 318 713 l 271 722 q 313 749 294 733 q 341 781 328 761 q 354 826 354 800 q 353 835 354 832 q 350 842 351 839 l 347 847 q 339 843 344 844 q 319 840 328 840 q 269 859 288 840 q 250 910 250 878 q 272 964 250 942 q 326 986 294 986 z "},"“":{"ha":458,"x_min":56,"x_max":403,"o":"m 326 700 q 272 724 294 700 q 250 790 250 749 q 268 888 250 850 q 308 949 286 926 q 368 986 333 974 l 382 964 q 340 938 358 953 q 312 905 325 924 q 299 860 299 886 q 301 844 299 850 q 306 839 303 840 q 314 842 308 840 q 323 844 318 843 q 333 846 328 846 q 384 827 365 846 q 403 776 403 808 q 381 722 403 744 q 326 700 358 700 m 132 700 q 78 724 100 700 q 56 790 56 749 q 74 888 56 850 q 114 949 92 926 q 174 986 139 974 l 188 964 q 146 938 164 953 q 117 905 131 924 q 104 860 104 886 q 107 844 104 850 q 111 839 108 840 q 119 842 114 840 q 128 844 124 843 q 139 846 133 846 q 190 827 171 846 q 208 776 208 808 q 186 722 208 744 q 132 700 164 700 z "},":":{"ha":264,"x_min":56,"x_max":208,"o":"m 56 63 q 78 117 56 94 q 132 139 100 139 q 186 117 164 139 q 208 63 208 94 q 186 8 208 31 q 132 -14 164 -14 q 78 8 100 -14 q 56 63 56 31 m 56 576 q 78 631 56 608 q 132 653 100 653 q 186 631 164 653 q 208 576 208 608 q 186 522 208 544 q 132 500 164 500 q 78 522 100 500 q 56 576 56 544 z "},";":{"ha":264,"x_min":56,"x_max":208,"o":"m 56 576 q 78 631 56 608 q 132 653 100 653 q 186 631 164 653 q 208 576 208 608 q 186 522 208 544 q 132 500 164 500 q 78 522 100 500 q 56 576 56 544 m 132 139 q 186 115 164 139 q 208 49 208 90 q 190 -50 208 -12 q 149 -110 171 -87 q 90 -147 124 -135 l 76 -125 q 118 -99 100 -114 q 147 -67 133 -86 q 160 -21 160 -47 q 158 -12 160 -15 q 156 -6 157 -8 l 153 0 q 144 -4 150 -3 q 125 -7 133 -7 q 74 12 93 -7 q 56 63 56 31 q 78 117 56 94 q 132 139 100 139 z "},"•":{"ha":403,"x_min":97,"x_max":306,"o":"m 306 417 q 274 344 306 375 q 201 313 243 313 q 128 344 160 313 q 97 417 97 375 q 128 490 97 458 q 201 521 160 521 q 274 490 243 521 q 306 417 306 458 z "},"×":{"ha":506,"x_min":42,"x_max":464,"o":"m 214 417 l 42 589 l 82 628 l 253 456 l 421 622 l 460 583 l 292 417 l 464 244 l 424 206 l 253 378 l 85 211 l 46 250 l 214 417 z "},"+":{"ha":611,"x_min":42,"x_max":569,"o":"m 278 444 l 278 688 l 333 688 l 333 444 l 569 444 l 569 389 l 333 389 l 333 146 l 278 146 l 278 389 l 42 389 l 42 444 l 278 444 z "},"_":{"ha":528,"x_min":42,"x_max":486,"o":"m 486 -69 l 486 -125 l 42 -125 l 42 -69 l 486 -69 z "},"–":{"ha":604,"x_min":42,"x_max":563,"o":"m 563 403 l 563 347 l 42 347 l 42 403 l 563 403 z "},"—":{"ha":882,"x_min":42,"x_max":840,"o":"m 840 403 l 840 347 l 42 347 l 42 403 l 840 403 z "},"\"":{"ha":417,"x_min":56,"x_max":361,"o":"m 361 972 l 319 694 l 278 694 l 236 972 l 361 972 m 181 972 l 139 694 l 97 694 l 56 972 l 181 972 z "},"'":{"ha":236,"x_min":56,"x_max":181,"o":"m 181 972 l 139 694 l 97 694 l 56 972 l 181 972 z "},"§":{"ha":618,"x_min":49,"x_max":569,"o":"m 49 361 q 60 426 49 394 q 93 486 72 458 q 142 535 114 514 q 201 569 169 557 q 122 664 154 611 q 90 785 90 717 q 106 867 90 829 q 150 933 122 906 q 216 977 178 961 q 299 993 254 993 q 392 978 350 993 q 462 941 433 964 q 506 888 490 918 q 521 826 521 857 q 519 804 521 813 q 517 789 518 796 q 514 778 515 782 l 396 806 q 399 819 397 813 q 401 835 400 826 q 403 854 403 843 q 372 933 403 901 q 299 965 340 965 q 216 926 251 965 q 181 813 181 886 q 209 728 181 765 q 281 656 238 690 q 375 587 325 622 q 469 510 425 551 q 541 418 513 469 q 569 299 569 367 q 533 180 569 231 q 444 97 497 129 q 530 -1 497 56 q 563 -132 563 -58 q 544 -217 563 -176 q 494 -287 526 -257 q 419 -336 463 -318 q 326 -354 376 -354 q 215 -337 264 -354 q 132 -292 165 -321 q 81 -225 99 -262 q 63 -146 63 -187 q 63 -124 63 -133 q 65 -108 64 -115 q 69 -97 67 -101 l 188 -125 q 183 -139 185 -132 q 181 -154 182 -146 q 181 -174 181 -162 q 219 -287 181 -247 q 326 -326 258 -326 q 378 -314 353 -326 q 422 -279 403 -301 q 453 -226 442 -257 q 465 -160 465 -196 q 435 -56 465 -99 q 358 22 404 -12 q 257 88 311 57 q 156 157 203 119 q 79 243 110 194 q 49 361 49 292 m 472 271 q 449 353 472 315 q 389 424 425 390 q 308 490 353 457 q 222 556 264 522 q 163 488 186 535 q 139 389 139 442 q 166 306 139 342 q 235 238 193 269 q 326 175 276 206 q 424 111 376 144 q 458 178 444 138 q 472 271 472 218 z "},"/":{"ha":597,"x_min":0,"x_max":597,"o":"m 535 972 l 597 972 l 63 0 l 0 0 l 535 972 z "},"¬":{"ha":611,"x_min":42,"x_max":569,"o":"m 569 472 l 569 285 l 514 285 l 514 417 l 42 417 l 42 472 l 569 472 z "},"º":{"ha":444,"x_min":28,"x_max":417,"o":"m 222 965 q 188 956 204 965 q 158 924 171 947 q 139 863 146 901 q 132 764 132 824 q 139 665 132 704 q 158 603 146 626 q 188 572 171 581 q 222 563 204 563 q 257 572 240 563 q 286 603 274 581 q 306 665 299 626 q 313 764 313 704 q 306 863 313 824 q 286 924 299 901 q 257 956 274 947 q 222 965 240 965 m 222 986 q 297 970 261 986 q 358 925 332 954 q 401 855 385 896 q 417 764 417 814 q 401 673 417 714 q 358 603 385 632 q 297 558 332 574 q 222 542 261 542 q 148 558 183 542 q 86 603 113 574 q 44 673 60 632 q 28 764 28 714 q 44 855 28 814 q 86 925 60 896 q 148 970 113 954 q 222 986 183 986 z "},"¹":{"ha":299,"x_min":42,"x_max":257,"o":"m 42 938 l 42 954 l 201 986 l 201 583 l 257 569 l 257 556 l 49 556 l 49 569 l 104 585 l 104 938 l 42 938 z "},"²":{"ha":397,"x_min":28,"x_max":349,"o":"m 167 972 q 132 965 149 972 q 103 947 115 958 q 83 919 90 935 q 75 889 75 904 q 90 860 75 874 q 131 847 104 847 l 144 792 q 136 788 142 789 q 117 785 125 785 q 69 808 90 785 q 47 868 47 832 q 85 957 47 921 q 182 993 124 993 q 306 956 265 993 q 347 867 347 919 q 313 772 347 818 q 236 690 278 726 q 125 611 188 649 l 321 611 l 335 681 l 349 681 l 349 556 l 28 556 q 135 664 88 608 q 175 715 156 688 q 210 769 194 742 q 234 826 225 797 q 243 882 243 854 q 221 948 243 924 q 167 972 199 972 z "},"³":{"ha":396,"x_min":28,"x_max":347,"o":"m 229 875 q 211 944 229 922 q 167 965 193 965 q 111 910 111 965 q 114 885 111 896 q 118 875 115 879 l 56 861 q 51 874 53 868 q 49 896 49 888 q 81 959 49 932 q 181 986 113 986 q 290 954 254 986 q 326 875 326 922 q 308 824 326 843 q 267 794 289 806 q 208 778 242 782 q 278 758 247 774 q 326 722 304 746 q 347 660 347 699 q 305 577 347 613 q 174 542 263 542 q 64 574 100 542 q 28 653 28 606 q 46 709 28 689 q 90 729 64 729 q 101 728 96 729 q 110 725 106 726 q 118 722 115 724 l 103 667 q 67 657 76 667 q 57 632 57 647 q 82 584 57 606 q 160 563 107 563 q 219 588 196 563 q 243 660 243 613 q 225 741 243 718 q 181 764 207 764 l 146 764 l 146 785 l 181 785 q 213 806 196 785 q 229 875 229 828 z "},"ª":{"ha":453,"x_min":28,"x_max":432,"o":"m 279 847 q 258 938 279 910 q 210 965 236 965 q 165 947 183 965 q 147 903 147 929 q 148 890 147 897 q 150 876 149 883 q 154 861 151 869 l 64 847 q 60 863 61 856 q 58 874 58 869 q 57 882 57 879 q 95 955 57 924 q 217 986 133 986 q 333 946 290 986 q 376 847 376 906 l 376 586 l 432 569 l 432 556 l 279 556 l 279 604 q 246 572 264 586 q 209 551 231 561 q 161 542 188 542 q 63 574 99 542 q 28 653 28 606 q 42 701 28 676 q 88 745 57 725 q 167 778 119 765 q 279 792 214 792 l 279 847 m 279 771 q 169 738 206 771 q 132 653 132 706 q 150 590 132 611 q 189 569 168 569 q 224 580 207 569 q 253 604 240 590 q 279 639 268 619 l 279 771 z "},"°":{"ha":472,"x_min":56,"x_max":417,"o":"m 146 799 q 153 719 146 751 q 172 668 160 688 q 201 640 185 649 q 236 632 218 632 q 271 640 254 632 q 300 668 288 649 q 319 719 313 688 q 326 799 326 751 q 319 878 326 846 q 300 929 313 910 q 271 957 288 949 q 236 965 254 965 q 201 957 218 965 q 172 929 185 949 q 153 878 160 910 q 146 799 146 846 m 417 799 q 402 726 417 760 q 363 666 388 692 q 305 626 338 640 q 236 611 272 611 q 167 626 200 611 q 110 666 135 640 q 70 726 85 692 q 56 799 56 760 q 70 872 56 838 q 110 931 85 906 q 167 972 135 957 q 236 986 200 986 q 305 972 272 986 q 363 931 338 957 q 402 872 388 906 q 417 799 417 838 z "},"Ѵ":{"ha":715,"x_min":0,"x_max":750,"o":"m 549 743 q 583 870 565 821 q 618 947 600 919 q 655 983 636 974 q 694 993 674 993 q 708 992 701 993 q 719 989 715 990 q 729 986 725 988 l 750 889 q 738 892 743 890 q 726 894 732 893 q 715 896 721 896 q 665 889 686 896 q 628 865 644 882 q 599 817 611 847 q 576 743 586 788 l 396 -21 l 375 -21 l 83 938 l 0 958 l 0 972 l 292 972 l 292 958 l 208 938 l 426 222 l 549 743 z "},"ѵ":{"ha":597,"x_min":0,"x_max":625,"o":"m 444 444 q 481 554 464 513 q 513 619 497 596 q 543 651 529 643 q 569 660 557 660 q 583 658 576 660 q 594 656 590 657 q 604 653 600 654 l 625 556 q 613 558 618 557 q 601 561 607 560 q 590 563 596 563 q 517 538 543 563 q 472 444 492 514 l 340 -21 l 319 -21 l 83 604 l 0 625 l 0 639 l 278 639 l 278 625 l 201 604 l 367 168 l 444 444 z "},"А":{"ha":722,"x_min":-7,"x_max":750,"o":"m 188 311 l 457 311 l 318 771 l 188 311 m 465 285 l 181 285 l 111 49 l 201 14 l 201 0 l -7 0 l -7 14 l 83 49 l 354 993 l 375 993 l 667 35 l 750 14 l 750 0 l 458 0 l 458 14 l 542 35 l 465 285 z "},"j":{"ha":361,"x_min":-83,"x_max":271,"o":"m -83 -208 q -76 -166 -83 -185 q -60 -133 -69 -147 q -35 -104 -49 -118 l 69 -146 q 44 -175 56 -160 q 28 -208 35 -189 q 21 -250 21 -226 q 39 -306 21 -286 q 83 -326 57 -326 q 108 -319 96 -326 q 131 -292 121 -311 q 147 -242 140 -274 q 153 -160 153 -210 l 153 604 l 69 625 l 69 639 l 264 639 l 264 -160 q 250 -236 264 -201 q 213 -295 236 -271 q 156 -333 189 -319 q 83 -347 122 -347 q 17 -335 47 -347 q -36 -304 -14 -324 q -71 -260 -58 -285 q -83 -208 -83 -235 m 271 799 q 249 751 271 772 q 201 729 228 729 q 153 751 175 729 q 132 799 132 772 q 153 847 132 825 q 201 868 175 868 q 249 847 228 868 q 271 799 271 825 z "},"-":{"ha":528,"x_min":42,"x_max":486,"o":"m 486 431 l 486 375 l 42 375 l 42 431 l 486 431 z "},"\\":{"ha":597,"x_min":0,"x_max":597,"o":"m 597 0 l 535 0 l 0 972 l 63 972 l 597 0 z "},"*":{"ha":514,"x_min":56,"x_max":458,"o":"m 257 986 q 280 984 269 986 q 297 979 290 982 q 313 972 306 975 l 271 806 l 278 799 l 403 917 q 444 878 429 906 q 458 819 458 851 l 292 778 l 292 764 l 458 722 q 444 663 458 690 q 403 625 429 636 l 278 743 l 271 736 l 313 569 q 297 563 306 565 q 257 556 281 556 q 217 563 233 556 q 201 569 208 565 l 243 736 l 236 743 l 111 625 q 70 663 85 636 q 56 722 56 690 l 222 764 l 222 778 l 56 819 q 70 878 56 851 q 111 917 85 906 l 236 799 l 243 806 l 201 972 q 217 979 208 975 q 233 984 224 982 q 257 986 243 986 z "},"=":{"ha":569,"x_min":42,"x_max":528,"o":"m 528 347 l 528 292 l 42 292 l 42 347 l 528 347 m 528 542 l 528 486 l 42 486 l 42 542 l 528 542 z "},"|":{"ha":285,"x_min":104,"x_max":181,"o":"m 104 972 l 181 972 l 181 -333 l 104 -333 l 104 972 z "},"¦":{"ha":285,"x_min":104,"x_max":181,"o":"m 104 222 l 181 222 l 181 -333 l 104 -333 l 104 222 m 181 417 l 104 417 l 104 972 l 181 972 l 181 417 z "},"‚":{"ha":264,"x_min":56,"x_max":208,"o":"m 132 139 q 186 115 164 139 q 208 49 208 90 q 190 -50 208 -12 q 149 -110 171 -87 q 90 -147 124 -135 l 76 -125 q 118 -99 100 -114 q 147 -67 133 -86 q 160 -21 160 -47 q 158 -12 160 -15 q 156 -6 157 -8 l 153 0 q 144 -4 150 -3 q 125 -7 133 -7 q 74 12 93 -7 q 56 63 56 31 q 78 117 56 94 q 132 139 100 139 z "},"„":{"ha":458,"x_min":56,"x_max":403,"o":"m 132 139 q 186 115 164 139 q 208 49 208 90 q 190 -50 208 -12 q 149 -110 171 -87 q 90 -147 124 -135 l 76 -125 q 118 -99 100 -114 q 147 -67 133 -86 q 160 -21 160 -47 q 158 -12 160 -15 q 156 -6 157 -8 l 153 0 q 144 -4 150 -3 q 125 -7 133 -7 q 74 12 93 -7 q 56 63 56 31 q 78 117 56 94 q 132 139 100 139 m 326 139 q 381 115 358 139 q 403 49 403 90 q 384 -50 403 -12 q 343 -110 365 -87 q 285 -147 318 -135 l 271 -125 q 313 -99 294 -114 q 341 -67 328 -86 q 354 -21 354 -47 q 353 -12 354 -15 q 350 -6 351 -8 l 347 0 q 339 -4 344 -3 q 319 -7 328 -7 q 269 12 288 -7 q 250 63 250 31 q 272 117 250 94 q 326 139 294 139 z "},"…":{"ha":792,"x_min":56,"x_max":736,"o":"m 56 63 q 78 117 56 94 q 132 139 100 139 q 186 117 164 139 q 208 63 208 94 q 186 8 208 31 q 132 -14 164 -14 q 78 8 100 -14 q 56 63 56 31 m 319 63 q 342 117 319 94 q 396 139 364 139 q 450 117 428 139 q 472 63 472 94 q 450 8 472 31 q 396 -14 428 -14 q 342 8 364 -14 q 319 63 319 31 m 583 63 q 606 117 583 94 q 660 139 628 139 q 714 117 692 139 q 736 63 736 94 q 714 8 736 31 q 660 -14 692 -14 q 606 8 628 -14 q 583 63 583 31 z "},"‰":{"ha":1278,"x_min":28,"x_max":1250,"o":"m 715 972 l 778 972 l 146 0 l 83 0 l 715 972 m 222 965 q 188 956 204 965 q 158 924 171 947 q 139 863 146 901 q 132 764 132 824 q 139 665 132 704 q 158 603 146 626 q 188 572 171 581 q 222 563 204 563 q 257 572 240 563 q 286 603 274 581 q 306 665 299 626 q 313 764 313 704 q 306 863 313 824 q 286 924 299 901 q 257 956 274 947 q 222 965 240 965 m 222 986 q 297 970 261 986 q 358 925 332 954 q 401 855 385 896 q 417 764 417 814 q 401 673 417 714 q 358 603 385 632 q 297 558 332 574 q 222 542 261 542 q 148 558 183 542 q 86 603 113 574 q 44 673 60 632 q 28 764 28 714 q 44 855 28 814 q 86 925 60 896 q 148 970 113 954 q 222 986 183 986 m 611 410 q 576 401 593 410 q 547 369 560 392 q 528 307 535 346 q 521 208 521 268 q 528 110 521 149 q 547 48 535 71 q 576 16 560 25 q 611 7 593 7 q 646 16 629 7 q 675 48 663 25 q 694 110 688 71 q 701 208 701 149 q 694 307 701 268 q 675 369 688 346 q 646 401 663 392 q 611 410 629 410 m 611 431 q 685 415 650 431 q 747 369 721 399 q 790 299 774 340 q 806 208 806 258 q 790 117 806 158 q 747 47 774 76 q 685 2 721 18 q 611 -14 650 -14 q 537 2 572 -14 q 475 47 501 18 q 433 117 449 76 q 417 208 417 158 q 433 299 417 258 q 475 369 449 340 q 537 415 501 399 q 611 431 572 431 m 1056 410 q 1021 401 1038 410 q 992 369 1004 392 q 972 307 979 346 q 965 208 965 268 q 972 110 965 149 q 992 48 979 71 q 1021 16 1004 25 q 1056 7 1038 7 q 1090 16 1074 7 q 1119 48 1107 25 q 1139 110 1132 71 q 1146 208 1146 149 q 1139 307 1146 268 q 1119 369 1132 346 q 1090 401 1107 392 q 1056 410 1074 410 m 1056 431 q 1130 415 1094 431 q 1192 369 1165 399 q 1234 299 1218 340 q 1250 208 1250 258 q 1234 117 1250 158 q 1192 47 1218 76 q 1130 2 1165 18 q 1056 -14 1094 -14 q 981 2 1017 -14 q 919 47 946 18 q 877 117 893 76 q 861 208 861 158 q 877 299 861 258 q 919 369 893 340 q 981 415 946 399 q 1056 431 1017 431 z "},"‹":{"ha":417,"x_min":28,"x_max":375,"o":"m 354 625 l 375 604 l 160 319 l 375 35 l 354 14 l 28 319 l 354 625 z "},"›":{"ha":417,"x_min":42,"x_max":389,"o":"m 389 319 l 63 14 l 42 35 l 257 319 l 42 604 l 63 625 l 389 319 z "},"’":{"ha":264,"x_min":56,"x_max":208,"o":"m 132 986 q 186 962 164 986 q 208 896 208 938 q 190 797 208 835 q 149 738 171 760 q 90 700 124 713 l 76 722 q 118 749 100 733 q 147 781 133 761 q 160 826 160 800 q 158 835 160 832 q 156 842 157 839 l 153 847 q 144 843 150 844 q 125 840 133 840 q 74 859 93 840 q 56 910 56 878 q 78 964 56 942 q 132 986 100 986 z "},"‘":{"ha":264,"x_min":56,"x_max":208,"o":"m 132 700 q 78 724 100 700 q 56 790 56 749 q 74 888 56 850 q 114 949 92 926 q 174 986 139 974 l 188 964 q 146 938 164 953 q 117 905 131 924 q 104 860 104 886 q 107 844 104 850 q 111 839 108 840 q 119 842 114 840 q 128 844 124 843 q 139 846 133 846 q 190 827 171 846 q 208 776 208 808 q 186 722 208 744 q 132 700 164 700 z "},"™":{"ha":1014,"x_min":28,"x_max":979,"o":"m 104 951 q 81 876 99 910 q 42 826 63 843 l 28 826 q 31 853 29 839 q 33 876 32 864 q 35 896 35 888 q 33 922 35 908 q 31 947 32 936 q 28 972 29 961 l 389 972 q 385 947 386 961 q 383 922 383 936 q 382 896 382 908 q 383 876 382 888 q 385 853 383 864 q 389 826 386 839 l 375 826 q 336 876 354 843 q 313 951 318 910 l 257 951 l 257 583 l 313 569 l 313 556 l 104 556 l 104 569 l 160 583 l 160 951 l 104 951 m 979 569 l 979 556 l 771 556 l 771 569 l 826 583 l 826 896 l 686 542 l 672 542 l 500 896 l 500 590 l 556 569 l 556 556 l 424 556 l 424 569 l 479 590 l 479 944 l 424 958 l 424 972 l 563 972 l 713 667 l 833 972 l 979 972 l 979 958 l 924 944 l 924 583 l 979 569 z "},"·":{"ha":333,"x_min":90,"x_max":243,"o":"m 90 486 q 113 540 90 518 q 167 563 135 563 q 221 540 199 563 q 243 486 243 518 q 221 432 243 454 q 167 410 199 410 q 113 432 135 410 q 90 486 90 454 z "},"є":{"ha":597,"x_min":63,"x_max":556,"o":"m 333 632 q 283 617 308 632 q 236 567 257 601 q 202 475 215 532 q 188 333 189 418 l 306 333 l 354 444 l 368 444 l 368 194 l 354 194 l 306 306 l 188 306 q 202 164 189 221 q 238 72 215 107 q 288 22 260 38 q 347 7 317 7 q 415 21 383 7 q 472 58 447 35 q 513 115 497 82 q 535 188 529 149 l 556 188 q 531 105 550 143 q 483 39 513 67 q 416 -5 454 11 q 333 -21 378 -21 q 230 2 279 -21 q 143 69 181 25 q 84 176 106 113 q 63 319 63 239 q 84 463 63 400 q 142 570 106 526 q 224 637 178 614 q 319 660 269 660 q 378 649 353 660 q 422 625 404 638 q 458 590 443 610 q 481 629 464 611 q 514 653 499 647 l 535 653 q 531 615 532 635 q 528 579 529 599 q 528 542 528 560 q 528 499 528 521 q 531 461 529 478 q 535 424 532 442 l 514 424 q 437 578 488 524 q 333 632 386 632 z "},"Ѕ":{"ha":646,"x_min":49,"x_max":604,"o":"m 153 792 q 186 694 153 735 q 269 618 219 653 q 378 550 319 583 q 488 474 438 517 q 571 375 538 432 q 604 236 604 318 q 585 135 604 182 q 530 53 565 88 q 446 -1 494 18 q 340 -21 397 -21 q 250 -10 288 -21 q 188 14 213 0 q 139 49 158 29 q 109 10 128 28 q 69 -14 90 -8 l 49 -14 q 51 28 50 6 q 54 68 53 46 q 56 111 56 90 q 54 158 56 135 q 51 200 53 181 q 49 243 50 222 l 69 243 q 162 67 101 128 q 326 7 222 7 q 462 60 410 7 q 514 208 514 114 q 481 306 514 265 q 397 382 447 347 q 288 450 347 417 q 179 526 229 483 q 96 625 129 568 q 63 764 63 682 q 81 853 63 811 q 131 926 99 894 q 206 975 163 957 q 299 993 249 993 q 372 982 340 993 q 426 958 404 971 q 472 924 451 943 q 502 963 483 944 q 542 986 521 981 l 563 986 q 558 944 560 965 q 556 903 557 925 q 556 861 556 882 q 556 815 556 838 q 558 772 557 792 q 563 729 560 750 l 542 729 q 453 905 510 844 q 313 965 396 965 q 199 918 244 965 q 153 792 153 871 z "},"ѕ":{"ha":563,"x_min":56,"x_max":514,"o":"m 299 -21 q 222 -10 254 -21 q 171 14 190 0 q 132 49 147 29 q 109 10 126 28 q 76 -14 92 -8 l 56 -14 q 58 24 57 4 q 61 59 60 40 q 63 97 63 78 q 61 139 63 118 q 58 176 60 160 q 56 215 57 196 l 76 215 q 157 61 103 115 q 285 7 211 7 q 380 43 343 7 q 417 132 417 79 q 391 197 417 169 q 326 248 365 225 q 243 293 288 271 q 160 343 199 315 q 95 408 121 371 q 69 500 69 446 q 83 560 69 531 q 122 611 97 589 q 181 647 146 633 q 257 660 215 660 q 320 649 293 660 q 367 625 347 638 q 403 590 388 610 q 426 629 408 611 q 458 653 443 647 l 479 653 q 475 615 476 635 q 473 579 474 599 q 472 542 472 560 q 473 499 472 521 q 475 461 474 478 q 479 424 476 442 l 458 424 q 381 578 432 524 q 271 632 329 632 q 192 601 224 632 q 160 528 160 569 q 186 468 160 493 q 251 422 213 443 q 337 378 290 400 q 422 326 383 356 q 488 257 461 297 q 514 160 514 217 q 498 94 514 126 q 453 35 482 61 q 385 -6 425 10 q 299 -21 346 -21 z "},"Є":{"ha":681,"x_min":56,"x_max":653,"o":"m 396 965 q 320 944 357 965 q 255 872 283 924 q 208 734 226 821 q 188 514 190 647 l 340 514 l 403 639 l 417 639 l 417 361 l 403 361 l 340 486 l 188 486 q 206 253 188 346 q 254 106 224 161 q 325 29 285 51 q 410 7 365 7 q 486 28 449 7 q 554 83 524 49 q 606 165 585 118 q 632 264 626 211 l 653 264 q 625 149 647 201 q 569 59 603 97 q 490 0 535 21 q 396 -21 446 -21 q 269 10 331 -21 q 160 105 208 42 q 84 263 113 168 q 56 486 56 358 q 84 709 56 614 q 159 867 113 804 q 264 962 206 931 q 382 993 322 993 q 442 982 415 993 q 489 957 469 971 q 528 922 511 942 q 558 962 539 943 q 597 986 576 981 l 618 986 q 614 944 615 965 q 612 903 613 925 q 611 861 611 882 q 612 815 611 838 q 614 772 613 792 q 618 729 615 750 l 597 729 q 512 905 565 844 q 396 965 458 965 z "},"Ј":{"ha":681,"x_min":21,"x_max":639,"o":"m 556 264 q 535 146 556 199 q 478 56 515 93 q 389 -1 442 19 q 271 -21 336 -21 q 173 -1 218 -21 q 94 50 128 18 q 40 123 60 82 q 21 208 21 164 q 53 326 21 288 q 132 375 86 365 l 229 292 q 90 146 90 271 q 103 94 90 119 q 139 50 115 69 q 196 19 163 31 q 271 7 229 7 q 335 22 304 7 q 388 67 365 36 q 424 147 411 99 q 438 264 438 196 l 438 938 l 354 958 l 354 972 l 639 972 l 639 958 l 556 938 l 556 264 z "},"ј":{"ha":368,"x_min":-83,"x_max":271,"o":"m -83 -208 q -76 -166 -83 -185 q -60 -133 -69 -147 q -35 -104 -49 -118 l 69 -146 q 44 -175 56 -160 q 28 -208 35 -189 q 21 -250 21 -226 q 39 -306 21 -286 q 83 -326 57 -326 q 108 -319 96 -326 q 131 -292 121 -311 q 147 -242 140 -274 q 153 -160 153 -210 l 153 604 l 69 625 l 69 639 l 264 639 l 264 -160 q 250 -236 264 -201 q 213 -295 236 -271 q 156 -333 189 -319 q 83 -347 122 -347 q 17 -335 47 -347 q -36 -304 -14 -324 q -71 -260 -58 -285 q -83 -208 -83 -235 m 271 799 q 249 751 271 772 q 201 729 228 729 q 153 751 175 729 q 132 799 132 772 q 153 847 132 825 q 201 868 175 868 q 249 847 228 868 q 271 799 271 825 z "},"­":{"ha":569,"x_min":42,"x_max":528,"o":"m 528 431 l 528 375 l 42 375 l 42 431 l 528 431 z "},"±":{"ha":611,"x_min":42,"x_max":569,"o":"m 278 222 l 278 431 l 42 431 l 42 486 l 278 486 l 278 729 l 333 729 l 333 486 l 569 486 l 569 431 l 333 431 l 333 222 l 564 222 l 564 167 l 50 167 l 50 222 l 278 222 z "},"І":{"ha":410,"x_min":63,"x_max":347,"o":"m 264 35 l 347 14 l 347 0 l 63 0 l 63 14 l 146 35 l 146 938 l 63 958 l 63 972 l 347 972 l 347 958 l 264 938 l 264 35 z "},"і":{"ha":361,"x_min":49,"x_max":326,"o":"m 132 35 l 132 604 l 49 625 l 49 639 l 243 639 l 243 35 l 326 14 l 326 0 l 49 0 l 49 14 l 132 35 m 250 799 q 228 751 250 772 q 181 729 207 729 q 133 751 154 729 q 111 799 111 772 q 133 847 111 825 q 181 868 154 868 q 228 847 207 868 q 250 799 250 825 z "},"Ѓ":{"ha":632,"x_min":63,"x_max":597,"o":"m 264 35 l 347 14 l 347 0 l 63 0 l 63 14 l 146 35 l 146 938 l 63 958 l 63 972 l 597 972 q 593 943 594 960 q 591 908 592 928 q 590 861 590 888 q 591 823 590 842 q 593 788 592 804 q 597 750 594 768 l 583 750 q 524 836 547 786 q 500 944 500 886 l 264 944 l 264 35 m 382 1194 l 507 1194 l 368 1028 l 326 1028 l 382 1194 z "},"ѓ":{"ha":556,"x_min":49,"x_max":521,"o":"m 243 611 l 243 35 l 326 14 l 326 0 l 49 0 l 49 14 l 132 35 l 132 604 l 49 625 l 49 639 l 521 639 q 517 610 518 625 q 515 577 515 596 q 514 535 514 558 q 515 501 514 519 q 517 467 515 482 q 521 431 518 449 l 507 431 q 447 508 471 463 q 424 611 424 553 l 243 611 m 333 861 l 458 861 l 319 694 l 278 694 l 333 861 z "},"Ќ":{"ha":750,"x_min":63,"x_max":778,"o":"m 403 1194 l 528 1194 l 389 1028 l 347 1028 l 403 1194 m 264 350 l 264 35 l 347 14 l 347 0 l 63 0 l 63 14 l 146 35 l 146 938 l 63 958 l 63 972 l 347 972 l 347 958 l 264 938 l 264 410 l 438 785 q 488 883 465 844 q 531 945 511 922 q 571 977 551 968 q 611 986 590 986 q 622 985 617 986 q 633 982 628 983 q 646 979 639 981 l 667 875 q 653 878 660 876 q 638 881 646 879 q 618 882 629 882 q 520 854 556 882 q 465 785 485 826 l 396 632 l 694 35 l 778 14 l 778 0 l 485 0 l 485 14 l 568 35 l 335 501 l 264 350 z "},"ќ":{"ha":653,"x_min":49,"x_max":674,"o":"m 354 861 l 479 861 l 340 694 l 299 694 l 354 861 m 304 307 l 243 201 l 243 35 l 319 14 l 319 0 l 49 0 l 49 14 l 132 35 l 132 604 l 49 625 l 49 639 l 333 639 l 333 625 l 243 604 l 243 250 l 368 472 q 422 565 400 529 q 462 619 444 600 q 494 646 479 639 q 528 653 510 653 q 542 651 535 653 q 553 649 549 650 q 563 646 558 647 l 583 549 q 567 551 575 550 q 551 554 560 553 q 535 556 542 556 q 449 535 478 556 q 396 472 419 514 l 361 411 l 590 35 l 674 14 l 674 0 l 393 0 l 393 14 l 469 35 l 304 307 z "},"Ў":{"ha":681,"x_min":-14,"x_max":708,"o":"m 383 1069 q 428 1090 410 1069 q 446 1146 446 1110 q 444 1166 446 1157 q 442 1183 443 1175 q 439 1201 440 1192 l 536 1201 q 539 1189 538 1196 q 542 1174 540 1182 q 543 1160 543 1167 q 505 1081 543 1113 q 383 1049 467 1049 q 262 1081 300 1049 q 224 1160 224 1113 q 224 1174 224 1167 q 226 1189 225 1182 q 231 1201 228 1196 l 328 1201 q 324 1183 325 1192 q 322 1166 322 1175 q 321 1146 321 1157 q 339 1090 321 1110 q 383 1069 357 1069 m 415 350 l 590 924 l 500 958 l 500 972 l 708 972 l 708 958 l 618 924 l 386 167 q 346 62 367 104 q 301 -7 325 19 q 249 -44 278 -33 q 188 -56 221 -56 q 172 -55 179 -56 q 158 -53 165 -54 q 146 -49 151 -51 l 125 49 q 138 44 131 46 q 151 42 144 43 q 167 42 158 42 q 297 75 256 42 q 358 167 339 108 l 69 938 l -14 958 l -14 972 l 278 972 l 278 958 l 194 938 l 415 350 z "},"ў":{"ha":604,"x_min":-14,"x_max":625,"o":"m 340 736 q 385 756 367 736 q 403 813 403 776 q 401 832 403 824 q 399 847 400 840 q 396 861 397 854 l 486 861 q 489 851 488 857 q 492 840 490 847 q 493 826 493 833 q 456 747 493 779 q 340 715 419 715 q 224 747 261 715 q 188 826 188 779 q 190 851 188 840 q 194 861 192 857 l 285 861 q 281 847 282 854 q 278 832 279 840 q 278 813 278 824 q 296 756 278 776 q 340 736 314 736 m 299 -118 q 256 -227 276 -183 q 212 -298 235 -271 q 165 -336 189 -325 q 111 -347 140 -347 q 96 -347 103 -347 q 82 -344 89 -346 q 69 -340 75 -343 l 49 -236 q 61 -240 54 -239 q 75 -242 68 -242 q 90 -243 82 -243 q 212 -212 174 -243 q 271 -118 250 -181 l 310 0 l 69 604 l -14 625 l -14 639 l 264 639 l 264 625 l 188 604 l 364 161 l 507 590 l 417 625 l 417 639 l 625 639 l 625 625 l 535 590 l 299 -118 z "},"Ґ":{"ha":611,"x_min":63,"x_max":597,"o":"m 264 944 l 264 35 l 347 14 l 347 0 l 63 0 l 63 14 l 146 35 l 146 938 l 63 958 l 63 972 l 500 972 q 524 1063 500 1019 q 583 1139 547 1107 l 597 1139 q 593 1103 594 1119 q 591 1071 592 1088 q 590 1042 590 1054 q 591 1003 590 1021 q 593 972 592 985 q 597 944 594 957 l 264 944 z "},"ґ":{"ha":528,"x_min":49,"x_max":514,"o":"m 243 611 l 243 35 l 326 14 l 326 0 l 49 0 l 49 14 l 132 35 l 132 604 l 49 625 l 49 639 l 417 639 q 440 726 417 686 q 500 792 464 765 l 514 792 q 510 757 511 774 q 508 727 508 742 q 507 701 507 713 q 508 666 507 682 q 510 638 508 650 q 514 611 511 622 l 243 611 z "},"ї":{"ha":368,"x_min":14,"x_max":368,"o":"m 139 35 l 139 604 l 56 625 l 56 639 l 250 639 l 250 35 l 333 14 l 333 0 l 56 0 l 56 14 l 139 35 m 153 792 q 131 744 153 765 q 83 722 110 722 q 35 744 57 722 q 14 792 14 765 q 35 840 14 818 q 83 861 57 861 q 131 840 110 861 q 153 792 153 818 m 368 792 q 347 744 368 765 q 299 722 325 722 q 251 744 272 722 q 229 792 229 765 q 251 840 229 818 q 299 861 272 861 q 347 840 325 861 q 368 792 368 818 z "},"Ї":{"ha":410,"x_min":28,"x_max":382,"o":"m 167 1125 q 145 1077 167 1099 q 97 1056 124 1056 q 49 1077 71 1056 q 28 1125 28 1099 q 49 1173 28 1151 q 97 1194 71 1194 q 145 1173 124 1194 q 167 1125 167 1151 m 382 1125 q 360 1077 382 1099 q 313 1056 339 1056 q 265 1077 286 1056 q 243 1125 243 1099 q 265 1173 243 1151 q 313 1194 286 1194 q 360 1173 339 1194 q 382 1125 382 1151 m 264 35 l 347 14 l 347 0 l 63 0 l 63 14 l 146 35 l 146 938 l 63 958 l 63 972 l 347 972 l 347 958 l 264 938 l 264 35 z "},"Б":{"ha":715,"x_min":63,"x_max":674,"o":"m 264 625 l 313 625 q 466 601 399 625 q 579 536 533 578 q 649 438 625 494 q 674 313 674 381 q 649 188 674 244 q 579 89 625 131 q 466 24 533 47 q 313 0 399 0 l 63 0 l 63 14 l 146 35 l 146 938 l 63 958 l 63 972 l 569 972 q 565 943 567 960 q 563 908 564 928 q 563 861 563 888 q 563 823 563 842 q 565 788 564 804 q 569 750 567 768 l 556 750 q 496 836 519 786 q 472 944 472 886 l 264 944 l 264 625 m 264 28 l 313 28 q 482 94 422 28 q 542 313 542 161 q 482 531 542 464 q 313 597 422 597 l 264 597 l 264 28 z "},"ƒ":{"ha":458,"x_min":-97,"x_max":500,"o":"m 139 556 l 56 556 l 56 583 l 139 583 l 139 806 q 191 941 139 889 q 326 993 243 993 q 397 981 365 993 q 452 950 429 969 q 488 906 475 931 q 500 854 500 881 q 492 812 500 831 q 475 779 485 793 q 451 750 464 764 l 347 792 q 371 821 360 806 q 388 853 381 835 q 396 896 396 872 q 377 952 396 932 q 326 972 358 972 q 297 965 311 972 q 273 938 283 957 q 256 888 263 919 q 250 806 250 856 l 250 583 l 444 583 l 444 556 l 250 556 l 250 -160 q 236 -236 250 -201 q 199 -295 222 -271 q 142 -333 175 -319 q 69 -347 108 -347 q 3 -335 33 -347 q -50 -304 -28 -324 q -85 -260 -72 -285 q -97 -208 -97 -235 q -90 -166 -97 -185 q -74 -133 -83 -147 q -49 -104 -62 -118 l 56 -146 q 31 -175 42 -160 q 14 -208 21 -189 q 7 -250 7 -226 q 25 -306 7 -286 q 69 -326 43 -326 q 94 -319 82 -326 q 117 -292 107 -311 q 133 -242 126 -274 q 139 -160 139 -210 l 139 556 z "},"ˇ":{"ha":347,"x_min":14,"x_max":333,"o":"m 174 889 l 299 972 l 333 972 l 174 792 l 14 972 l 49 972 l 174 889 z "},"˘":{"ha":333,"x_min":14,"x_max":319,"o":"m 167 847 q 211 867 193 847 q 229 924 229 888 q 228 943 229 935 q 225 958 226 951 q 222 972 224 965 l 313 972 q 315 963 314 968 q 318 951 317 958 q 319 938 319 944 q 283 858 319 890 q 167 826 246 826 q 51 858 88 826 q 14 938 14 890 q 17 963 14 951 q 21 972 18 968 l 111 972 q 107 958 108 965 q 105 943 106 951 q 104 924 104 935 q 122 867 104 888 q 167 847 140 847 z "},"¨":{"ha":396,"x_min":14,"x_max":382,"o":"m 153 903 q 131 855 153 876 q 83 833 110 833 q 35 855 57 833 q 14 903 14 876 q 35 951 14 929 q 83 972 57 972 q 131 951 110 972 q 153 903 153 929 m 382 903 q 360 855 382 876 q 313 833 339 833 q 265 855 286 833 q 243 903 243 876 q 265 951 243 929 q 313 972 286 972 q 360 951 339 972 q 382 903 382 929 z "},"˙":{"ha":167,"x_min":14,"x_max":153,"o":"m 153 903 q 131 855 153 876 q 83 833 110 833 q 35 855 57 833 q 14 903 14 876 q 35 951 14 929 q 83 972 57 972 q 131 951 110 972 q 153 903 153 929 z "},"´":{"ha":208,"x_min":14,"x_max":194,"o":"m 69 972 l 194 972 l 56 806 l 14 806 l 69 972 z "},"˝":{"ha":347,"x_min":14,"x_max":333,"o":"m 69 972 l 181 972 l 56 806 l 14 806 l 69 972 m 222 972 l 333 972 l 208 806 l 167 806 l 222 972 z "},"˜":{"ha":313,"x_min":14,"x_max":299,"o":"m 299 965 q 272 859 299 892 q 208 826 244 826 q 171 838 188 826 q 140 865 154 850 q 112 891 125 879 q 83 903 99 903 q 49 888 63 903 q 35 840 35 872 l 14 840 q 41 947 14 914 q 104 979 68 979 q 142 967 125 979 q 173 941 158 956 q 201 915 188 926 q 229 903 214 903 q 264 918 250 903 q 278 965 278 933 l 299 965 z "},"˚":{"ha":236,"x_min":7,"x_max":229,"o":"m 229 868 q 197 792 229 821 q 118 764 165 764 q 39 792 71 764 q 7 868 7 821 q 39 944 7 915 q 118 972 71 972 q 197 944 165 972 q 229 868 229 915 m 167 868 q 153 924 167 904 q 118 944 139 944 q 83 924 97 944 q 69 868 69 904 q 83 812 69 832 q 118 792 97 792 q 153 812 139 792 q 167 868 167 832 z "},"˛":{"ha":229,"x_min":14,"x_max":215,"o":"m 14 -118 q 36 -68 14 -90 q 86 -31 58 -46 q 160 0 118 -14 l 215 0 q 153 -36 179 -17 q 110 -74 129 -53 q 90 -118 90 -94 q 105 -153 90 -139 q 146 -167 119 -167 q 170 -162 158 -167 q 190 -150 182 -157 q 208 -132 200 -143 l 208 -167 q 186 -181 200 -175 q 158 -190 175 -186 q 118 -194 142 -194 q 40 -172 65 -194 q 14 -118 14 -150 z "},"¸":{"ha":208,"x_min":14,"x_max":194,"o":"m 56 0 l 90 0 l 90 -49 q 169 -72 143 -49 q 194 -132 194 -96 q 166 -192 194 -168 q 69 -215 138 -215 q 46 -215 56 -215 q 29 -212 36 -214 q 14 -208 21 -211 l 14 -179 q 26 -183 19 -182 q 56 -187 39 -187 q 103 -170 88 -187 q 118 -132 118 -153 q 103 -87 118 -106 q 56 -69 88 -69 l 56 0 z "},"¯":{"ha":319,"x_min":0,"x_max":319,"o":"m 319 986 l 319 931 l 0 931 l 0 986 l 319 986 z "},"Ť":{"ha":688,"x_min":42,"x_max":646,"o":"m 42 0 m 403 35 l 486 14 l 486 0 l 201 0 l 201 14 l 285 35 l 285 944 l 139 944 q 115 836 139 886 q 56 750 92 786 l 42 750 q 44 788 43 768 q 47 823 46 804 q 49 861 49 842 q 47 908 49 888 q 44 943 46 928 q 42 972 43 960 l 646 972 q 642 943 643 960 q 640 908 640 928 q 639 861 639 888 q 640 823 639 842 q 642 788 640 804 q 646 750 643 768 l 632 750 q 572 836 596 786 q 549 944 549 886 l 403 944 l 403 35 m 347 1132 l 472 1215 l 507 1215 l 347 1035 l 188 1215 l 222 1215 l 347 1132 z "},"Š":{"ha":646,"x_min":49,"x_max":604,"o":"m 49 0 m 153 792 q 186 694 153 735 q 269 618 219 653 q 378 550 319 583 q 488 474 438 517 q 571 375 538 432 q 604 236 604 318 q 585 135 604 182 q 530 53 565 88 q 446 -1 494 18 q 340 -21 397 -21 q 250 -10 288 -21 q 188 14 213 0 q 139 49 158 29 q 109 10 128 28 q 69 -14 90 -8 l 49 -14 q 51 28 50 6 q 54 68 53 46 q 56 111 56 90 q 54 158 56 135 q 51 200 53 181 q 49 243 50 222 l 69 243 q 162 67 101 128 q 326 7 222 7 q 462 60 410 7 q 514 208 514 114 q 481 306 514 265 q 397 382 447 347 q 288 450 347 417 q 179 526 229 483 q 96 625 129 568 q 63 764 63 682 q 81 853 63 811 q 131 926 99 894 q 206 975 163 957 q 299 993 249 993 q 372 982 340 993 q 426 958 404 971 q 472 924 451 943 q 502 963 483 944 q 542 986 521 981 l 563 986 q 558 944 560 965 q 556 903 557 925 q 556 861 556 882 q 556 815 556 838 q 558 772 557 792 q 563 729 560 750 l 542 729 q 453 905 510 844 q 313 965 396 965 q 199 918 244 965 q 153 792 153 871 m 319 1139 l 444 1222 l 479 1222 l 319 1042 l 160 1222 l 194 1222 l 319 1139 z "},"Ś":{"ha":646,"x_min":49,"x_max":604,"o":"m 49 0 m 153 792 q 186 694 153 735 q 269 618 219 653 q 378 550 319 583 q 488 474 438 517 q 571 375 538 432 q 604 236 604 318 q 585 135 604 182 q 530 53 565 88 q 446 -1 494 18 q 340 -21 397 -21 q 250 -10 288 -21 q 188 14 213 0 q 139 49 158 29 q 109 10 128 28 q 69 -14 90 -8 l 49 -14 q 51 28 50 6 q 54 68 53 46 q 56 111 56 90 q 54 158 56 135 q 51 200 53 181 q 49 243 50 222 l 69 243 q 162 67 101 128 q 326 7 222 7 q 462 60 410 7 q 514 208 514 114 q 481 306 514 265 q 397 382 447 347 q 288 450 347 417 q 179 526 229 483 q 96 625 129 568 q 63 764 63 682 q 81 853 63 811 q 131 926 99 894 q 206 975 163 957 q 299 993 249 993 q 372 982 340 993 q 426 958 404 971 q 472 924 451 943 q 502 963 483 944 q 542 986 521 981 l 563 986 q 558 944 560 965 q 556 903 557 925 q 556 861 556 882 q 556 815 556 838 q 558 772 557 792 q 563 729 560 750 l 542 729 q 453 905 510 844 q 313 965 396 965 q 199 918 244 965 q 153 792 153 871 m 329 1215 l 454 1215 l 315 1049 l 274 1049 l 329 1215 z "},"Ž":{"ha":639,"x_min":21,"x_max":604,"o":"m 21 0 m 160 28 l 507 28 q 531 136 507 86 q 590 222 554 186 l 604 222 q 600 185 601 204 q 598 149 599 168 q 597 111 597 129 q 598 65 597 85 q 600 29 599 44 q 604 0 601 13 l 21 0 l 465 944 l 160 944 q 136 836 160 886 q 76 750 113 786 l 63 750 q 65 788 64 768 q 68 823 67 804 q 69 861 69 842 q 68 908 69 888 q 65 943 67 928 q 63 972 64 960 l 604 972 l 160 28 m 333 1138 l 458 1221 l 493 1221 l 333 1040 l 174 1221 l 208 1221 l 333 1138 z "},"Ź":{"ha":639,"x_min":21,"x_max":604,"o":"m 21 0 m 160 28 l 507 28 q 531 136 507 86 q 590 222 554 186 l 604 222 q 600 185 601 204 q 598 149 599 168 q 597 111 597 129 q 598 65 597 85 q 600 29 599 44 q 604 0 601 13 l 21 0 l 465 944 l 160 944 q 136 836 160 886 q 76 750 113 786 l 63 750 q 65 788 64 768 q 68 823 67 804 q 69 861 69 842 q 68 908 69 888 q 65 943 67 928 q 63 972 64 960 l 604 972 l 160 28 m 368 1208 l 493 1208 l 354 1042 l 313 1042 l 368 1208 z "},"š":{"ha":563,"x_min":56,"x_max":514,"o":"m 56 0 m 299 -21 q 222 -10 254 -21 q 171 14 190 0 q 132 49 147 29 q 109 10 126 28 q 76 -14 92 -8 l 56 -14 q 58 24 57 4 q 61 59 60 40 q 63 97 63 78 q 61 139 63 118 q 58 176 60 160 q 56 215 57 196 l 76 215 q 157 61 103 115 q 285 7 211 7 q 380 43 343 7 q 417 132 417 79 q 391 197 417 169 q 326 248 365 225 q 243 293 288 271 q 160 343 199 315 q 95 408 121 371 q 69 500 69 446 q 83 560 69 531 q 122 611 97 589 q 181 647 146 633 q 257 660 215 660 q 320 649 293 660 q 367 625 347 638 q 403 590 388 610 q 426 629 408 611 q 458 653 443 647 l 479 653 q 475 615 476 635 q 473 579 474 599 q 472 542 472 560 q 473 499 472 521 q 475 461 474 478 q 479 424 476 442 l 458 424 q 381 578 432 524 q 271 632 329 632 q 192 601 224 632 q 160 528 160 569 q 186 468 160 493 q 251 422 213 443 q 337 378 290 400 q 422 326 383 356 q 488 257 461 297 q 514 160 514 217 q 498 94 514 126 q 453 35 482 61 q 385 -6 425 10 q 299 -21 346 -21 m 278 807 l 403 890 l 438 890 l 278 710 l 118 890 l 153 890 l 278 807 z "},"ś":{"ha":563,"x_min":56,"x_max":514,"o":"m 56 0 m 299 -21 q 222 -10 254 -21 q 171 14 190 0 q 132 49 147 29 q 109 10 126 28 q 76 -14 92 -8 l 56 -14 q 58 24 57 4 q 61 59 60 40 q 63 97 63 78 q 61 139 63 118 q 58 176 60 160 q 56 215 57 196 l 76 215 q 157 61 103 115 q 285 7 211 7 q 380 43 343 7 q 417 132 417 79 q 391 197 417 169 q 326 248 365 225 q 243 293 288 271 q 160 343 199 315 q 95 408 121 371 q 69 500 69 446 q 83 560 69 531 q 122 611 97 589 q 181 647 146 633 q 257 660 215 660 q 320 649 293 660 q 367 625 347 638 q 403 590 388 610 q 426 629 408 611 q 458 653 443 647 l 479 653 q 475 615 476 635 q 473 579 474 599 q 472 542 472 560 q 473 499 472 521 q 475 461 474 478 q 479 424 476 442 l 458 424 q 381 578 432 524 q 271 632 329 632 q 192 601 224 632 q 160 528 160 569 q 186 468 160 493 q 251 422 213 443 q 337 378 290 400 q 422 326 383 356 q 488 257 461 297 q 514 160 514 217 q 498 94 514 126 q 453 35 482 61 q 385 -6 425 10 q 299 -21 346 -21 m 288 883 l 413 883 l 274 717 l 232 717 l 288 883 z "},"ť":{"ha":597,"x_min":14,"x_max":569,"o":"m 500 861 q 551 838 532 861 q 569 778 569 814 q 553 688 569 722 q 517 633 536 653 q 465 597 493 610 l 451 618 q 489 644 472 629 q 516 673 504 657 q 528 708 528 689 q 526 719 528 714 q 524 728 525 724 q 521 736 522 733 q 511 732 517 733 q 493 729 500 729 q 449 747 467 729 q 431 792 431 765 q 449 842 431 824 q 500 861 468 861 m 403 639 l 403 611 l 243 611 l 243 168 q 274 45 243 83 q 340 7 304 7 q 420 42 388 7 q 458 146 453 78 l 479 146 q 431 23 474 67 q 326 -21 389 -21 q 185 31 238 -21 q 132 167 132 83 l 132 611 l 14 611 l 14 639 l 132 639 l 132 799 l 243 875 l 243 639 l 403 639 z "},"ž":{"ha":597,"x_min":49,"x_max":542,"o":"m 49 0 m 444 28 q 468 131 444 86 q 528 208 492 176 l 542 208 q 538 172 539 190 q 535 138 536 157 q 535 104 535 119 q 535 62 535 81 q 538 29 536 43 q 542 0 539 14 l 49 0 l 396 611 l 174 611 q 150 508 174 553 q 90 431 126 463 l 76 431 q 79 467 78 449 q 82 501 81 482 q 83 535 83 519 q 82 577 83 558 q 79 610 81 596 q 76 639 78 625 l 542 639 l 194 28 l 444 28 m 313 807 l 438 890 l 472 890 l 313 710 l 153 890 l 188 890 l 313 807 z "},"ź":{"ha":597,"x_min":49,"x_max":542,"o":"m 49 0 m 444 28 q 468 131 444 86 q 528 208 492 176 l 542 208 q 538 172 539 190 q 535 138 536 157 q 535 104 535 119 q 535 62 535 81 q 538 29 536 43 q 542 0 539 14 l 49 0 l 396 611 l 174 611 q 150 508 174 553 q 90 431 126 463 l 76 431 q 79 467 78 449 q 82 501 81 482 q 83 535 83 519 q 82 577 83 558 q 79 610 81 596 q 76 639 78 625 l 542 639 l 194 28 l 444 28 m 319 876 l 444 876 l 306 710 l 264 710 l 319 876 z "},"Ą":{"ha":722,"x_min":-7,"x_max":750,"o":"m 0 0 m 465 285 l 181 285 l 111 49 l 201 14 l 201 0 l -7 0 l -7 14 l 83 49 l 354 993 l 375 993 l 667 35 l 750 14 l 750 0 l 458 0 l 458 14 l 542 35 l 465 285 m 188 311 l 457 311 l 318 771 l 188 311 m 549 -118 q 571 -68 549 -90 q 621 -31 593 -46 q 694 0 653 -14 l 750 0 q 688 -36 714 -17 q 644 -74 664 -53 q 625 -118 625 -94 q 640 -153 625 -139 q 681 -167 654 -167 q 705 -162 693 -167 q 725 -150 717 -157 q 743 -132 735 -143 l 743 -167 q 721 -181 735 -175 q 693 -190 710 -186 q 653 -194 676 -194 q 574 -172 600 -194 q 549 -118 549 -150 z "},"Ș":{"ha":646,"x_min":49,"x_max":604,"o":"m 333 -97 q 384 -121 365 -97 q 403 -181 403 -144 q 386 -271 403 -236 q 350 -325 369 -306 q 299 -361 326 -349 l 285 -340 q 322 -314 306 -329 q 349 -285 338 -301 q 361 -250 361 -269 q 360 -240 361 -244 q 357 -231 358 -235 q 354 -222 356 -225 q 344 -226 350 -225 q 326 -229 333 -229 q 282 -211 300 -229 q 264 -167 264 -193 q 283 -116 264 -135 q 333 -97 301 -97 m 153 792 q 186 694 153 735 q 269 618 219 653 q 378 550 319 583 q 488 474 438 517 q 571 375 538 432 q 604 236 604 318 q 585 135 604 182 q 530 53 565 88 q 446 -1 494 18 q 340 -21 397 -21 q 250 -10 288 -21 q 188 14 213 0 q 139 49 158 29 q 109 10 128 28 q 69 -14 90 -8 l 49 -14 q 51 28 50 6 q 54 68 53 46 q 56 111 56 90 q 54 158 56 135 q 51 200 53 181 q 49 243 50 222 l 69 243 q 162 67 101 128 q 326 7 222 7 q 462 60 410 7 q 514 208 514 114 q 481 306 514 265 q 397 382 447 347 q 288 450 347 417 q 179 526 229 483 q 96 625 129 568 q 63 764 63 682 q 81 853 63 811 q 131 926 99 894 q 206 975 163 957 q 299 993 249 993 q 372 982 340 993 q 426 958 404 971 q 472 924 451 943 q 502 963 483 944 q 542 986 521 981 l 563 986 q 558 944 560 965 q 556 903 557 925 q 556 861 556 882 q 556 815 556 838 q 558 772 557 792 q 563 729 560 750 l 542 729 q 453 905 510 844 q 313 965 396 965 q 199 918 244 965 q 153 792 153 871 z "},"Ż":{"ha":639,"x_min":21,"x_max":604,"o":"m 21 0 m 160 28 l 507 28 q 531 136 507 86 q 590 222 554 186 l 604 222 q 600 185 601 204 q 598 149 599 168 q 597 111 597 129 q 598 65 597 85 q 600 29 599 44 q 604 0 601 13 l 21 0 l 465 944 l 160 944 q 136 836 160 886 q 76 750 113 786 l 63 750 q 65 788 64 768 q 68 823 67 804 q 69 861 69 842 q 68 908 69 888 q 65 943 67 928 q 63 972 64 960 l 604 972 l 160 28 m 396 1124 q 374 1076 396 1097 q 326 1054 353 1054 q 278 1076 300 1054 q 257 1124 257 1097 q 278 1172 257 1150 q 326 1193 300 1193 q 374 1172 353 1193 q 396 1124 396 1150 z "},"ą":{"ha":646,"x_min":56,"x_max":611,"o":"m 56 0 m 417 340 q 238 287 296 340 q 181 139 181 233 q 211 42 181 76 q 278 7 242 7 q 337 26 311 7 q 381 69 363 46 q 417 132 401 96 l 417 340 m 313 639 q 243 610 271 639 q 215 535 215 582 q 216 515 215 524 q 218 500 217 507 q 222 486 219 493 l 111 458 q 107 469 108 463 q 105 485 106 476 q 104 507 104 493 q 118 563 104 536 q 159 612 132 590 q 224 647 186 633 q 313 660 263 660 q 470 603 413 660 q 528 451 528 546 l 528 35 l 611 14 l 611 0 l 417 0 l 417 83 q 378 31 401 54 q 328 -5 358 11 q 257 -21 299 -21 q 106 26 157 -21 q 56 153 56 74 q 77 231 56 192 q 142 300 99 269 q 254 349 186 331 q 417 368 322 368 l 417 451 q 385 597 417 556 q 313 639 354 639 m 410 -118 q 432 -68 410 -90 q 482 -31 454 -46 q 556 0 514 -14 l 611 0 q 549 -36 575 -17 q 506 -74 525 -53 q 486 -118 486 -94 q 501 -153 486 -139 q 542 -167 515 -167 q 566 -162 554 -167 q 586 -150 578 -157 q 604 -132 596 -143 l 604 -167 q 582 -181 596 -175 q 554 -190 571 -186 q 514 -194 538 -194 q 435 -172 461 -194 q 410 -118 410 -150 z "},"ș":{"ha":563,"x_min":56,"x_max":514,"o":"m 56 0 m 299 -21 q 222 -10 254 -21 q 171 14 190 0 q 132 49 147 29 q 109 10 126 28 q 76 -14 92 -8 l 56 -14 q 58 24 57 4 q 61 59 60 40 q 63 97 63 78 q 61 139 63 118 q 58 176 60 160 q 56 215 57 196 l 76 215 q 157 61 103 115 q 285 7 211 7 q 380 43 343 7 q 417 132 417 79 q 391 197 417 169 q 326 248 365 225 q 243 293 288 271 q 160 343 199 315 q 95 408 121 371 q 69 500 69 446 q 83 560 69 531 q 122 611 97 589 q 181 647 146 633 q 257 660 215 660 q 320 649 293 660 q 367 625 347 638 q 403 590 388 610 q 426 629 408 611 q 458 653 443 647 l 479 653 q 475 615 476 635 q 473 579 474 599 q 472 542 472 560 q 473 499 472 521 q 475 461 474 478 q 479 424 476 442 l 458 424 q 381 578 432 524 q 271 632 329 632 q 192 601 224 632 q 160 528 160 569 q 186 468 160 493 q 251 422 213 443 q 337 378 290 400 q 422 326 383 356 q 488 257 461 297 q 514 160 514 217 q 498 94 514 126 q 453 35 482 61 q 385 -6 425 10 q 299 -21 346 -21 m 299 -89 q 349 -112 331 -89 q 368 -172 368 -136 q 351 -262 368 -228 q 315 -317 335 -297 q 264 -353 292 -340 l 250 -332 q 288 -306 271 -321 q 315 -277 303 -293 q 326 -242 326 -261 q 325 -231 326 -236 q 322 -222 324 -226 q 319 -214 321 -217 q 310 -218 315 -217 q 292 -221 299 -221 q 247 -203 265 -221 q 229 -158 229 -185 q 248 -108 229 -126 q 299 -89 267 -89 z "},"Ľ":{"ha":653,"x_min":63,"x_max":611,"o":"m 63 0 m 264 28 l 514 28 q 538 136 514 86 q 597 222 561 186 l 611 222 q 607 185 608 204 q 605 149 606 168 q 604 111 604 129 q 605 65 604 85 q 607 29 606 44 q 611 0 608 13 l 63 0 l 63 14 l 146 35 l 146 938 l 63 958 l 63 972 l 347 972 l 347 958 l 264 938 l 264 28 m 479 972 q 530 949 511 972 q 549 889 549 925 q 532 799 549 833 q 496 744 515 764 q 444 708 472 721 l 431 729 q 468 756 451 740 q 495 784 483 768 q 507 819 507 800 q 506 830 507 825 q 503 839 504 835 q 500 847 501 844 q 490 843 496 844 q 472 840 479 840 q 428 858 446 840 q 410 903 410 876 q 428 953 410 935 q 479 972 447 972 z "},"ľ":{"ha":493,"x_min":49,"x_max":465,"o":"m 49 0 m 132 35 l 132 938 l 49 958 l 49 972 l 243 972 l 243 35 l 326 14 l 326 0 l 49 0 l 49 14 l 132 35 m 396 972 q 447 949 428 972 q 465 889 465 925 q 449 799 465 833 q 413 744 432 764 q 361 708 389 721 l 347 729 q 385 756 368 740 q 412 784 400 768 q 424 819 424 800 q 422 830 424 825 q 419 839 421 835 q 417 847 418 844 q 407 843 413 844 q 389 840 396 840 q 344 858 363 840 q 326 903 326 876 q 345 953 326 935 q 396 972 364 972 z "},"ż":{"ha":597,"x_min":49,"x_max":542,"o":"m 49 0 m 444 28 q 468 131 444 86 q 528 208 492 176 l 542 208 q 538 172 539 190 q 535 138 536 157 q 535 104 535 119 q 535 62 535 81 q 538 29 536 43 q 542 0 539 14 l 49 0 l 396 611 l 174 611 q 150 508 174 553 q 90 431 126 463 l 76 431 q 79 467 78 449 q 82 501 81 482 q 83 535 83 519 q 82 577 83 558 q 79 610 81 596 q 76 639 78 625 l 542 639 l 194 28 l 444 28 m 389 807 q 367 759 389 781 q 319 738 346 738 q 272 759 293 738 q 250 807 250 781 q 272 855 250 833 q 319 876 293 876 q 367 855 346 876 q 389 807 389 833 z "},"Ŕ":{"ha":764,"x_min":63,"x_max":750,"o":"m 63 0 m 319 972 q 474 953 408 972 q 582 900 539 933 q 646 823 625 867 q 667 729 667 779 q 655 658 667 689 q 624 602 643 626 q 581 561 606 578 q 531 533 556 544 q 396 500 471 507 q 507 471 457 493 q 588 414 550 451 q 632 313 625 376 l 660 69 q 672 32 663 43 q 694 21 682 21 q 709 26 701 21 q 724 38 717 31 q 736 56 731 44 l 750 42 q 726 10 742 24 q 694 -11 714 -1 q 646 -21 674 -21 q 569 6 599 -21 q 535 69 539 33 l 507 313 q 489 392 501 360 q 455 446 476 425 q 400 476 433 467 q 319 486 367 486 l 264 486 l 264 35 l 347 14 l 347 0 l 63 0 l 63 14 l 146 35 l 146 938 l 63 958 l 63 972 l 319 972 m 535 729 q 479 889 535 833 q 319 944 424 944 l 264 944 l 264 514 l 319 514 q 479 569 424 514 q 535 729 535 625 m 389 1208 l 514 1208 l 375 1042 l 333 1042 l 389 1208 z "},"Á":{"ha":722,"x_min":-7,"x_max":750,"o":"m 0 0 m 465 285 l 181 285 l 111 49 l 201 14 l 201 0 l -7 0 l -7 14 l 83 49 l 354 993 l 375 993 l 667 35 l 750 14 l 750 0 l 458 0 l 458 14 l 542 35 l 465 285 m 188 311 l 457 311 l 318 771 l 188 311 m 403 1208 l 528 1208 l 389 1042 l 347 1042 l 403 1208 z "},"Â":{"ha":722,"x_min":-7,"x_max":750,"o":"m 0 0 m 465 285 l 181 285 l 111 49 l 201 14 l 201 0 l -7 0 l -7 14 l 83 49 l 354 993 l 375 993 l 667 35 l 750 14 l 750 0 l 458 0 l 458 14 l 542 35 l 465 285 m 188 311 l 457 311 l 318 771 l 188 311 m 239 1042 l 204 1042 l 364 1222 l 524 1042 l 489 1042 l 364 1125 l 239 1042 z "},"Ă":{"ha":722,"x_min":-7,"x_max":750,"o":"m 0 0 m 465 285 l 181 285 l 111 49 l 201 14 l 201 0 l -7 0 l -7 14 l 83 49 l 354 993 l 375 993 l 667 35 l 750 14 l 750 0 l 458 0 l 458 14 l 542 35 l 465 285 m 188 311 l 457 311 l 318 771 l 188 311 m 368 1063 q 413 1083 394 1063 q 431 1139 431 1103 q 429 1158 431 1150 q 426 1174 428 1167 q 424 1188 425 1181 l 514 1188 q 517 1178 515 1183 q 519 1167 518 1174 q 521 1153 521 1160 q 484 1074 521 1106 q 368 1042 447 1042 q 252 1074 289 1042 q 215 1153 215 1106 q 218 1178 215 1167 q 222 1188 219 1183 l 313 1188 q 308 1174 310 1181 q 306 1158 307 1167 q 306 1139 306 1150 q 324 1083 306 1103 q 368 1063 342 1063 z "},"Ä":{"ha":722,"x_min":-7,"x_max":750,"o":"m 0 0 m 465 285 l 181 285 l 111 49 l 201 14 l 201 0 l -7 0 l -7 14 l 83 49 l 354 993 l 375 993 l 667 35 l 750 14 l 750 0 l 458 0 l 458 14 l 542 35 l 465 285 m 188 311 l 457 311 l 318 771 l 188 311 m 319 1104 q 298 1056 319 1078 q 250 1035 276 1035 q 202 1056 224 1035 q 181 1104 181 1078 q 202 1152 181 1131 q 250 1174 224 1174 q 298 1152 276 1174 q 319 1104 319 1131 m 549 1104 q 527 1056 549 1078 q 479 1035 506 1035 q 431 1056 453 1035 q 410 1104 410 1078 q 431 1152 410 1131 q 479 1174 453 1174 q 527 1152 506 1174 q 549 1104 549 1131 z "},"Ĺ":{"ha":653,"x_min":63,"x_max":611,"o":"m 63 0 m 264 28 l 514 28 q 538 136 514 86 q 597 222 561 186 l 611 222 q 607 185 608 204 q 605 149 606 168 q 604 111 604 129 q 605 65 604 85 q 607 29 606 44 q 611 0 608 13 l 63 0 l 63 14 l 146 35 l 146 938 l 63 958 l 63 972 l 347 972 l 347 958 l 264 938 l 264 28 m 243 1208 l 368 1208 l 229 1042 l 188 1042 l 243 1208 z "},"Ć":{"ha":681,"x_min":56,"x_max":653,"o":"m 56 0 m 396 965 q 319 943 357 965 q 253 866 282 921 q 206 719 224 811 q 188 486 188 626 q 206 253 188 346 q 254 106 224 161 q 325 29 285 51 q 410 7 365 7 q 483 26 446 7 q 552 81 521 46 q 605 163 583 115 q 632 264 626 210 l 653 264 q 625 149 647 201 q 569 59 603 97 q 490 0 535 21 q 396 -21 446 -21 q 269 10 331 -21 q 160 105 208 42 q 84 263 113 168 q 56 486 56 358 q 84 709 56 614 q 159 867 113 804 q 264 962 206 931 q 382 993 322 993 q 442 982 415 993 q 489 957 469 971 q 528 922 511 942 q 558 962 539 943 q 597 986 576 981 l 618 986 q 614 944 615 965 q 612 903 613 925 q 611 861 611 882 q 612 815 611 838 q 614 772 613 792 q 618 729 615 750 l 597 729 q 512 905 565 844 q 396 965 458 965 m 389 1215 l 514 1215 l 375 1049 l 333 1049 l 389 1215 z "},"Ç":{"ha":681,"x_min":56,"x_max":653,"o":"m 56 0 m 396 965 q 319 943 357 965 q 253 866 282 921 q 206 719 224 811 q 188 486 188 626 q 206 253 188 346 q 254 106 224 161 q 325 29 285 51 q 410 7 365 7 q 483 26 446 7 q 552 81 521 46 q 605 163 583 115 q 632 264 626 210 l 653 264 q 625 149 647 201 q 569 59 603 97 q 490 0 535 21 q 396 -21 446 -21 q 269 10 331 -21 q 160 105 208 42 q 84 263 113 168 q 56 486 56 358 q 84 709 56 614 q 159 867 113 804 q 264 962 206 931 q 382 993 322 993 q 442 982 415 993 q 489 957 469 971 q 528 922 511 942 q 558 962 539 943 q 597 986 576 981 l 618 986 q 614 944 615 965 q 612 903 613 925 q 611 861 611 882 q 612 815 611 838 q 614 772 613 792 q 618 729 615 750 l 597 729 q 512 905 565 844 q 396 965 458 965 m 347 0 l 382 0 l 382 -49 q 460 -72 435 -49 q 486 -132 486 -96 q 458 -192 486 -168 q 361 -215 429 -215 q 338 -215 347 -215 q 321 -212 328 -214 q 306 -208 313 -211 l 306 -179 q 318 -183 311 -182 q 347 -187 331 -187 q 394 -170 379 -187 q 410 -132 410 -153 q 394 -87 410 -106 q 347 -69 379 -69 l 347 0 z "},"Č":{"ha":681,"x_min":56,"x_max":653,"o":"m 56 0 m 396 965 q 319 943 357 965 q 253 866 282 921 q 206 719 224 811 q 188 486 188 626 q 206 253 188 346 q 254 106 224 161 q 325 29 285 51 q 410 7 365 7 q 483 26 446 7 q 552 81 521 46 q 605 163 583 115 q 632 264 626 210 l 653 264 q 625 149 647 201 q 569 59 603 97 q 490 0 535 21 q 396 -21 446 -21 q 269 10 331 -21 q 160 105 208 42 q 84 263 113 168 q 56 486 56 358 q 84 709 56 614 q 159 867 113 804 q 264 962 206 931 q 382 993 322 993 q 442 982 415 993 q 489 957 469 971 q 528 922 511 942 q 558 962 539 943 q 597 986 576 981 l 618 986 q 614 944 615 965 q 612 903 613 925 q 611 861 611 882 q 612 815 611 838 q 614 772 613 792 q 618 729 615 750 l 597 729 q 512 905 565 844 q 396 965 458 965 m 375 1139 l 500 1222 l 535 1222 l 375 1042 l 215 1222 l 250 1222 l 375 1139 z "},"É":{"ha":701,"x_min":63,"x_max":639,"o":"m 63 0 m 542 28 q 565 136 542 86 q 625 222 589 186 l 639 222 q 635 185 636 204 q 633 149 633 168 q 632 111 632 129 q 633 65 632 85 q 635 29 633 44 q 639 0 636 13 l 63 0 l 63 14 l 146 35 l 146 938 l 63 958 l 63 972 l 625 972 q 621 943 622 960 q 619 908 619 928 q 618 861 618 888 q 619 823 618 842 q 621 788 619 804 q 625 750 622 768 l 611 750 q 551 836 575 786 q 528 944 528 886 l 264 944 l 264 528 l 396 528 l 458 653 l 472 653 l 472 375 l 458 375 l 396 500 l 264 500 l 264 28 l 542 28 m 399 1208 l 524 1208 l 385 1042 l 343 1042 l 399 1208 z "},"Ę":{"ha":701,"x_min":63,"x_max":639,"o":"m 63 0 m 542 28 q 565 136 542 86 q 625 222 589 186 l 639 222 q 635 185 636 204 q 633 149 633 168 q 632 111 632 129 q 633 65 632 85 q 635 29 633 44 q 639 0 636 13 l 63 0 l 63 14 l 146 35 l 146 938 l 63 958 l 63 972 l 625 972 q 621 943 622 960 q 619 908 619 928 q 618 861 618 888 q 619 823 618 842 q 621 788 619 804 q 625 750 622 768 l 611 750 q 551 836 575 786 q 528 944 528 886 l 264 944 l 264 528 l 396 528 l 458 653 l 472 653 l 472 375 l 458 375 l 396 500 l 264 500 l 264 28 l 542 28 m 271 -118 q 293 -68 271 -90 q 343 -31 315 -46 q 417 0 375 -14 l 472 0 q 410 -36 436 -17 q 367 -74 386 -53 q 347 -118 347 -94 q 362 -153 347 -139 q 403 -167 376 -167 q 427 -162 415 -167 q 447 -150 439 -157 q 465 -132 457 -143 l 465 -167 q 443 -181 457 -175 q 415 -190 432 -186 q 375 -194 399 -194 q 297 -172 322 -194 q 271 -118 271 -150 z "},"Ë":{"ha":701,"x_min":63,"x_max":639,"o":"m 63 0 m 542 28 q 565 136 542 86 q 625 222 589 186 l 639 222 q 635 185 636 204 q 633 149 633 168 q 632 111 632 129 q 633 65 632 85 q 635 29 633 44 q 639 0 636 13 l 63 0 l 63 14 l 146 35 l 146 938 l 63 958 l 63 972 l 625 972 q 621 943 622 960 q 619 908 619 928 q 618 861 618 888 q 619 823 618 842 q 621 788 619 804 q 625 750 622 768 l 611 750 q 551 836 575 786 q 528 944 528 886 l 264 944 l 264 528 l 396 528 l 458 653 l 472 653 l 472 375 l 458 375 l 396 500 l 264 500 l 264 28 l 542 28 m 333 1125 q 312 1077 333 1099 q 264 1056 290 1056 q 216 1077 238 1056 q 194 1125 194 1099 q 216 1173 194 1151 q 264 1194 238 1194 q 312 1173 290 1194 q 333 1125 333 1151 m 563 1125 q 541 1077 563 1099 q 493 1056 519 1056 q 445 1077 467 1056 q 424 1125 424 1099 q 445 1173 424 1151 q 493 1194 467 1194 q 541 1173 519 1194 q 563 1125 563 1151 z "},"Ě":{"ha":701,"x_min":63,"x_max":639,"o":"m 63 0 m 542 28 q 565 136 542 86 q 625 222 589 186 l 639 222 q 635 185 636 204 q 633 149 633 168 q 632 111 632 129 q 633 65 632 85 q 635 29 633 44 q 639 0 636 13 l 63 0 l 63 14 l 146 35 l 146 938 l 63 958 l 63 972 l 625 972 q 621 943 622 960 q 619 908 619 928 q 618 861 618 888 q 619 823 618 842 q 621 788 619 804 q 625 750 622 768 l 611 750 q 551 836 575 786 q 528 944 528 886 l 264 944 l 264 528 l 396 528 l 458 653 l 472 653 l 472 375 l 458 375 l 396 500 l 264 500 l 264 28 l 542 28 m 382 1139 l 507 1222 l 542 1222 l 382 1042 l 222 1222 l 257 1222 l 382 1139 z "},"Í":{"ha":410,"x_min":63,"x_max":364,"o":"m 63 0 m 264 35 l 347 14 l 347 0 l 63 0 l 63 14 l 146 35 l 146 938 l 63 958 l 63 972 l 347 972 l 347 958 l 264 938 l 264 35 m 239 1208 l 364 1208 l 225 1042 l 183 1042 l 239 1208 z "},"Î":{"ha":410,"x_min":49,"x_max":368,"o":"m 49 0 m 264 35 l 347 14 l 347 0 l 63 0 l 63 14 l 146 35 l 146 938 l 63 958 l 63 972 l 347 972 l 347 958 l 264 938 l 264 35 m 83 1049 l 49 1049 l 208 1229 l 368 1049 l 333 1049 l 208 1132 l 83 1049 z "},"Ď":{"ha":778,"x_min":63,"x_max":729,"o":"m 63 0 m 306 972 q 474 939 397 972 q 608 843 551 906 q 697 690 665 781 q 729 486 729 600 q 697 281 729 371 q 608 128 665 190 q 474 33 551 65 q 306 0 397 0 l 63 0 l 63 14 l 146 35 l 146 938 l 63 958 l 63 972 l 306 972 m 264 944 l 264 28 l 306 28 q 419 53 365 28 q 512 135 472 79 q 574 277 551 190 q 597 486 597 364 q 574 695 597 608 q 512 838 551 782 q 419 919 472 893 q 306 944 365 944 l 264 944 m 347 1138 l 472 1221 l 507 1221 l 347 1040 l 188 1221 l 222 1221 l 347 1138 z "},"Ń":{"ha":813,"x_min":56,"x_max":757,"o":"m 56 0 m 639 924 l 549 958 l 549 972 l 757 972 l 757 958 l 667 924 l 667 -14 l 646 -14 l 174 854 l 174 49 l 264 14 l 264 0 l 56 0 l 56 14 l 146 49 l 146 931 l 56 958 l 56 972 l 243 972 l 639 243 l 639 924 m 440 1208 l 565 1208 l 426 1042 l 385 1042 l 440 1208 z "},"Ň":{"ha":813,"x_min":56,"x_max":757,"o":"m 56 0 m 639 924 l 549 958 l 549 972 l 757 972 l 757 958 l 667 924 l 667 -14 l 646 -14 l 174 854 l 174 49 l 264 14 l 264 0 l 56 0 l 56 14 l 146 49 l 146 931 l 56 958 l 56 972 l 243 972 l 639 243 l 639 924 m 419 1118 l 544 1201 l 579 1201 l 419 1021 l 260 1201 l 294 1201 l 419 1118 z "},"Ó":{"ha":764,"x_min":56,"x_max":708,"o":"m 56 0 m 708 486 q 680 263 708 358 q 605 105 651 168 q 500 10 558 42 q 382 -21 442 -21 q 264 10 322 -21 q 159 105 206 42 q 84 263 113 168 q 56 486 56 358 q 84 709 56 614 q 159 867 113 804 q 264 962 206 931 q 382 993 322 993 q 500 962 442 993 q 605 867 558 931 q 680 709 651 804 q 708 486 708 614 m 576 486 q 559 723 576 629 q 513 872 542 817 q 450 950 485 928 q 382 972 415 972 q 314 950 349 972 q 251 872 279 928 q 205 723 222 817 q 188 486 188 629 q 205 249 188 343 q 251 100 222 156 q 314 22 279 44 q 382 0 349 0 q 450 22 415 0 q 513 100 485 44 q 559 249 542 156 q 576 486 576 343 m 411 1217 l 536 1217 l 397 1050 l 356 1050 l 411 1217 z "},"Ô":{"ha":764,"x_min":56,"x_max":708,"o":"m 56 0 m 708 486 q 680 263 708 358 q 605 105 651 168 q 500 10 558 42 q 382 -21 442 -21 q 264 10 322 -21 q 159 105 206 42 q 84 263 113 168 q 56 486 56 358 q 84 709 56 614 q 159 867 113 804 q 264 962 206 931 q 382 993 322 993 q 500 962 442 993 q 605 867 558 931 q 680 709 651 804 q 708 486 708 614 m 576 486 q 559 723 576 629 q 513 872 542 817 q 450 950 485 928 q 382 972 415 972 q 314 950 349 972 q 251 872 279 928 q 205 723 222 817 q 188 486 188 629 q 205 249 188 343 q 251 100 222 156 q 314 22 279 44 q 382 0 349 0 q 450 22 415 0 q 513 100 485 44 q 559 249 542 156 q 576 486 576 343 m 257 1049 l 222 1049 l 382 1229 l 542 1049 l 507 1049 l 382 1132 l 257 1049 z "},"Ő":{"ha":764,"x_min":56,"x_max":708,"o":"m 56 0 m 708 486 q 680 263 708 358 q 605 105 651 168 q 500 10 558 42 q 382 -21 442 -21 q 264 10 322 -21 q 159 105 206 42 q 84 263 113 168 q 56 486 56 358 q 84 709 56 614 q 159 867 113 804 q 264 962 206 931 q 382 993 322 993 q 500 962 442 993 q 605 867 558 931 q 680 709 651 804 q 708 486 708 614 m 576 486 q 559 723 576 629 q 513 872 542 817 q 450 950 485 928 q 382 972 415 972 q 314 950 349 972 q 251 872 279 928 q 205 723 222 817 q 188 486 188 629 q 205 249 188 343 q 251 100 222 156 q 314 22 279 44 q 382 0 349 0 q 450 22 415 0 q 513 100 485 44 q 559 249 542 156 q 576 486 576 343 m 326 1222 l 438 1222 l 313 1056 l 271 1056 l 326 1222 m 479 1222 l 590 1222 l 465 1056 l 424 1056 l 479 1222 z "},"Ö":{"ha":764,"x_min":56,"x_max":708,"o":"m 56 0 m 708 486 q 680 263 708 358 q 605 105 651 168 q 500 10 558 42 q 382 -21 442 -21 q 264 10 322 -21 q 159 105 206 42 q 84 263 113 168 q 56 486 56 358 q 84 709 56 614 q 159 867 113 804 q 264 962 206 931 q 382 993 322 993 q 500 962 442 993 q 605 867 558 931 q 680 709 651 804 q 708 486 708 614 m 576 486 q 559 723 576 629 q 513 872 542 817 q 450 950 485 928 q 382 972 415 972 q 314 950 349 972 q 251 872 279 928 q 205 723 222 817 q 188 486 188 629 q 205 249 188 343 q 251 100 222 156 q 314 22 279 44 q 382 0 349 0 q 450 22 415 0 q 513 100 485 44 q 559 249 542 156 q 576 486 576 343 m 336 1125 q 315 1077 336 1099 q 267 1056 293 1056 q 219 1077 240 1056 q 197 1125 197 1099 q 219 1173 197 1151 q 267 1194 240 1194 q 315 1173 293 1194 q 336 1125 336 1151 m 565 1125 q 544 1077 565 1099 q 496 1056 522 1056 q 448 1077 469 1056 q 426 1125 426 1099 q 448 1173 426 1151 q 496 1194 469 1194 q 544 1173 522 1194 q 565 1125 565 1151 z "},"Ř":{"ha":764,"x_min":63,"x_max":750,"o":"m 63 0 m 319 972 q 474 953 408 972 q 582 900 539 933 q 646 823 625 867 q 667 729 667 779 q 655 658 667 689 q 624 602 643 626 q 581 561 606 578 q 531 533 556 544 q 396 500 471 507 q 507 471 457 493 q 588 414 550 451 q 632 313 625 376 l 660 69 q 672 32 663 43 q 694 21 682 21 q 709 26 701 21 q 724 38 717 31 q 736 56 731 44 l 750 42 q 726 10 742 24 q 694 -11 714 -1 q 646 -21 674 -21 q 569 6 599 -21 q 535 69 539 33 l 507 313 q 489 392 501 360 q 455 446 476 425 q 400 476 433 467 q 319 486 367 486 l 264 486 l 264 35 l 347 14 l 347 0 l 63 0 l 63 14 l 146 35 l 146 938 l 63 958 l 63 972 l 319 972 m 535 729 q 479 889 535 833 q 319 944 424 944 l 264 944 l 264 514 l 319 514 q 479 569 424 514 q 535 729 535 625 m 368 1132 l 493 1215 l 528 1215 l 368 1035 l 208 1215 l 243 1215 l 368 1132 z "},"Ů":{"ha":792,"x_min":42,"x_max":764,"o":"m 42 0 m 674 278 q 609 50 674 121 q 424 -21 544 -21 q 203 58 282 -21 q 125 278 125 136 l 125 938 l 42 958 l 42 972 l 326 972 l 326 958 l 243 938 l 243 278 q 299 72 243 138 q 438 7 354 7 q 523 23 485 7 q 588 72 561 39 q 631 156 615 106 q 646 278 646 207 l 646 924 l 556 958 l 556 972 l 764 972 l 764 958 l 674 924 l 674 278 m 549 1139 q 517 1063 549 1092 q 438 1035 485 1035 q 358 1063 390 1035 q 326 1139 326 1092 q 358 1215 326 1186 q 438 1243 390 1243 q 517 1215 485 1243 q 549 1139 549 1186 m 486 1139 q 472 1195 486 1175 q 438 1215 458 1215 q 403 1195 417 1215 q 389 1139 389 1175 q 403 1083 389 1103 q 438 1063 417 1063 q 472 1083 458 1063 q 486 1139 486 1103 z "},"Ú":{"ha":792,"x_min":42,"x_max":764,"o":"m 42 0 m 674 278 q 609 50 674 121 q 424 -21 544 -21 q 203 58 282 -21 q 125 278 125 136 l 125 938 l 42 958 l 42 972 l 326 972 l 326 958 l 243 938 l 243 278 q 299 72 243 138 q 438 7 354 7 q 523 23 485 7 q 588 72 561 39 q 631 156 615 106 q 646 278 646 207 l 646 924 l 556 958 l 556 972 l 764 972 l 764 958 l 674 924 l 674 278 m 451 1207 l 576 1207 l 438 1040 l 396 1040 l 451 1207 z "},"Ű":{"ha":792,"x_min":42,"x_max":764,"o":"m 42 0 m 674 278 q 609 50 674 121 q 424 -21 544 -21 q 203 58 282 -21 q 125 278 125 136 l 125 938 l 42 958 l 42 972 l 326 972 l 326 958 l 243 938 l 243 278 q 299 72 243 138 q 438 7 354 7 q 523 23 485 7 q 588 72 561 39 q 631 156 615 106 q 646 278 646 207 l 646 924 l 556 958 l 556 972 l 764 972 l 764 958 l 674 924 l 674 278 m 375 1207 l 486 1207 l 361 1040 l 319 1040 l 375 1207 m 528 1207 l 639 1207 l 514 1040 l 472 1040 l 528 1207 z "},"Ü":{"ha":792,"x_min":42,"x_max":764,"o":"m 42 0 m 674 278 q 609 50 674 121 q 424 -21 544 -21 q 203 58 282 -21 q 125 278 125 136 l 125 938 l 42 958 l 42 972 l 326 972 l 326 958 l 243 938 l 243 278 q 299 72 243 138 q 438 7 354 7 q 523 23 485 7 q 588 72 561 39 q 631 156 615 106 q 646 278 646 207 l 646 924 l 556 958 l 556 972 l 764 972 l 764 958 l 674 924 l 674 278 m 378 1125 q 356 1077 378 1099 q 308 1056 335 1056 q 260 1077 282 1056 q 239 1125 239 1099 q 260 1173 239 1151 q 308 1194 282 1194 q 356 1173 335 1194 q 378 1125 378 1151 m 607 1125 q 585 1077 607 1099 q 538 1056 564 1056 q 490 1077 511 1056 q 468 1125 468 1099 q 490 1173 468 1151 q 538 1194 511 1194 q 585 1173 564 1194 q 607 1125 607 1151 z "},"Ý":{"ha":681,"x_min":-7,"x_max":708,"o":"m 0 0 m 410 389 l 410 35 l 493 14 l 493 0 l 208 0 l 208 14 l 292 35 l 292 382 l 76 938 l -7 958 l -7 972 l 285 972 l 285 958 l 201 938 l 399 431 l 590 924 l 500 958 l 500 972 l 708 972 l 708 958 l 618 924 l 410 389 m 406 1207 l 531 1207 l 392 1040 l 350 1040 l 406 1207 z "},"Ţ":{"ha":688,"x_min":42,"x_max":646,"o":"m 42 0 m 403 35 l 486 14 l 486 0 l 201 0 l 201 14 l 285 35 l 285 944 l 139 944 q 115 836 139 886 q 56 750 92 786 l 42 750 q 44 788 43 768 q 47 823 46 804 q 49 861 49 842 q 47 908 49 888 q 44 943 46 928 q 42 972 43 960 l 646 972 q 642 943 643 960 q 640 908 640 928 q 639 861 639 888 q 640 823 639 842 q 642 788 640 804 q 646 750 643 768 l 632 750 q 572 836 596 786 q 549 944 549 886 l 403 944 l 403 35 m 347 -82 q 398 -106 379 -82 q 417 -165 417 -129 q 400 -256 417 -221 q 364 -310 383 -290 q 313 -346 340 -333 l 299 -325 q 336 -299 319 -314 q 363 -270 351 -286 q 375 -235 375 -254 q 374 -224 375 -229 q 371 -215 372 -219 q 368 -207 369 -210 q 358 -211 364 -210 q 340 -214 347 -214 q 296 -196 314 -214 q 278 -151 278 -178 q 297 -101 278 -119 q 347 -82 315 -82 z "},"ŕ":{"ha":500,"x_min":49,"x_max":493,"o":"m 49 0 m 243 35 l 326 14 l 326 0 l 49 0 l 49 14 l 132 35 l 132 604 l 49 625 l 49 639 l 243 639 l 243 472 q 286 565 261 524 q 340 631 308 601 q 417 660 372 660 q 446 658 432 660 q 471 653 460 656 q 493 646 483 649 l 451 542 q 433 551 443 546 q 413 559 425 556 q 389 563 401 563 q 325 543 353 563 q 279 500 297 524 q 243 438 257 472 l 243 35 m 313 890 l 438 890 l 299 724 l 257 724 l 313 890 z "},"á":{"ha":646,"x_min":56,"x_max":611,"o":"m 56 0 m 417 340 q 238 287 296 340 q 181 139 181 233 q 211 42 181 76 q 278 7 242 7 q 337 26 311 7 q 381 69 363 46 q 417 132 401 96 l 417 340 m 313 639 q 243 610 271 639 q 215 535 215 582 q 216 515 215 524 q 218 500 217 507 q 222 486 219 493 l 111 458 q 107 469 108 463 q 105 485 106 476 q 104 507 104 493 q 118 563 104 536 q 159 612 132 590 q 224 647 186 633 q 313 660 263 660 q 470 603 413 660 q 528 451 528 546 l 528 35 l 611 14 l 611 0 l 417 0 l 417 83 q 378 31 401 54 q 328 -5 358 11 q 257 -21 299 -21 q 106 26 157 -21 q 56 153 56 74 q 77 231 56 192 q 142 300 99 269 q 254 349 186 331 q 417 368 322 368 l 417 451 q 385 597 417 556 q 313 639 354 639 m 333 883 l 458 883 l 319 717 l 278 717 l 333 883 z "},"â":{"ha":646,"x_min":56,"x_max":611,"o":"m 56 0 m 417 340 q 238 287 296 340 q 181 139 181 233 q 211 42 181 76 q 278 7 242 7 q 337 26 311 7 q 381 69 363 46 q 417 132 401 96 l 417 340 m 313 639 q 243 610 271 639 q 215 535 215 582 q 216 515 215 524 q 218 500 217 507 q 222 486 219 493 l 111 458 q 107 469 108 463 q 105 485 106 476 q 104 507 104 493 q 118 563 104 536 q 159 612 132 590 q 224 647 186 633 q 313 660 263 660 q 470 603 413 660 q 528 451 528 546 l 528 35 l 611 14 l 611 0 l 417 0 l 417 83 q 378 31 401 54 q 328 -5 358 11 q 257 -21 299 -21 q 106 26 157 -21 q 56 153 56 74 q 77 231 56 192 q 142 300 99 269 q 254 349 186 331 q 417 368 322 368 l 417 451 q 385 597 417 556 q 313 639 354 639 m 194 724 l 160 724 l 319 904 l 479 724 l 444 724 l 319 807 l 194 724 z "},"ă":{"ha":646,"x_min":56,"x_max":611,"o":"m 56 0 m 417 340 q 238 287 296 340 q 181 139 181 233 q 211 42 181 76 q 278 7 242 7 q 337 26 311 7 q 381 69 363 46 q 417 132 401 96 l 417 340 m 313 639 q 243 610 271 639 q 215 535 215 582 q 216 515 215 524 q 218 500 217 507 q 222 486 219 493 l 111 458 q 107 469 108 463 q 105 485 106 476 q 104 507 104 493 q 118 563 104 536 q 159 612 132 590 q 224 647 186 633 q 313 660 263 660 q 470 603 413 660 q 528 451 528 546 l 528 35 l 611 14 l 611 0 l 417 0 l 417 83 q 378 31 401 54 q 328 -5 358 11 q 257 -21 299 -21 q 106 26 157 -21 q 56 153 56 74 q 77 231 56 192 q 142 300 99 269 q 254 349 186 331 q 417 368 322 368 l 417 451 q 385 597 417 556 q 313 639 354 639 m 319 744 q 364 765 346 744 q 382 821 382 785 q 381 840 382 832 q 378 856 379 849 q 375 869 376 863 l 465 869 q 468 860 467 865 q 471 849 469 856 q 472 835 472 842 q 435 756 472 788 q 319 724 399 724 q 203 756 240 724 q 167 835 167 788 q 169 860 167 849 q 174 869 171 865 l 264 869 q 260 856 261 863 q 258 840 258 849 q 257 821 257 832 q 275 765 257 785 q 319 744 293 744 z "},"ä":{"ha":646,"x_min":56,"x_max":611,"o":"m 56 0 m 417 340 q 238 287 296 340 q 181 139 181 233 q 211 42 181 76 q 278 7 242 7 q 337 26 311 7 q 381 69 363 46 q 417 132 401 96 l 417 340 m 313 639 q 243 610 271 639 q 215 535 215 582 q 216 515 215 524 q 218 500 217 507 q 222 486 219 493 l 111 458 q 107 469 108 463 q 105 485 106 476 q 104 507 104 493 q 118 563 104 536 q 159 612 132 590 q 224 647 186 633 q 313 660 263 660 q 470 603 413 660 q 528 451 528 546 l 528 35 l 611 14 l 611 0 l 417 0 l 417 83 q 378 31 401 54 q 328 -5 358 11 q 257 -21 299 -21 q 106 26 157 -21 q 56 153 56 74 q 77 231 56 192 q 142 300 99 269 q 254 349 186 331 q 417 368 322 368 l 417 451 q 385 597 417 556 q 313 639 354 639 m 275 807 q 253 759 275 781 q 206 738 232 738 q 158 759 179 738 q 136 807 136 781 q 158 855 136 833 q 206 876 179 876 q 253 855 232 876 q 275 807 275 833 m 504 807 q 483 759 504 781 q 435 738 461 738 q 387 759 408 738 q 365 807 365 781 q 387 855 365 833 q 435 876 408 876 q 483 855 461 876 q 504 807 504 833 z "},"ĺ":{"ha":354,"x_min":42,"x_max":319,"o":"m 42 0 m 125 35 l 125 938 l 42 958 l 42 972 l 236 972 l 236 35 l 319 14 l 319 0 l 42 0 l 42 14 l 125 35 m 194 1208 l 319 1208 l 181 1042 l 139 1042 l 194 1208 z "},"ć":{"ha":597,"x_min":63,"x_max":556,"o":"m 63 0 m 333 632 q 281 616 307 632 q 235 564 256 600 q 201 468 214 528 q 188 319 188 408 q 201 171 188 231 q 236 74 214 111 q 287 22 258 38 q 347 7 315 7 q 415 21 383 7 q 472 58 447 35 q 513 115 497 82 q 535 188 529 149 l 556 188 q 531 105 550 143 q 483 39 513 67 q 416 -5 454 11 q 333 -21 378 -21 q 230 2 279 -21 q 143 69 181 25 q 84 176 106 113 q 63 319 63 239 q 84 463 63 400 q 142 570 106 526 q 224 637 178 614 q 319 660 269 660 q 378 649 353 660 q 422 625 404 638 q 458 590 443 610 q 481 629 464 611 q 514 653 499 647 l 535 653 q 531 615 532 635 q 528 579 529 599 q 528 542 528 560 q 528 499 528 521 q 531 461 529 478 q 535 424 532 442 l 514 424 q 437 578 488 524 q 333 632 386 632 m 333 883 l 458 883 l 319 717 l 278 717 l 333 883 z "},"ç":{"ha":597,"x_min":63,"x_max":556,"o":"m 63 0 m 333 632 q 281 616 307 632 q 235 564 256 600 q 201 468 214 528 q 188 319 188 408 q 201 171 188 231 q 236 74 214 111 q 287 22 258 38 q 347 7 315 7 q 415 21 383 7 q 472 58 447 35 q 513 115 497 82 q 535 188 529 149 l 556 188 q 531 105 550 143 q 483 39 513 67 q 416 -5 454 11 q 333 -21 378 -21 q 230 2 279 -21 q 143 69 181 25 q 84 176 106 113 q 63 319 63 239 q 84 463 63 400 q 142 570 106 526 q 224 637 178 614 q 319 660 269 660 q 378 649 353 660 q 422 625 404 638 q 458 590 443 610 q 481 629 464 611 q 514 653 499 647 l 535 653 q 531 615 532 635 q 528 579 529 599 q 528 542 528 560 q 528 499 528 521 q 531 461 529 478 q 535 424 532 442 l 514 424 q 437 578 488 524 q 333 632 386 632 m 292 0 l 326 0 l 326 -49 q 405 -72 379 -49 q 431 -132 431 -96 q 402 -192 431 -168 q 306 -215 374 -215 q 282 -215 292 -215 q 265 -212 272 -214 q 250 -208 257 -211 l 250 -179 q 263 -183 256 -182 q 292 -187 275 -187 q 339 -170 324 -187 q 354 -132 354 -153 q 339 -87 354 -106 q 292 -69 324 -69 l 292 0 z "},"č":{"ha":597,"x_min":63,"x_max":556,"o":"m 63 0 m 333 632 q 281 616 307 632 q 235 564 256 600 q 201 468 214 528 q 188 319 188 408 q 201 171 188 231 q 236 74 214 111 q 287 22 258 38 q 347 7 315 7 q 415 21 383 7 q 472 58 447 35 q 513 115 497 82 q 535 188 529 149 l 556 188 q 531 105 550 143 q 483 39 513 67 q 416 -5 454 11 q 333 -21 378 -21 q 230 2 279 -21 q 143 69 181 25 q 84 176 106 113 q 63 319 63 239 q 84 463 63 400 q 142 570 106 526 q 224 637 178 614 q 319 660 269 660 q 378 649 353 660 q 422 625 404 638 q 458 590 443 610 q 481 629 464 611 q 514 653 499 647 l 535 653 q 531 615 532 635 q 528 579 529 599 q 528 542 528 560 q 528 499 528 521 q 531 461 529 478 q 535 424 532 442 l 514 424 q 437 578 488 524 q 333 632 386 632 m 313 807 l 438 890 l 472 890 l 313 710 l 153 890 l 188 890 l 313 807 z "},"é":{"ha":618,"x_min":63,"x_max":563,"o":"m 63 0 m 188 319 q 201 171 188 231 q 235 74 214 111 q 284 22 257 38 q 340 7 311 7 q 408 21 376 7 q 465 58 440 35 q 506 115 490 82 q 528 188 522 149 l 549 188 q 524 105 543 143 q 476 39 506 67 q 409 -5 447 11 q 326 -21 371 -21 q 226 2 274 -21 q 142 69 179 25 q 84 176 106 113 q 63 319 63 239 q 83 467 63 403 q 138 573 104 531 q 217 638 172 615 q 313 660 263 660 q 408 638 363 660 q 487 573 453 615 q 542 467 521 531 q 563 319 563 403 l 188 319 m 313 639 q 271 626 292 639 q 232 579 250 613 q 202 490 214 546 q 188 347 190 433 l 438 347 q 423 490 435 433 q 393 579 411 546 q 354 626 375 613 q 313 639 333 639 m 333 883 l 458 883 l 319 717 l 278 717 l 333 883 z "},"ę":{"ha":618,"x_min":63,"x_max":563,"o":"m 63 0 m 188 319 q 201 171 188 231 q 235 74 214 111 q 284 22 257 38 q 340 7 311 7 q 408 21 376 7 q 465 58 440 35 q 506 115 490 82 q 528 188 522 149 l 549 188 q 524 105 543 143 q 476 39 506 67 q 409 -5 447 11 q 326 -21 371 -21 q 226 2 274 -21 q 142 69 179 25 q 84 176 106 113 q 63 319 63 239 q 83 467 63 403 q 138 573 104 531 q 217 638 172 615 q 313 660 263 660 q 408 638 363 660 q 487 573 453 615 q 542 467 521 531 q 563 319 563 403 l 188 319 m 313 639 q 271 626 292 639 q 232 579 250 613 q 202 490 214 546 q 188 347 190 433 l 438 347 q 423 490 435 433 q 393 579 411 546 q 354 626 375 613 q 313 639 333 639 m 215 -118 q 238 -68 215 -90 q 288 -31 260 -46 q 361 0 319 -14 l 417 0 q 354 -36 381 -17 q 311 -74 331 -53 q 292 -118 292 -94 q 306 -153 292 -139 q 347 -167 321 -167 q 372 -162 360 -167 q 392 -150 383 -157 q 410 -132 401 -143 l 410 -167 q 388 -181 401 -175 q 360 -190 376 -186 q 319 -194 343 -194 q 241 -172 267 -194 q 215 -118 215 -150 z "},"ë":{"ha":618,"x_min":63,"x_max":563,"o":"m 63 0 m 188 319 q 201 171 188 231 q 235 74 214 111 q 284 22 257 38 q 340 7 311 7 q 408 21 376 7 q 465 58 440 35 q 506 115 490 82 q 528 188 522 149 l 549 188 q 524 105 543 143 q 476 39 506 67 q 409 -5 447 11 q 326 -21 371 -21 q 226 2 274 -21 q 142 69 179 25 q 84 176 106 113 q 63 319 63 239 q 83 467 63 403 q 138 573 104 531 q 217 638 172 615 q 313 660 263 660 q 408 638 363 660 q 487 573 453 615 q 542 467 521 531 q 563 319 563 403 l 188 319 m 313 639 q 271 626 292 639 q 232 579 250 613 q 202 490 214 546 q 188 347 190 433 l 438 347 q 423 490 435 433 q 393 579 411 546 q 354 626 375 613 q 313 639 333 639 m 269 807 q 248 759 269 781 q 200 738 226 738 q 152 759 174 738 q 131 807 131 781 q 152 855 131 833 q 200 876 174 876 q 248 855 226 876 q 269 807 269 833 m 499 807 q 477 759 499 781 q 429 738 456 738 q 381 759 403 738 q 360 807 360 781 q 381 855 360 833 q 429 876 403 876 q 477 855 456 876 q 499 807 499 833 z "},"ě":{"ha":618,"x_min":63,"x_max":563,"o":"m 63 0 m 188 319 q 201 171 188 231 q 235 74 214 111 q 284 22 257 38 q 340 7 311 7 q 408 21 376 7 q 465 58 440 35 q 506 115 490 82 q 528 188 522 149 l 549 188 q 524 105 543 143 q 476 39 506 67 q 409 -5 447 11 q 326 -21 371 -21 q 226 2 274 -21 q 142 69 179 25 q 84 176 106 113 q 63 319 63 239 q 83 467 63 403 q 138 573 104 531 q 217 638 172 615 q 313 660 263 660 q 408 638 363 660 q 487 573 453 615 q 542 467 521 531 q 563 319 563 403 l 188 319 m 313 639 q 271 626 292 639 q 232 579 250 613 q 202 490 214 546 q 188 347 190 433 l 438 347 q 423 490 435 433 q 393 579 411 546 q 354 626 375 613 q 313 639 333 639 m 322 807 l 447 890 l 482 890 l 322 710 l 163 890 l 197 890 l 322 807 z "},"í":{"ha":361,"x_min":49,"x_max":340,"o":"m 132 35 l 132 604 l 49 625 l 49 639 l 243 639 l 243 35 l 326 14 l 326 0 l 49 0 l 49 14 l 132 35 m 215 875 l 340 875 l 201 708 l 160 708 l 215 875 z "},"î":{"ha":361,"x_min":21,"x_max":340,"o":"m 132 35 l 132 604 l 49 625 l 49 639 l 243 639 l 243 35 l 326 14 l 326 0 l 49 0 l 49 14 l 132 35 m 56 722 l 21 722 l 181 903 l 340 722 l 306 722 l 181 806 l 56 722 z "},"ď":{"ha":813,"x_min":56,"x_max":785,"o":"m 56 0 m 333 632 q 277 616 304 632 q 228 564 250 600 q 194 468 207 528 q 181 319 181 408 q 194 171 181 231 q 227 74 207 111 q 272 22 247 38 q 319 7 296 7 q 378 26 353 7 q 422 69 404 46 q 458 132 443 96 l 458 549 q 426 590 444 572 q 388 619 411 606 q 333 632 365 632 m 569 35 l 653 14 l 653 0 l 458 0 l 458 83 q 419 31 443 54 q 370 -5 400 11 q 299 -21 340 -21 q 210 2 254 -21 q 133 69 167 25 q 77 176 99 113 q 56 319 56 239 q 77 463 56 400 q 135 570 99 526 q 217 637 171 614 q 313 660 263 660 q 379 649 351 660 q 425 625 407 638 q 458 590 446 610 l 458 938 l 375 958 l 375 972 l 569 972 l 569 35 m 715 972 q 766 949 747 972 q 785 889 785 925 q 768 799 785 833 q 732 744 751 764 q 681 708 708 721 l 667 729 q 704 756 688 740 q 731 784 719 768 q 743 819 743 800 q 742 830 743 825 q 739 839 740 835 q 736 847 738 844 q 726 843 732 844 q 708 840 715 840 q 664 858 682 840 q 646 903 646 876 q 665 953 646 935 q 715 972 683 972 z "},"ń":{"ha":715,"x_min":49,"x_max":681,"o":"m 49 0 m 132 35 l 132 604 l 49 625 l 49 639 l 243 639 l 243 556 q 281 607 257 583 q 331 643 300 626 q 403 660 361 660 q 480 644 444 660 q 542 602 515 629 q 583 537 568 575 q 597 451 597 499 l 597 35 l 681 14 l 681 0 l 410 0 l 410 14 l 486 35 l 486 451 q 455 591 486 550 q 382 632 424 632 q 322 613 347 632 q 279 569 297 593 q 243 507 258 542 l 243 35 l 319 14 l 319 0 l 49 0 l 49 14 l 132 35 m 392 883 l 517 883 l 378 717 l 336 717 l 392 883 z "},"ň":{"ha":715,"x_min":49,"x_max":681,"o":"m 49 0 m 132 35 l 132 604 l 49 625 l 49 639 l 243 639 l 243 556 q 281 607 257 583 q 331 643 300 626 q 403 660 361 660 q 480 644 444 660 q 542 602 515 629 q 583 537 568 575 q 597 451 597 499 l 597 35 l 681 14 l 681 0 l 410 0 l 410 14 l 486 35 l 486 451 q 455 591 486 550 q 382 632 424 632 q 322 613 347 632 q 279 569 297 593 q 243 507 258 542 l 243 35 l 319 14 l 319 0 l 49 0 l 49 14 l 132 35 m 385 814 l 510 897 l 544 897 l 385 717 l 225 897 l 260 897 l 385 814 z "},"ó":{"ha":653,"x_min":63,"x_max":590,"o":"m 63 0 m 326 639 q 278 623 303 639 q 234 570 254 607 q 201 472 214 533 q 188 319 188 411 q 201 167 188 228 q 234 69 214 106 q 278 16 254 32 q 326 0 303 0 q 374 16 350 0 q 419 69 399 32 q 452 167 439 106 q 465 319 465 228 q 452 472 465 411 q 419 570 439 533 q 374 623 399 607 q 326 639 350 639 m 326 660 q 426 637 378 660 q 510 570 474 614 q 569 463 547 526 q 590 319 590 400 q 569 176 590 239 q 510 69 547 113 q 426 2 474 25 q 326 -21 378 -21 q 226 2 274 -21 q 142 69 179 25 q 84 176 106 113 q 63 319 63 239 q 84 463 63 400 q 142 570 106 526 q 226 637 179 614 q 326 660 274 660 m 347 882 l 472 882 l 333 715 l 292 715 l 347 882 z "},"ô":{"ha":653,"x_min":63,"x_max":590,"o":"m 63 0 m 326 639 q 278 623 303 639 q 234 570 254 607 q 201 472 214 533 q 188 319 188 411 q 201 167 188 228 q 234 69 214 106 q 278 16 254 32 q 326 0 303 0 q 374 16 350 0 q 419 69 399 32 q 452 167 439 106 q 465 319 465 228 q 452 472 465 411 q 419 570 439 533 q 374 623 399 607 q 326 639 350 639 m 326 660 q 426 637 378 660 q 510 570 474 614 q 569 463 547 526 q 590 319 590 400 q 569 176 590 239 q 510 69 547 113 q 426 2 474 25 q 326 -21 378 -21 q 226 2 274 -21 q 142 69 179 25 q 84 176 106 113 q 63 319 63 239 q 84 463 63 400 q 142 570 106 526 q 226 637 179 614 q 326 660 274 660 m 201 724 l 167 724 l 326 904 l 486 724 l 451 724 l 326 807 l 201 724 z "},"ő":{"ha":653,"x_min":63,"x_max":590,"o":"m 63 0 m 326 639 q 278 623 303 639 q 234 570 254 607 q 201 472 214 533 q 188 319 188 411 q 201 167 188 228 q 234 69 214 106 q 278 16 254 32 q 326 0 303 0 q 374 16 350 0 q 419 69 399 32 q 452 167 439 106 q 465 319 465 228 q 452 472 465 411 q 419 570 439 533 q 374 623 399 607 q 326 639 350 639 m 326 660 q 426 637 378 660 q 510 570 474 614 q 569 463 547 526 q 590 319 590 400 q 569 176 590 239 q 510 69 547 113 q 426 2 474 25 q 326 -21 378 -21 q 226 2 274 -21 q 142 69 179 25 q 84 176 106 113 q 63 319 63 239 q 84 463 63 400 q 142 570 106 526 q 226 637 179 614 q 326 660 274 660 m 271 890 l 382 890 l 257 724 l 215 724 l 271 890 m 424 890 l 535 890 l 410 724 l 368 724 l 424 890 z "},"ö":{"ha":653,"x_min":63,"x_max":590,"o":"m 63 0 m 326 639 q 278 623 303 639 q 234 570 254 607 q 201 472 214 533 q 188 319 188 411 q 201 167 188 228 q 234 69 214 106 q 278 16 254 32 q 326 0 303 0 q 374 16 350 0 q 419 69 399 32 q 452 167 439 106 q 465 319 465 228 q 452 472 465 411 q 419 570 439 533 q 374 623 399 607 q 326 639 350 639 m 326 660 q 426 637 378 660 q 510 570 474 614 q 569 463 547 526 q 590 319 590 400 q 569 176 590 239 q 510 69 547 113 q 426 2 474 25 q 326 -21 378 -21 q 226 2 274 -21 q 142 69 179 25 q 84 176 106 113 q 63 319 63 239 q 84 463 63 400 q 142 570 106 526 q 226 637 179 614 q 326 660 274 660 m 281 807 q 259 759 281 781 q 211 738 238 738 q 163 759 185 738 q 142 807 142 781 q 163 855 142 833 q 211 876 185 876 q 259 855 238 876 q 281 807 281 833 m 510 807 q 488 759 510 781 q 440 738 467 738 q 392 759 414 738 q 371 807 371 781 q 392 855 371 833 q 440 876 414 876 q 488 855 467 876 q 510 807 510 833 z "},"ř":{"ha":500,"x_min":49,"x_max":493,"o":"m 49 0 m 243 35 l 326 14 l 326 0 l 49 0 l 49 14 l 132 35 l 132 604 l 49 625 l 49 639 l 243 639 l 243 472 q 286 565 261 524 q 340 631 308 601 q 417 660 372 660 q 446 658 432 660 q 471 653 460 656 q 493 646 483 649 l 451 542 q 433 551 443 546 q 413 559 425 556 q 389 563 401 563 q 325 543 353 563 q 279 500 297 524 q 243 438 257 472 l 243 35 m 278 821 l 403 904 l 438 904 l 278 724 l 118 904 l 153 904 l 278 821 z "},"ů":{"ha":701,"x_min":21,"x_max":653,"o":"m 21 0 m 569 604 l 569 35 l 653 14 l 653 0 l 458 0 l 458 83 q 419 31 443 54 q 370 -5 400 11 q 299 -21 340 -21 q 222 -6 257 -21 q 160 37 186 10 q 119 102 133 64 q 104 188 104 140 l 104 604 l 21 625 l 21 639 l 292 639 l 292 625 l 215 604 l 215 188 q 247 48 215 89 q 319 7 278 7 q 378 26 353 7 q 422 69 404 46 q 458 132 443 96 l 458 604 l 382 625 l 382 639 l 653 639 l 653 625 l 569 604 m 461 814 q 429 738 461 767 q 350 710 397 710 q 271 738 303 710 q 239 814 239 767 q 271 890 239 861 q 350 918 303 918 q 429 890 397 918 q 461 814 461 861 m 399 814 q 385 870 399 850 q 350 890 371 890 q 315 870 329 890 q 301 814 301 850 q 315 758 301 778 q 350 738 329 738 q 385 758 371 738 q 399 814 399 778 z "},"ú":{"ha":701,"x_min":21,"x_max":653,"o":"m 21 0 m 569 604 l 569 35 l 653 14 l 653 0 l 458 0 l 458 83 q 419 31 443 54 q 370 -5 400 11 q 299 -21 340 -21 q 222 -6 257 -21 q 160 37 186 10 q 119 102 133 64 q 104 188 104 140 l 104 604 l 21 625 l 21 639 l 292 639 l 292 625 l 215 604 l 215 188 q 247 48 215 89 q 319 7 278 7 q 378 26 353 7 q 422 69 404 46 q 458 132 443 96 l 458 604 l 382 625 l 382 639 l 653 639 l 653 625 l 569 604 m 371 890 l 496 890 l 357 724 l 315 724 l 371 890 z "},"ű":{"ha":701,"x_min":21,"x_max":653,"o":"m 21 0 m 569 604 l 569 35 l 653 14 l 653 0 l 458 0 l 458 83 q 419 31 443 54 q 370 -5 400 11 q 299 -21 340 -21 q 222 -6 257 -21 q 160 37 186 10 q 119 102 133 64 q 104 188 104 140 l 104 604 l 21 625 l 21 639 l 292 639 l 292 625 l 215 604 l 215 188 q 247 48 215 89 q 319 7 278 7 q 378 26 353 7 q 422 69 404 46 q 458 132 443 96 l 458 604 l 382 625 l 382 639 l 653 639 l 653 625 l 569 604 m 288 890 l 399 890 l 274 724 l 232 724 l 288 890 m 440 890 l 551 890 l 426 724 l 385 724 l 440 890 z "},"ü":{"ha":701,"x_min":21,"x_max":653,"o":"m 21 0 m 569 604 l 569 35 l 653 14 l 653 0 l 458 0 l 458 83 q 419 31 443 54 q 370 -5 400 11 q 299 -21 340 -21 q 222 -6 257 -21 q 160 37 186 10 q 119 102 133 64 q 104 188 104 140 l 104 604 l 21 625 l 21 639 l 292 639 l 292 625 l 215 604 l 215 188 q 247 48 215 89 q 319 7 278 7 q 378 26 353 7 q 422 69 404 46 q 458 132 443 96 l 458 604 l 382 625 l 382 639 l 653 639 l 653 625 l 569 604 m 292 807 q 270 759 292 781 q 222 738 249 738 q 174 759 196 738 q 153 807 153 781 q 174 855 153 833 q 222 876 196 876 q 270 855 249 876 q 292 807 292 833 m 521 807 q 499 759 521 781 q 451 738 478 738 q 403 759 425 738 q 382 807 382 781 q 403 855 382 833 q 451 876 425 876 q 499 855 478 876 q 521 807 521 833 z "},"ý":{"ha":604,"x_min":-14,"x_max":625,"o":"m 0 0 m 299 -118 q 256 -227 276 -183 q 212 -298 235 -271 q 165 -336 189 -325 q 111 -347 140 -347 q 96 -347 103 -347 q 82 -344 89 -346 q 69 -340 75 -343 l 49 -236 q 61 -240 54 -239 q 75 -242 68 -242 q 90 -243 82 -243 q 212 -212 174 -243 q 271 -118 250 -181 l 310 0 l 69 604 l -14 625 l -14 639 l 264 639 l 264 625 l 188 604 l 364 161 l 507 590 l 417 625 l 417 639 l 625 639 l 625 625 l 535 590 l 299 -118 m 364 890 l 489 890 l 350 724 l 308 724 l 364 890 z "},"ţ":{"ha":493,"x_min":14,"x_max":479,"o":"m 14 0 m 403 639 l 403 611 l 243 611 l 243 168 q 274 45 243 83 q 340 7 304 7 q 420 42 388 7 q 458 146 453 78 l 479 146 q 431 23 474 67 q 326 -21 389 -21 q 185 31 238 -21 q 132 167 132 83 l 132 611 l 14 611 l 14 639 l 132 639 l 132 799 l 243 875 l 243 639 l 403 639 m 299 -96 q 349 -119 331 -96 q 368 -179 368 -143 q 351 -269 368 -235 q 315 -324 335 -304 q 264 -360 292 -347 l 250 -339 q 288 -312 271 -328 q 315 -284 303 -300 q 326 -249 326 -268 q 325 -238 326 -243 q 322 -229 324 -233 q 319 -221 321 -224 q 310 -225 315 -224 q 292 -228 299 -228 q 247 -210 265 -228 q 229 -165 229 -192 q 248 -115 229 -133 q 299 -96 267 -96 z "},"đ":{"ha":694,"x_min":56,"x_max":653,"o":"m 569 806 l 653 806 l 653 778 l 569 778 l 569 35 l 653 14 l 653 0 l 458 0 l 458 83 q 419 31 443 54 q 370 -5 400 11 q 299 -21 340 -21 q 210 2 254 -21 q 133 69 167 25 q 77 176 99 113 q 56 319 56 239 q 77 463 56 400 q 135 570 99 526 q 217 637 171 614 q 313 660 263 660 q 379 649 351 660 q 425 625 407 638 q 458 590 446 610 l 458 778 l 264 778 l 264 806 l 458 806 l 458 938 l 375 958 l 375 972 l 569 972 l 569 806 m 333 632 q 277 616 304 632 q 228 564 250 600 q 194 468 207 528 q 181 319 181 408 q 194 171 181 231 q 227 74 207 111 q 272 22 247 38 q 319 7 296 7 q 378 26 353 7 q 422 69 404 46 q 458 132 443 96 l 458 549 q 426 590 444 572 q 388 619 411 606 q 333 632 365 632 z "},"Ł":{"ha":653,"x_min":63,"x_max":611,"o":"m 146 472 l 146 938 l 63 958 l 63 972 l 347 972 l 347 958 l 264 938 l 264 608 l 361 722 l 361 667 l 264 553 l 264 28 l 514 28 q 538 136 514 86 q 597 222 561 186 l 611 222 q 607 185 608 204 q 605 149 606 168 q 604 111 604 129 q 605 65 604 85 q 607 29 606 44 q 611 0 608 13 l 63 0 l 63 14 l 146 35 l 146 417 l 63 319 l 63 375 l 146 472 z "},"ł":{"ha":361,"x_min":49,"x_max":326,"o":"m 132 35 l 132 413 l 63 333 l 63 389 l 132 468 l 132 938 l 49 958 l 49 972 l 243 972 l 243 593 l 319 681 l 319 625 l 243 538 l 243 35 l 326 14 l 326 0 l 49 0 l 49 14 l 132 35 z "},"Đ":{"ha":778,"x_min":63,"x_max":729,"o":"m 306 972 q 474 939 397 972 q 608 843 551 906 q 697 690 665 781 q 729 486 729 600 q 697 281 729 371 q 608 128 665 190 q 474 33 551 65 q 306 0 397 0 l 63 0 l 63 14 l 146 35 l 146 472 l 63 472 l 63 500 l 146 500 l 146 938 l 63 958 l 63 972 l 306 972 m 264 28 l 306 28 q 419 53 365 28 q 512 135 472 79 q 574 277 551 190 q 597 486 597 364 q 574 695 597 608 q 512 838 551 782 q 419 919 472 893 q 306 944 365 944 l 264 944 l 264 500 l 458 500 l 458 472 l 264 472 l 264 28 z "},"¡":{"ha":333,"x_min":83,"x_max":250,"o":"m 83 0 m 167 -354 q 226 -329 203 -354 q 250 -257 250 -304 l 188 417 l 146 417 l 83 -257 q 107 -329 83 -304 q 167 -354 131 -354 m 90 576 q 113 522 90 544 q 167 500 135 500 q 221 522 199 500 q 243 576 243 544 q 221 631 243 608 q 167 653 199 653 q 113 631 135 653 q 90 576 90 608 z "},"Ÿ":{"ha":681,"x_min":-7,"x_max":708,"o":"m 0 0 m 410 389 l 410 35 l 493 14 l 493 0 l 208 0 l 208 14 l 292 35 l 292 382 l 76 938 l -7 958 l -7 972 l 285 972 l 285 958 l 201 938 l 399 431 l 590 924 l 500 958 l 500 972 l 708 972 l 708 958 l 618 924 l 410 389 m 340 1147 q 319 1099 340 1121 q 271 1078 297 1078 q 223 1099 244 1078 q 201 1147 201 1121 q 223 1195 201 1174 q 271 1217 244 1217 q 319 1195 297 1217 q 340 1147 340 1174 m 569 1147 q 548 1099 569 1121 q 500 1078 526 1078 q 452 1099 474 1078 q 431 1147 431 1121 q 452 1195 431 1174 q 500 1217 474 1217 q 548 1195 526 1217 q 569 1147 569 1174 z "},"¿":{"ha":639,"x_min":42,"x_max":611,"o":"m 42 0 m 417 576 q 394 522 417 544 q 340 500 372 500 q 286 522 308 500 q 264 576 264 544 q 286 631 264 608 q 340 653 308 653 q 394 631 372 653 q 417 576 417 608 m 42 -56 q 62 56 42 4 q 116 147 82 107 q 194 213 150 186 q 285 250 238 240 l 319 424 l 361 424 q 369 351 364 388 q 382 286 374 321 q 403 222 390 251 q 231 159 288 222 q 174 -56 174 96 q 188 -183 174 -131 q 226 -269 201 -236 q 288 -318 251 -303 q 368 -333 324 -333 q 451 -317 413 -333 q 519 -271 490 -300 q 566 -207 549 -243 q 583 -132 583 -171 q 555 -72 583 -96 q 458 -49 526 -49 l 431 63 q 443 67 436 65 q 458 69 450 68 q 472 69 465 69 q 571 23 531 69 q 611 -118 611 -24 q 592 -212 611 -168 q 538 -289 572 -256 q 456 -342 503 -322 q 354 -361 408 -361 q 226 -339 283 -361 q 127 -276 168 -317 q 64 -180 86 -236 q 42 -56 42 -124 z "},"À":{"ha":722,"x_min":-7,"x_max":750,"o":"m 0 0 m 465 285 l 181 285 l 111 49 l 201 14 l 201 0 l -7 0 l -7 14 l 83 49 l 354 993 l 375 993 l 667 35 l 750 14 l 750 0 l 458 0 l 458 14 l 542 35 l 465 285 m 188 311 l 457 311 l 318 771 l 188 311 m 399 1042 l 357 1042 l 218 1208 l 343 1208 l 399 1042 z "},"Ã":{"ha":722,"x_min":-7,"x_max":750,"o":"m 0 0 m 465 285 l 181 285 l 111 49 l 201 14 l 201 0 l -7 0 l -7 14 l 83 49 l 354 993 l 375 993 l 667 35 l 750 14 l 750 0 l 458 0 l 458 14 l 542 35 l 465 285 m 188 311 l 457 311 l 318 771 l 188 311 m 514 1188 q 487 1081 514 1114 q 424 1049 460 1049 q 386 1060 403 1049 q 355 1087 369 1072 q 327 1113 340 1101 q 299 1125 314 1125 q 264 1110 278 1125 q 250 1063 250 1094 l 229 1063 q 256 1169 229 1136 q 319 1201 283 1201 q 357 1190 340 1201 q 388 1163 374 1178 q 416 1137 403 1149 q 444 1125 429 1125 q 479 1140 465 1125 q 493 1188 493 1156 l 514 1188 z "},"Å":{"ha":722,"x_min":-7,"x_max":750,"o":"m 0 0 m 465 285 l 181 285 l 111 49 l 201 14 l 201 0 l -7 0 l -7 14 l 83 49 l 354 993 l 375 993 l 667 35 l 750 14 l 750 0 l 458 0 l 458 14 l 542 35 l 465 285 m 188 311 l 457 311 l 318 771 l 188 311 m 475 1063 q 443 987 475 1015 q 364 958 411 958 q 285 987 317 958 q 253 1063 253 1015 q 285 1138 253 1110 q 364 1167 317 1167 q 443 1138 411 1167 q 475 1063 475 1110 m 413 1063 q 399 1119 413 1099 q 364 1139 385 1139 q 329 1119 343 1139 q 315 1063 315 1099 q 329 1006 315 1026 q 364 986 343 986 q 399 1006 385 986 q 413 1063 413 1026 z "},"È":{"ha":701,"x_min":63,"x_max":639,"o":"m 63 0 m 542 28 q 565 136 542 86 q 625 222 589 186 l 639 222 q 635 185 636 204 q 633 149 633 168 q 632 111 632 129 q 633 65 632 85 q 635 29 633 44 q 639 0 636 13 l 63 0 l 63 14 l 146 35 l 146 938 l 63 958 l 63 972 l 625 972 q 621 943 622 960 q 619 908 619 928 q 618 861 618 888 q 619 823 618 842 q 621 788 619 804 q 625 750 622 768 l 611 750 q 551 836 575 786 q 528 944 528 886 l 264 944 l 264 528 l 396 528 l 458 653 l 472 653 l 472 375 l 458 375 l 396 500 l 264 500 l 264 28 l 542 28 m 413 1042 l 371 1042 l 232 1208 l 357 1208 l 413 1042 z "},"Ê":{"ha":701,"x_min":63,"x_max":639,"o":"m 63 0 m 542 28 q 565 136 542 86 q 625 222 589 186 l 639 222 q 635 185 636 204 q 633 149 633 168 q 632 111 632 129 q 633 65 632 85 q 635 29 633 44 q 639 0 636 13 l 63 0 l 63 14 l 146 35 l 146 938 l 63 958 l 63 972 l 625 972 q 621 943 622 960 q 619 908 619 928 q 618 861 618 888 q 619 823 618 842 q 621 788 619 804 q 625 750 622 768 l 611 750 q 551 836 575 786 q 528 944 528 886 l 264 944 l 264 528 l 396 528 l 458 653 l 472 653 l 472 375 l 458 375 l 396 500 l 264 500 l 264 28 l 542 28 m 257 1050 l 222 1050 l 382 1231 l 542 1050 l 507 1050 l 382 1133 l 257 1050 z "},"Ì":{"ha":410,"x_min":58,"x_max":347,"o":"m 58 0 m 264 35 l 347 14 l 347 0 l 63 0 l 63 14 l 146 35 l 146 938 l 63 958 l 63 972 l 347 972 l 347 958 l 264 938 l 264 35 m 239 1042 l 197 1042 l 58 1208 l 183 1208 l 239 1042 z "},"Ï":{"ha":410,"x_min":25,"x_max":393,"o":"m 25 0 m 264 35 l 347 14 l 347 0 l 63 0 l 63 14 l 146 35 l 146 938 l 63 958 l 63 972 l 347 972 l 347 958 l 264 938 l 264 35 m 164 1125 q 142 1077 164 1099 q 94 1056 121 1056 q 47 1077 68 1056 q 25 1125 25 1099 q 47 1173 25 1151 q 94 1194 68 1194 q 142 1173 121 1194 q 164 1125 164 1151 m 393 1125 q 372 1077 393 1099 q 324 1056 350 1056 q 276 1077 297 1056 q 254 1125 254 1099 q 276 1173 254 1151 q 324 1194 297 1194 q 372 1173 350 1194 q 393 1125 393 1151 z "},"Ğ":{"ha":729,"x_min":63,"x_max":667,"o":"m 63 0 m 549 444 l 410 444 l 410 472 l 667 472 l 667 368 q 642 201 667 274 q 578 80 618 129 q 488 5 539 31 q 382 -21 436 -21 q 268 10 325 -21 q 165 105 211 42 q 91 263 119 168 q 63 486 63 358 q 91 709 63 614 q 166 867 119 804 q 271 962 213 931 q 389 993 329 993 q 449 982 422 993 q 496 958 476 971 q 535 924 518 943 q 565 963 546 944 q 604 986 583 981 l 625 986 q 621 944 622 965 q 619 903 619 925 q 618 861 618 882 q 619 815 618 838 q 621 772 619 792 q 625 729 622 750 l 604 729 q 519 905 572 844 q 403 965 465 965 q 326 943 364 965 q 260 866 289 921 q 213 719 231 811 q 194 486 194 626 q 212 249 194 343 q 257 100 229 156 q 317 22 285 44 q 382 0 350 0 q 443 17 413 0 q 497 77 474 35 q 534 190 519 119 q 549 368 549 261 l 549 444 m 378 1076 q 422 1097 404 1076 q 440 1153 440 1117 q 439 1172 440 1164 q 436 1188 438 1181 q 433 1201 435 1194 l 524 1201 q 526 1192 525 1197 q 529 1181 528 1188 q 531 1167 531 1174 q 494 1088 531 1119 q 378 1056 457 1056 q 262 1088 299 1056 q 225 1167 225 1119 q 228 1192 225 1181 q 232 1201 229 1197 l 322 1201 q 318 1188 319 1194 q 316 1172 317 1181 q 315 1153 315 1164 q 333 1097 315 1117 q 378 1076 351 1076 z "},"Ñ":{"ha":813,"x_min":56,"x_max":757,"o":"m 56 0 m 639 924 l 549 958 l 549 972 l 757 972 l 757 958 l 667 924 l 667 -14 l 646 -14 l 174 854 l 174 49 l 264 14 l 264 0 l 56 0 l 56 14 l 146 49 l 146 931 l 56 958 l 56 972 l 243 972 l 639 243 l 639 924 m 549 1194 q 522 1088 549 1121 q 458 1056 494 1056 q 421 1067 438 1056 q 390 1094 404 1079 q 362 1120 375 1108 q 333 1132 349 1132 q 299 1117 313 1132 q 285 1069 285 1101 l 264 1069 q 291 1176 264 1143 q 354 1208 318 1208 q 392 1197 375 1208 q 423 1170 408 1185 q 451 1144 438 1156 q 479 1132 464 1132 q 514 1147 500 1132 q 528 1194 528 1163 l 549 1194 z "},"Ò":{"ha":764,"x_min":56,"x_max":708,"o":"m 56 0 m 708 486 q 680 263 708 358 q 605 105 651 168 q 500 10 558 42 q 382 -21 442 -21 q 264 10 322 -21 q 159 105 206 42 q 84 263 113 168 q 56 486 56 358 q 84 709 56 614 q 159 867 113 804 q 264 962 206 931 q 382 993 322 993 q 500 962 442 993 q 605 867 558 931 q 680 709 651 804 q 708 486 708 614 m 576 486 q 559 723 576 629 q 513 872 542 817 q 450 950 485 928 q 382 972 415 972 q 314 950 349 972 q 251 872 279 928 q 205 723 222 817 q 188 486 188 629 q 205 249 188 343 q 251 100 222 156 q 314 22 279 44 q 382 0 349 0 q 450 22 415 0 q 513 100 485 44 q 559 249 542 156 q 576 486 576 343 m 417 1056 l 375 1056 l 236 1222 l 361 1222 l 417 1056 z "},"Õ":{"ha":764,"x_min":56,"x_max":708,"o":"m 56 0 m 708 486 q 680 263 708 358 q 605 105 651 168 q 500 10 558 42 q 382 -21 442 -21 q 264 10 322 -21 q 159 105 206 42 q 84 263 113 168 q 56 486 56 358 q 84 709 56 614 q 159 867 113 804 q 264 962 206 931 q 382 993 322 993 q 500 962 442 993 q 605 867 558 931 q 680 709 651 804 q 708 486 708 614 m 576 486 q 559 723 576 629 q 513 872 542 817 q 450 950 485 928 q 382 972 415 972 q 314 950 349 972 q 251 872 279 928 q 205 723 222 817 q 188 486 188 629 q 205 249 188 343 q 251 100 222 156 q 314 22 279 44 q 382 0 349 0 q 450 22 415 0 q 513 100 485 44 q 559 249 542 156 q 576 486 576 343 m 524 1208 q 497 1102 524 1135 q 433 1069 469 1069 q 396 1081 413 1069 q 365 1108 379 1093 q 337 1134 350 1122 q 308 1146 324 1146 q 274 1131 288 1146 q 260 1083 260 1115 l 239 1083 q 266 1190 239 1157 q 329 1222 293 1222 q 367 1210 350 1222 q 398 1184 383 1199 q 426 1158 413 1169 q 454 1146 439 1146 q 489 1161 475 1146 q 503 1208 503 1176 l 524 1208 z "},"Ù":{"ha":792,"x_min":42,"x_max":764,"o":"m 42 0 m 674 278 q 609 50 674 121 q 424 -21 544 -21 q 203 58 282 -21 q 125 278 125 136 l 125 938 l 42 958 l 42 972 l 326 972 l 326 958 l 243 938 l 243 278 q 299 72 243 138 q 438 7 354 7 q 523 23 485 7 q 588 72 561 39 q 631 156 615 106 q 646 278 646 207 l 646 924 l 556 958 l 556 972 l 764 972 l 764 958 l 674 924 l 674 278 m 472 1042 l 431 1042 l 292 1208 l 417 1208 l 472 1042 z "},"Û":{"ha":792,"x_min":42,"x_max":764,"o":"m 42 0 m 674 278 q 609 50 674 121 q 424 -21 544 -21 q 203 58 282 -21 q 125 278 125 136 l 125 938 l 42 958 l 42 972 l 326 972 l 326 958 l 243 938 l 243 278 q 299 72 243 138 q 438 7 354 7 q 523 23 485 7 q 588 72 561 39 q 631 156 615 106 q 646 278 646 207 l 646 924 l 556 958 l 556 972 l 764 972 l 764 958 l 674 924 l 674 278 m 299 1056 l 264 1056 l 424 1236 l 583 1056 l 549 1056 l 424 1139 l 299 1056 z "},"İ":{"ha":410,"x_min":63,"x_max":347,"o":"m 63 0 m 264 35 l 347 14 l 347 0 l 63 0 l 63 14 l 146 35 l 146 938 l 63 958 l 63 972 l 347 972 l 347 958 l 264 938 l 264 35 m 278 1125 q 256 1077 278 1099 q 208 1056 235 1056 q 160 1077 182 1056 q 139 1125 139 1099 q 160 1173 139 1151 q 208 1194 182 1194 q 256 1173 235 1194 q 278 1125 278 1151 z "},"Ş":{"ha":646,"x_min":49,"x_max":604,"o":"m 49 0 m 153 792 q 186 694 153 735 q 269 618 219 653 q 378 550 319 583 q 488 474 438 517 q 571 375 538 432 q 604 236 604 318 q 585 135 604 182 q 530 53 565 88 q 446 -1 494 18 q 340 -21 397 -21 q 250 -10 288 -21 q 188 14 213 0 q 139 49 158 29 q 109 10 128 28 q 69 -14 90 -8 l 49 -14 q 51 28 50 6 q 54 68 53 46 q 56 111 56 90 q 54 158 56 135 q 51 200 53 181 q 49 243 50 222 l 69 243 q 162 67 101 128 q 326 7 222 7 q 462 60 410 7 q 514 208 514 114 q 481 306 514 265 q 397 382 447 347 q 288 450 347 417 q 179 526 229 483 q 96 625 129 568 q 63 764 63 682 q 81 853 63 811 q 131 926 99 894 q 206 975 163 957 q 299 993 249 993 q 372 982 340 993 q 426 958 404 971 q 472 924 451 943 q 502 963 483 944 q 542 986 521 981 l 563 986 q 558 944 560 965 q 556 903 557 925 q 556 861 556 882 q 556 815 556 838 q 558 772 557 792 q 563 729 560 750 l 542 729 q 453 905 510 844 q 313 965 396 965 q 199 918 244 965 q 153 792 153 871 m 288 0 l 322 0 l 322 -49 q 401 -72 375 -49 q 426 -132 426 -96 q 398 -192 426 -168 q 301 -215 369 -215 q 278 -215 288 -215 q 261 -212 268 -214 q 246 -208 253 -211 l 246 -179 q 258 -183 251 -182 q 288 -187 271 -187 q 335 -170 319 -187 q 350 -132 350 -153 q 335 -87 350 -106 q 288 -69 319 -69 l 288 0 z "},"à":{"ha":646,"x_min":56,"x_max":611,"o":"m 56 0 m 417 340 q 238 287 296 340 q 181 139 181 233 q 211 42 181 76 q 278 7 242 7 q 337 26 311 7 q 381 69 363 46 q 417 132 401 96 l 417 340 m 313 639 q 243 610 271 639 q 215 535 215 582 q 216 515 215 524 q 218 500 217 507 q 222 486 219 493 l 111 458 q 107 469 108 463 q 105 485 106 476 q 104 507 104 493 q 118 563 104 536 q 159 612 132 590 q 224 647 186 633 q 313 660 263 660 q 470 603 413 660 q 528 451 528 546 l 528 35 l 611 14 l 611 0 l 417 0 l 417 83 q 378 31 401 54 q 328 -5 358 11 q 257 -21 299 -21 q 106 26 157 -21 q 56 153 56 74 q 77 231 56 192 q 142 300 99 269 q 254 349 186 331 q 417 368 322 368 l 417 451 q 385 597 417 556 q 313 639 354 639 m 368 715 l 326 715 l 188 882 l 313 882 l 368 715 z "},"ã":{"ha":646,"x_min":56,"x_max":611,"o":"m 56 0 m 417 340 q 238 287 296 340 q 181 139 181 233 q 211 42 181 76 q 278 7 242 7 q 337 26 311 7 q 381 69 363 46 q 417 132 401 96 l 417 340 m 313 639 q 243 610 271 639 q 215 535 215 582 q 216 515 215 524 q 218 500 217 507 q 222 486 219 493 l 111 458 q 107 469 108 463 q 105 485 106 476 q 104 507 104 493 q 118 563 104 536 q 159 612 132 590 q 224 647 186 633 q 313 660 263 660 q 470 603 413 660 q 528 451 528 546 l 528 35 l 611 14 l 611 0 l 417 0 l 417 83 q 378 31 401 54 q 328 -5 358 11 q 257 -21 299 -21 q 106 26 157 -21 q 56 153 56 74 q 77 231 56 192 q 142 300 99 269 q 254 349 186 331 q 417 368 322 368 l 417 451 q 385 597 417 556 q 313 639 354 639 m 463 876 q 435 770 463 803 q 372 738 408 738 q 335 749 351 738 q 303 776 318 761 q 276 802 289 790 q 247 814 263 814 q 213 799 226 814 q 199 751 199 783 l 178 751 q 205 858 178 825 q 268 890 232 890 q 306 878 289 890 q 337 852 322 867 q 365 826 351 838 q 393 814 378 814 q 428 829 414 814 q 442 876 442 844 l 463 876 z "},"å":{"ha":646,"x_min":56,"x_max":611,"o":"m 56 0 m 417 340 q 238 287 296 340 q 181 139 181 233 q 211 42 181 76 q 278 7 242 7 q 337 26 311 7 q 381 69 363 46 q 417 132 401 96 l 417 340 m 313 639 q 243 610 271 639 q 215 535 215 582 q 216 515 215 524 q 218 500 217 507 q 222 486 219 493 l 111 458 q 107 469 108 463 q 105 485 106 476 q 104 507 104 493 q 118 563 104 536 q 159 612 132 590 q 224 647 186 633 q 313 660 263 660 q 470 603 413 660 q 528 451 528 546 l 528 35 l 611 14 l 611 0 l 417 0 l 417 83 q 378 31 401 54 q 328 -5 358 11 q 257 -21 299 -21 q 106 26 157 -21 q 56 153 56 74 q 77 231 56 192 q 142 300 99 269 q 254 349 186 331 q 417 368 322 368 l 417 451 q 385 597 417 556 q 313 639 354 639 m 424 819 q 392 744 424 772 q 313 715 360 715 q 233 744 265 715 q 201 819 201 772 q 233 895 201 867 q 313 924 265 924 q 392 895 360 924 q 424 819 424 867 m 361 819 q 347 876 361 856 q 313 896 333 896 q 278 876 292 896 q 264 819 264 856 q 278 763 264 783 q 313 743 292 743 q 347 763 333 743 q 361 819 361 783 z "},"è":{"ha":618,"x_min":63,"x_max":563,"o":"m 63 0 m 188 319 q 201 171 188 231 q 235 74 214 111 q 284 22 257 38 q 340 7 311 7 q 408 21 376 7 q 465 58 440 35 q 506 115 490 82 q 528 188 522 149 l 549 188 q 524 105 543 143 q 476 39 506 67 q 409 -5 447 11 q 326 -21 371 -21 q 226 2 274 -21 q 142 69 179 25 q 84 176 106 113 q 63 319 63 239 q 83 467 63 403 q 138 573 104 531 q 217 638 172 615 q 313 660 263 660 q 408 638 363 660 q 487 573 453 615 q 542 467 521 531 q 563 319 563 403 l 188 319 m 313 639 q 271 626 292 639 q 232 579 250 613 q 202 490 214 546 q 188 347 190 433 l 438 347 q 423 490 435 433 q 393 579 411 546 q 354 626 375 613 q 313 639 333 639 m 343 715 l 301 715 l 163 882 l 288 882 l 343 715 z "},"ê":{"ha":618,"x_min":63,"x_max":563,"o":"m 63 0 m 188 319 q 201 171 188 231 q 235 74 214 111 q 284 22 257 38 q 340 7 311 7 q 408 21 376 7 q 465 58 440 35 q 506 115 490 82 q 528 188 522 149 l 549 188 q 524 105 543 143 q 476 39 506 67 q 409 -5 447 11 q 326 -21 371 -21 q 226 2 274 -21 q 142 69 179 25 q 84 176 106 113 q 63 319 63 239 q 83 467 63 403 q 138 573 104 531 q 217 638 172 615 q 313 660 263 660 q 408 638 363 660 q 487 573 453 615 q 542 467 521 531 q 563 319 563 403 l 188 319 m 313 639 q 271 626 292 639 q 232 579 250 613 q 202 490 214 546 q 188 347 190 433 l 438 347 q 423 490 435 433 q 393 579 411 546 q 354 626 375 613 q 313 639 333 639 m 197 729 l 163 729 l 322 910 l 482 729 l 447 729 l 322 813 l 197 729 z "},"ì":{"ha":361,"x_min":35,"x_max":326,"o":"m 132 35 l 132 604 l 49 625 l 49 639 l 243 639 l 243 35 l 326 14 l 326 0 l 49 0 l 49 14 l 132 35 m 215 715 l 174 715 l 35 882 l 160 882 l 215 715 z "}}}
